<?xml version="1.0" encoding="utf-8"?>
<!-- Generator: Adobe Illustrator 27.6.1, SVG Export Plug-In . SVG Version: 6.00 Build 0)  -->
<svg version="1.1" xmlns="http://www.w3.org/2000/svg" xmlns:xlink="http://www.w3.org/1999/xlink" x="0px" y="0px"
	 viewBox="0 0 272.7913208 156.9410095" style="enable-background:new 0 0 272.7913208 156.9410095;" xml:space="preserve">
<style type="text/css">
	.st0{fill:#814E90;stroke:#000000;stroke-linecap:round;stroke-linejoin:round;stroke-miterlimit:10;}
	.st1{fill:#FFFFFF;stroke:#000000;stroke-miterlimit:10;}
	.st2{fill:#FFFFFF;}
	.st3{fill:none;stroke:#000000;stroke-linecap:round;stroke-linejoin:round;stroke-miterlimit:10;}
	.st4{fill:#926F6B;stroke:#000000;stroke-linecap:round;stroke-linejoin:round;stroke-miterlimit:10;}
	.st5{fill:#1D0235;}
	.st6{fill:#E1DECB;}
	.st7{fill:#80386A;}
	.st8{fill:#3D0B30;}
	.st9{fill:#3B071E;}
	.st10{fill:#010103;}
	.st11{fill:#D94C90;}
	.st12{fill:#771F45;}
	.st13{fill:#19122B;stroke:#000000;stroke-linecap:round;stroke-linejoin:round;stroke-miterlimit:10;}
	.st14{fill:#3A2E59;stroke:#000000;stroke-linecap:round;stroke-linejoin:round;stroke-miterlimit:10;}
	.st15{fill:#E1DECB;stroke:#000000;stroke-linecap:round;stroke-linejoin:round;stroke-miterlimit:10;}
	.st16{fill:#3B071E;stroke:#000000;stroke-linecap:round;stroke-linejoin:round;stroke-miterlimit:10;}
	.st17{fill:#3C3C3B;stroke:#000000;stroke-miterlimit:10;}
	.st18{fill:#575756;stroke:#000000;stroke-miterlimit:10;}
	.st19{fill:#EEEEEE;stroke:#000000;stroke-miterlimit:10;}
	.st20{fill:#EEEEEE;stroke:#000000;stroke-linecap:round;stroke-linejoin:round;stroke-miterlimit:10;}
	.st21{fill:#CA2432;}
	.st22{fill:#871026;}
	.st23{fill:#FCC5BE;}
	.st24{fill:#F6ACBD;stroke:#000000;stroke-linecap:round;stroke-linejoin:round;stroke-miterlimit:10;}
	.st25{fill:#9F49A2;}
	.st26{fill:none;stroke:#B780A8;stroke-linecap:round;stroke-linejoin:round;stroke-miterlimit:10;}
	.st27{fill:#F6ACBD;}
	.st28{fill:#9789A3;stroke:#000000;stroke-linecap:round;stroke-linejoin:round;stroke-miterlimit:10;}
	.st29{fill:url(#SVGID_1_);stroke:#000000;stroke-linecap:round;stroke-linejoin:round;stroke-miterlimit:10;}
	.st30{fill:url(#SVGID_00000175303094306554383660000009854034868003046530_);}
	.st31{fill:url(#SVGID_00000161619963646543880130000001275886425715996350_);}
	.st32{fill:url(#SVGID_00000093159926820307898200000010827139379548829109_);}
	.st33{fill:url(#SVGID_00000010303598587505687670000004128358774774256532_);}
	.st34{fill:url(#SVGID_00000150785492848201271020000016023131913565030580_);}
	
		.st35{fill:url(#SVGID_00000016047702626807175280000000606174867576297606_);stroke:#000000;stroke-linecap:round;stroke-linejoin:round;stroke-miterlimit:10;}
	.st36{fill:url(#SVGID_00000063631618535043023590000008914467276889542273_);}
	.st37{fill:url(#SVGID_00000119817522443859585060000007950067446489471897_);}
	.st38{fill:url(#SVGID_00000057134273115077721180000018060726698860421558_);}
	.st39{fill:url(#SVGID_00000047023354380909665990000002011128086482979501_);}
	.st40{fill:url(#SVGID_00000118382783054170431860000018020037057284337082_);}
	
		.st41{fill:url(#SVGID_00000181782098455007705600000004241113666974209159_);stroke:#000000;stroke-linecap:round;stroke-linejoin:round;stroke-miterlimit:10;}
	.st42{fill:#0B0B0B;}
	.st43{fill:#010101;}
	.st44{fill:#151514;}
	.st45{fill:#1D1D1D;}
	.st46{fill:#1E1E1D;}
	.st47{fill:#141414;}
	.st48{fill:#0D0D0D;}
	.st49{fill:#3C3C3B;}
	.st50{fill:#333332;}
	.st51{fill:#292929;}
	.st52{fill:#242423;}
	.st53{fill:#0F0F0F;}
	.st54{fill:#323231;}
	.st55{fill:#4C4C4B;}
	.st56{fill:#4F4F4E;}
	.st57{fill:#363635;}
	.st58{fill:#575756;}
	.st59{fill:#0A0A0A;}
	.st60{fill:#101010;}
	.st61{fill:#0E0E0D;}
	.st62{fill:#545453;}
	.st63{fill:#393938;}
	.st64{fill:#050505;}
	.st65{fill:#030303;}
	.st66{fill:#202020;}
	.st67{fill:#373736;}
	.st68{fill:#303030;}
	.st69{fill:#2D2D2C;}
	.st70{fill:#252525;}
	.st71{fill:#212121;}
	.st72{fill:#1C1C1B;}
	.st73{fill:#161616;}
	.st74{fill:#070707;}
	.st75{fill:#2F2F2F;}
	.st76{fill:#8F8F8F;}
	.st77{fill:#1A1A19;}
	.st78{fill:#707070;}
	.st79{fill:#080808;}
	.st80{fill:#171717;}
	.st81{fill:#1B1B1B;}
	.st82{fill:#5F5F5F;}
	.st83{fill:#1C111F;}
	.st84{fill:#814E90;}
	.st85{fill:#693F75;}
	.st86{fill:#5F396A;}
	.st87{fill:#563460;}
	.st88{fill:#7D4B8B;}
	.st89{fill:#744681;}
	.st90{fill:#4D2E55;}
	.st91{fill:#4D2E56;}
	.st92{fill:#804D8E;}
	.st93{fill:#492C52;}
	.st94{fill:#412749;}
	.st95{fill:#6E437B;}
	.st96{fill:#774885;}
	.st97{fill:#6C4179;}
	.st98{fill:#402647;}
	.st99{fill:#341F3A;}
	.st100{fill:#030103;}
	.st101{fill:#43284A;}
	.st102{fill:#6C4178;}
	.st103{fill:#080408;}
	.st104{fill:#4B2D53;}
	.st105{fill:#6E427B;}
	.st106{fill:#7F4D8E;}
	.st107{fill:#392340;}
	.st108{fill:#565656;}
	.st109{fill:#673E73;}
	.st110{fill:#3E2545;}
	.st111{fill:#241528;}
	.st112{fill:#0F0910;}
	.st113{fill:#150D18;}
	.st114{fill:#1A1A1A;}
	.st115{fill:#492C51;}
	.st116{fill:#130B15;}
	.st117{fill:#3C2443;}
	.st118{fill:#100A12;}
	.st119{fill:#613A6C;}
	.st120{fill:#28182D;}
	.st121{fill:#1A0F1D;}
	.st122{fill:#7C4B8A;}
	.st123{fill:#4F4F4F;}
	.st124{fill:#7A4988;}
	.st125{fill:#040205;}
	.st126{fill:#4C2E55;}
	.st127{fill:#54335E;}
	.st128{fill:#482B50;}
	.st129{fill:#44294C;}
	.st130{fill:#7A4A88;}
	.st131{fill:#070407;}
	.st132{fill:#794987;}
	.st133{fill:#09050A;}
	.st134{fill:#72457F;}
	.st135{fill:#180E1B;}
	.st136{fill:#140C16;}
	.st137{fill:#603A6B;}
	.st138{fill:#7C4A8A;}
	.st139{fill:#2D1B32;}
	.st140{fill:#51315A;}
	.st141{fill:#6F437C;}
	.st142{fill:#0A060B;}
	.st143{fill:#6B4178;}
	.st144{fill:#7F4C8D;}
	.st145{fill:#70437D;}
	.st146{fill:#120A14;}
	.st147{fill:#655C6D;}
	.st148{fill:#683F75;}
	.st149{fill:#150C18;}
	.st150{fill:#633C6F;}
	.st151{fill:#5C3766;}
	.st152{fill:#784987;}
	.st153{fill:#3A2341;}
	.st154{fill:#784886;}
	.st155{fill:#110A12;}
	.st156{fill:#0B060C;}
	.st157{fill:#724580;}
	.st158{fill:#2F1C35;}
	.st159{fill:#110A13;}
	.st160{fill:#583563;}
	.st161{fill:#321E38;}
	.st162{fill:#593663;}
	.st163{fill:#4C2D54;}
	.st164{fill:#232323;}
	.st165{fill:#040305;}
	.st166{fill:#6D4279;}
	.st167{fill:#4A2D53;}
	.st168{fill:#573461;}
	.st169{fill:#764784;}
	.st170{fill:#52315C;}
	.st171{fill:#643C70;}
	.st172{fill:#010001;}
	.st173{fill:#8E8199;}
	.st174{fill:#160D19;}
	.st175{fill:#190F1C;}
	.st176{fill:#2E1C34;}
	.st177{fill:#1C1120;}
	.st178{fill:#5A3664;}
	.st179{fill:#1E1222;}
	.st180{fill:#5C3767;}
	.st181{fill:#7B4A89;}
	.st182{fill:#040204;}
	.st183{fill:#804D8F;}
	.st184{fill:#080409;}
	.st185{fill:#744682;}
	.st186{fill:#653D71;}
	.st187{fill:#5D3867;}
	.st188{fill:#503059;}
	.st189{fill:#9587A1;}
	.st190{fill:#1F1323;}
	.st191{fill:#7A4A89;}
	.st192{fill:#231527;}
	.st193{fill:#623B6D;}
	.st194{fill:#1F1222;}
	.st195{fill:#3D2544;}
	.st196{fill:#70447D;}
	.st197{fill:#734580;}
	.st198{fill:#241628;}
	.st199{fill:#42284A;}
	.st200{fill:#402747;}
	.st201{fill:#050205;}
	.st202{fill:#120B14;}
	.st203{fill:#311D36;}
	.st204{fill:#080509;}
	.st205{fill:#35203C;}
	.st206{fill:#653D70;}
	.st207{fill:#71447E;}
	.st208{fill:#28182C;}
	.st209{fill:#2C1B31;}
	.st210{fill:#6A3F76;}
	.st211{fill:#2C1A31;}
	.st212{fill:#0C070E;}
	.st213{fill:#412748;}
	.st214{fill:#211425;}
	.st215{fill:#683E74;}
	.st216{fill:#71447F;}
	.st217{fill:#583562;}
	.st218{fill:#1A101D;}
	.st219{fill:#54325E;}
	.st220{fill:#4E2F58;}
	.st221{fill:#7D4B8C;}
	.st222{fill:#593664;}
	.st223{fill:#7E4C8D;}
	.st224{fill:#663D72;}
	.st225{fill:#593563;}
	.st226{fill:#331F39;}
	.st227{fill:#754783;}
	.st228{fill:#36203C;}
	.st229{fill:#7E4C8C;}
	.st230{fill:#5B3765;}
	.st231{fill:#060306;}
	.st232{fill:#774784;}
	.st233{fill:#150C17;}
	.st234{fill:#050305;}
	.st235{fill:#9789A3;}
	.st236{fill:#877A92;}
	.st237{fill:#201323;}
	.st238{fill:#55335E;}
	.st239{fill:#623B6E;}
	.st240{fill:#734581;}
	.st241{fill:#3D2444;}
	.st242{fill:#55335F;}
	.st243{fill:#3B2342;}
	.st244{fill:#241629;}
	.st245{fill:#6D427A;}
	.st246{fill:#201324;}
	.st247{fill:#140C17;}
	.st248{fill:#1B101E;}
	.st249{fill:#151515;}
	.st250{fill:#4A2C53;}
	.st251{fill:#0D070E;}
	.st252{fill:#683F74;}
	.st253{fill:#2F1C34;}
	.st254{fill:#44294B;}
	.st255{fill:#0D080F;}
	.st256{fill:#070607;}
	.st257{fill:#060407;}
	.st258{fill:#784885;}
	.st259{fill:#3F2646;}
	.st260{fill:#5D3868;}
	.st261{fill:#251629;}
	.st262{fill:#53325C;}
	.st263{fill:#4F3058;}
	.st264{fill:#26172A;}
	.st265{fill:#311E37;}
	.st266{fill:#4B2D54;}
	.st267{fill:#27172B;}
	.st268{fill:#2E1B33;}
	.st269{fill:#100911;}
	.st270{fill:#1E1221;}
	.st271{fill:#070408;}
	.st272{fill:#38223F;}
	.st273{fill:#030203;}
	.st274{fill:#452A4D;}
	.st275{fill:#080609;}
	.st276{fill:#383838;}
	.st277{fill:#201D23;}
	.st278{fill:#301D36;}
	.st279{fill:#4F3059;}
	.st280{fill:#754682;}
	.st281{fill:#7B4A8A;}
	.st282{fill:#6B4077;}
	.st283{fill:#7B6F84;}
	.st284{fill:#0E080F;}
	.st285{fill:#38213E;}
	.st286{fill:#0E0810;}
	.st287{fill:#020102;}
	.st288{fill:#090809;}
	.st289{fill:#311D37;}
	.st290{fill:#0F0911;}
	.st291{fill:#525252;}
	.st292{fill:#CACACA;}
	.st293{fill:#27172C;}
	.st294{fill:#926F6B;}
	.st295{fill:#929292;}
	.st296{fill:#26172B;}
	.st297{fill:#DBDBDB;}
	.st298{fill:#050303;}
	.st299{fill:#5A5A5A;}
	.st300{fill:#693F76;}
	.st301{fill:#6A4077;}
	.st302{fill:#52315B;}
	.st303{fill:#6A4076;}
	.st304{fill:#3A2340;}
	.st305{fill:#633B6E;}
	.st306{fill:#664D4A;}
	.st307{fill:#9688A2;}
	.st308{fill:#36203D;}
	.st309{fill:#434343;}
	.st310{fill:#25162A;}
	.st311{fill:#846561;}
	.st312{fill:#E7E7E7;}
	.st313{fill:#29252C;}
	.st314{fill:#FDFDFD;}
	.st315{fill:#5D5D5D;}
	.st316{fill:#221526;}
	.st317{fill:#353535;}
	.st318{fill:#221426;}
	.st319{fill:#36213D;}
	.st320{fill:#7F615D;}
	.st321{fill:#BFBFBF;}
	.st322{fill:#6D5350;}
	.st323{fill:#644C49;}
	.st324{fill:#53325D;}
	.st325{fill:#B4B4B4;}
	.st326{fill:#131313;}
	.st327{fill:#191919;}
	.st328{fill:#343434;}
	.st329{fill:#FFCA53;}
	.st330{fill:#FFC649;}
	.st331{fill:#FFB920;}
	.st332{fill:#FFD883;}
	.st333{fill:#FFB003;}
	.st334{fill:#FFB613;}
	.st335{fill:#FFBD29;}
	.st336{fill:#FFB40F;}
	.st337{fill:#FFBC26;}
	.st338{fill:#FFB300;}
	.st339{fill:#FFB301;}
	.st340{fill:#FFB200;}
	.st341{fill:#FFB100;}
	.st342{fill:#FFC441;}
	.st343{fill:#FFB500;}
	.st344{fill:#FFB906;}
	.st345{fill:#FFB803;}
	.st346{fill:#FFB400;}
	.st347{fill:#FFC74A;}
	.st348{fill:#FFB000;}
	.st349{fill:#FFC648;}
	.st350{fill:#FFC136;}
	.st351{fill:#FFB600;}
	.st352{fill:#FFB801;}
	.st353{fill:#FFBF0B;}
	.st354{fill:#FFBA05;}
	.st355{fill:#FFD881;}
	.st356{fill:#FFB102;}
	.st357{fill:#FFCA54;}
	.st358{fill:#FFB715;}
	.st359{fill:#FFB900;}
	.st360{fill:#FFC50F;}
	.st361{fill:#FFC009;}
	.st362{fill:#FFCE60;}
	.st363{fill:#FFCC5A;}
	.st364{fill:#FFB208;}
	.st365{fill:#FFB410;}
	.st366{fill:#FFBB00;}
	.st367{fill:#FFCB16;}
	.st368{fill:#FFBA00;}
	.st369{fill:#FFBE00;}
	.st370{fill:#FFC002;}
	.st371{fill:#FFD21A;}
	.st372{fill:#FFBB23;}
	.st373{fill:#FFC000;}
	.st374{fill:#FFD116;}
	.st375{fill:#FFD81E;}
	.st376{fill:#FFAF00;}
	.st377{fill:#FFDE22;}
	.st378{fill:#FFD315;}
	.st379{fill:#FFC200;}
	.st380{fill:#FFC100;}
	.st381{fill:#FFBF00;}
	.st382{fill:#FFAD00;}
	.st383{fill:#FFBC00;}
	.st384{fill:#FFB700;}
	.st385{fill:#FFCC0E;}
	.st386{fill:#FFE327;}
	.st387{fill:#FFDB1F;}
	.st388{fill:#FFD61A;}
	.st389{fill:#FFD91D;}
	.st390{fill:#FFB41C;}
	.st391{fill:#FFAB00;}
	.st392{fill:#FFB800;}
	.st393{fill:#FFE62B;}
	.st394{fill:#FFE227;}
	.st395{fill:#FFDB1E;}
	.st396{fill:#FFC300;}
	.st397{fill:#FFA900;}
	.st398{fill:#FFEA2F;}
	.st399{fill:#FFDF23;}
	.st400{fill:#FFB31B;}
	.st401{fill:#FFA700;}
	.st402{fill:#FFDA1D;}
	.st403{fill:#FFED33;}
	.st404{fill:#FFC301;}
	.st405{fill:#FFA906;}
	.st406{fill:#FFA705;}
	.st407{fill:#FFA500;}
	.st408{fill:#FFDE21;}
	.st409{fill:#FFF136;}
	.st410{fill:#FFA300;}
	.st411{fill:#FFC400;}
	.st412{fill:#FFCA09;}
	.st413{fill:#FFF53B;}
	.st414{fill:#FFA100;}
	.st415{fill:#FFAE00;}
	.st416{fill:#FFF73E;}
	.st417{fill:#FFC45F;}
	.st418{fill:#FFA000;}
	.st419{fill:#FFC500;}
	.st420{fill:#FFFB41;}
	.st421{fill:#FFEB2E;}
	.st422{fill:#FFC601;}
	.st423{fill:#FFAB1F;}
	.st424{fill:#FF9D00;}
	.st425{fill:#FFA30E;}
	.st426{fill:#FFFE44;}
	.st427{fill:#FFF337;}
	.st428{fill:#FFF63B;}
	.st429{fill:#FFB53F;}
	.st430{fill:#FF9B00;}
	.st431{fill:#FFE223;}
	.st432{fill:#F8FF48;}
	.st433{fill:#FF9C03;}
	.st434{fill:#FFCB7B;}
	.st435{fill:#FF9900;}
	.st436{fill:#FFC46A;}
	.st437{fill:#FFC600;}
	.st438{fill:#FFC905;}
	.st439{fill:#F1FF4B;}
	.st440{fill:#FFFF45;}
	.st441{fill:#FFBD00;}
	.st442{fill:#FFB13C;}
	.st443{fill:#FF9800;}
	.st444{fill:#FFD28F;}
	.st445{fill:#FFC700;}
	.st446{fill:#EAFF4E;}
	.st447{fill:#EEFF4C;}
	.st448{fill:#FFCA04;}
	.st449{fill:#FF9600;}
	.st450{fill:#FFB954;}
	.st451{fill:#E2FF50;}
	.st452{fill:#FFC901;}
	.st453{fill:#E4FF4F;}
	.st454{fill:#FFF437;}
	.st455{fill:#FFC800;}
	.st456{fill:#FF9300;}
	.st457{fill:#DBFF53;}
	.st458{fill:#FFF83B;}
	.st459{fill:#FFCB04;}
	.st460{fill:#E9FF4D;}
	.st461{fill:#F3FF49;}
	.st462{fill:#FF9100;}
	.st463{fill:#FFC900;}
	.st464{fill:#D6FF55;}
	.st465{fill:#FFCB02;}
	.st466{fill:#FFE827;}
	.st467{fill:#FFC070;}
	.st468{fill:#FFA12A;}
	.st469{fill:#FF8E00;}
	.st470{fill:#FFCA00;}
	.st471{fill:#FFDD18;}
	.st472{fill:#CFFF58;}
	.st473{fill:#FF8F00;}
	.st474{fill:#FF8C00;}
	.st475{fill:#FFCB00;}
	.st476{fill:#FFD50D;}
	.st477{fill:#FFE21E;}
	.st478{fill:#CAFF5A;}
	.st479{fill:#CCFF58;}
	.st480{fill:#FFFE43;}
	.st481{fill:#FFAA00;}
	.st482{fill:#FF8900;}
	.st483{fill:#FFCD00;}
	.st484{fill:#FFE21B;}
	.st485{fill:#FFF838;}
	.st486{fill:#C2FF5C;}
	.st487{fill:#FF8700;}
	.st488{fill:#FF9A00;}
	.st489{fill:#FFCF00;}
	.st490{fill:#FFDD11;}
	.st491{fill:#BDFF5E;}
	.st492{fill:#FFCE00;}
	.st493{fill:#FF8F11;}
	.st494{fill:#FF8400;}
	.st495{fill:#BBFF5F;}
	.st496{fill:#FFD000;}
	.st497{fill:#FF8200;}
	.st498{fill:#FFEC26;}
	.st499{fill:#B6FF61;}
	.st500{fill:#FF8302;}
	.st501{fill:#FF7F00;}
	.st502{fill:#FFD400;}
	.st503{fill:#FF8A00;}
	.st504{fill:#D4FF52;}
	.st505{fill:#B1FF63;}
	.st506{fill:#E7FF49;}
	.st507{fill:#FF7D00;}
	.st508{fill:#FFD500;}
	.st509{fill:#CFFF54;}
	.st510{fill:#FFED23;}
	.st511{fill:#AFFF64;}
	.st512{fill:#FFE111;}
	.st513{fill:#FFC286;}
	.st514{fill:#FF8500;}
	.st515{fill:#FF8100;}
	.st516{fill:#FF9F44;}
	.st517{fill:#FF7B00;}
	.st518{fill:#FFD700;}
	.st519{fill:#FFD800;}
	.st520{fill:#FFAC00;}
	.st521{fill:#FF9000;}
	.st522{fill:#ADFF65;}
	.st523{fill:#FFF026;}
	.st524{fill:#FF9C3F;}
	.st525{fill:#FF7900;}
	.st526{fill:#FFD900;}
	.st527{fill:#AAFF66;}
	.st528{fill:#FFE513;}
	.st529{fill:#FF9331;}
	.st530{fill:#FF8B22;}
	.st531{fill:#FF7600;}
	.st532{fill:#FF7800;}
	.st533{fill:#FFD300;}
	.st534{fill:#FFDB00;}
	.st535{fill:#A8FF67;}
	.st536{fill:#FF7C00;}
	.st537{fill:#FFAC67;}
	.st538{fill:#FF7400;}
	.st539{fill:#FFDE00;}
	.st540{fill:#FFEF1F;}
	.st541{fill:#A9FF68;}
	.st542{fill:#FF7500;}
	.st543{fill:#FF7E17;}
	.st544{fill:#FF7200;}
	.st545{fill:#FFE000;}
	.st546{fill:#DDFF48;}
	.st547{fill:#FFFB2E;}
	.st548{fill:#E8FF42;}
	.st549{fill:#A6FF69;}
	.st550{fill:#B4FF62;}
	.st551{fill:#FF7000;}
	.st552{fill:#FFE400;}
	.st553{fill:#FFD200;}
	.st554{fill:#FF9645;}
	.st555{fill:#FF6D00;}
	.st556{fill:#FFA600;}
	.st557{fill:#FFAC6E;}
	.st558{fill:#FFA25D;}
	.st559{fill:#FF730A;}
	.st560{fill:#FFE900;}
	.st561{fill:#C6FF53;}
	.st562{fill:#A4FF6A;}
	.st563{fill:#FF760E;}
	.st564{fill:#FF9C00;}
	.st565{fill:#FFAA51;}
	.st566{fill:#FF6C00;}
	.st567{fill:#FF8000;}
	.st568{fill:#FFEB00;}
	.st569{fill:#FFEC00;}
	.st570{fill:#F2FF34;}
	.st571{fill:#FF7700;}
	.st572{fill:#FF7B09;}
	.st573{fill:#FF6A00;}
	.st574{fill:#FF6E08;}
	.st575{fill:#FF8600;}
	.st576{fill:#D2FF49;}
	.st577{fill:#FFF207;}
	.st578{fill:#FFEA00;}
	.st579{fill:#FF6800;}
	.st580{fill:#FFA15F;}
	.st581{fill:#FF7F28;}
	.st582{fill:#FFDF00;}
	.st583{fill:#FF6900;}
	.st584{fill:#FF7B24;}
	.st585{fill:#FF6500;}
	.st586{fill:#FFCC00;}
	.st587{fill:#FF7315;}
	.st588{fill:#FF6F00;}
	.st589{fill:#FF6E00;}
	.st590{fill:#FF5B04;}
	.st591{fill:#FF6400;}
	.st592{fill:#FF9700;}
	.st593{fill:#FF7116;}
	.st594{fill:#FF6200;}
	.st595{fill:#FF7925;}
	.st596{fill:#FF6E14;}
	.st597{fill:#FF9500;}
	.st598{fill:#FF9F00;}
	.st599{fill:#FF8846;}
	.st600{fill:#FFC74D;}
	.st601{fill:#FF6000;}
	.st602{fill:#FFD600;}
	.st603{fill:#FF6100;}
	.st604{fill:#FFE800;}
	.st605{fill:#FFA400;}
	.st606{fill:#FF5E00;}
	.st607{fill:#FF8800;}
	.st608{fill:#FFA800;}
	.st609{fill:#FF6A12;}
	.st610{fill:#FFDA00;}
	.st611{fill:#FF670E;}
	.st612{fill:#FF6C16;}
	.st613{fill:#FF8B00;}
	.st614{fill:#FF5C00;}
	.st615{fill:#FFE700;}
	.st616{fill:#FF6610;}
	.st617{fill:#FF7A00;}
	.st618{fill:#FF640E;}
	.st619{fill:#FF5B00;}
	.st620{fill:#FFD100;}
	.st621{fill:#FFE500;}
	.st622{fill:#FFAA7B;}
	.st623{fill:#FFA16D;}
	.st624{fill:#FF5900;}
	.st625{fill:#FF7327;}
	.st626{fill:#FFE600;}
	.st627{fill:#FFE200;}
	.st628{fill:#FF7930;}
	.st629{fill:#FF5800;}
	.st630{fill:#FF5700;}
	.st631{fill:#FF691A;}
	.st632{fill:#FF8A4C;}
	.st633{fill:#FF7C37;}
	.st634{fill:#FF4D00;}
	.st635{fill:#FF5600;}
	.st636{fill:#FF5500;}
	.st637{fill:#FF5300;}
	.st638{fill:#FF5C0D;}
	.st639{fill:#FF5403;}
	.st640{fill:#FF5200;}
	.st641{fill:#FFBD4D;}
	.st642{fill:#FF9E70;}
	.st643{fill:#FF5000;}
	.st644{fill:#FF5400;}
	.st645{fill:#FFE300;}
	.st646{fill:#FF5A0D;}
	.st647{fill:#FFB456;}
	.st648{fill:#FF4F00;}
	.st649{fill:#FF9A31;}
	.st650{fill:#FF9223;}
	.st651{fill:#FF4E00;}
	.st652{fill:#FF6300;}
	.st653{fill:#FF7300;}
	.st654{fill:#FFA255;}
	.st655{fill:#FF6623;}
	.st656{fill:#FF6E2E;}
	.st657{fill:#FF6700;}
	.st658{fill:#FF621F;}
	.st659{fill:#FF4C00;}
	.st660{fill:#FF4B00;}
	.st661{fill:#FF9F21;}
	.st662{fill:#FFA22A;}
	.st663{fill:#FF4A00;}
	.st664{fill:#FF956B;}
	.st665{fill:#FF6805;}
	.st666{fill:#FF6600;}
	.st667{fill:#FF4900;}
	.st668{fill:#FF5B19;}
	.st669{fill:#FFFEFE;}
	.st670{fill:#FFC84C;}
	.st671{fill:#FFDC8F;}
	.st672{fill:#FFBB09;}
	.st673{fill:#FFB001;}
	.st674{fill:#FFFCF6;}
	.st675{fill:#FFB313;}
	.st676{fill:#FFDC63;}
	.st677{fill:#FFC451;}
	.st678{fill:#FFAA0B;}
	.st679{fill:#FFD052;}
	.st680{fill:#FFD314;}
	.st681{fill:#FFA200;}
	.st682{fill:#FFE304;}
	.st683{fill:#FFEE24;}
	.st684{fill:#FFB234;}
	.st685{fill:#FFD371;}
	.st686{fill:#FFDCA6;}
	.st687{fill:#FFCC19;}
	.st688{fill:#FFBC56;}
	.st689{fill:#FFCD81;}
	.st690{fill:#FFD98B;}
	.st691{fill:#FFCB19;}
	.st692{fill:#FFB652;}
	.st693{fill:#FF9E1A;}
	.st694{fill:#FFE9C0;}
	.st695{fill:#FFFE00;}
	.st696{fill:#FFF800;}
	.st697{fill:#FFAF48;}
	.st698{fill:#FFF700;}
	.st699{fill:#FFFD00;}
	.st700{fill:#FFF0D6;}
	.st701{fill:#FFFEBA;}
	.st702{fill:#FFFEB5;}
	.st703{fill:#FFF5E9;}
	.st704{fill:#FF8D00;}
	.st705{fill:#FFFF00;}
	.st706{fill:#FFB12F;}
	.st707{fill:#FFFC00;}
	.st708{fill:#FFFB0B;}
	.st709{fill:#FFF600;}
	.st710{fill:#FFD07F;}
	.st711{fill:#FFD492;}
	.st712{fill:#FFFEF0;}
	.st713{fill:#FFFB00;}
	.st714{fill:#FFF900;}
	.st715{fill:#FFFA00;}
	.st716{fill:#FFF500;}
	.st717{fill:#FFA540;}
	.st718{fill:#FFFEF5;}
	.st719{fill:#FF9220;}
	.st720{fill:#FFA415;}
	.st721{fill:#FFFCC3;}
	.st722{fill:#FFF000;}
	.st723{fill:#FF9E3D;}
	.st724{fill:#FF9400;}
	.st725{fill:#FFEA21;}
	.st726{fill:#FFF200;}
	.st727{fill:#FFCC81;}
	.st728{fill:#FF9F1C;}
	.st729{fill:#FFF400;}
	.st730{fill:#FFEF00;}
	.st731{fill:#FF8A04;}
	.st732{fill:#FF8300;}
	.st733{fill:#FFF300;}
	.st734{fill:#FFE303;}
	.st735{fill:#FF5F00;}
	.st736{fill:#FF8304;}
	.st737{fill:#FFFAA9;}
	.st738{fill:#FFE840;}
	.st739{fill:#FFF100;}
	.st740{fill:#FFEE00;}
	.st741{fill:#FF7100;}
	.st742{fill:#FF7601;}
	.st743{fill:#FFDC00;}
	.st744{fill:#FF6B00;}
	.st745{fill:#FFE100;}
	.st746{fill:#FFA25C;}
	.st747{fill:#FFED00;}
	.st748{fill:#FF7E22;}
	.st749{fill:#FFD98E;}
	.st750{fill:#FF7002;}
	.st751{fill:#FFD088;}
	.st752{fill:#FF7B25;}
	.st753{fill:#FF7A28;}
	.st754{fill:#FF9011;}
	.st755{fill:#FFEAC2;}
	.st756{fill:#FFAE7A;}
	.st757{fill:#FF5D00;}
	.st758{fill:#FFC46D;}
	.st759{fill:#FF5A00;}
	.st760{fill:#FF6806;}
	.st761{fill:#FF5100;}
	.st762{fill:#FF5306;}
	.st763{fill:#FF5D1B;}
	.st764{fill:#8A6965;}
	.st765{fill:#020101;}
	.st766{fill:#1D0A16;}
	.st767{fill:#916E6A;}
	.st768{fill:#2D0F21;}
	.st769{fill:#280E1E;}
	.st770{fill:#240C1B;}
	.st771{fill:#483735;}
	.st772{fill:#331226;}
	.st773{fill:#2F1023;}
	.st774{fill:#2B0F20;}
	.st775{fill:#020001;}
	.st776{fill:#1D1615;}
	.st777{fill:#100C0C;}
	.st778{fill:#461834;}
	.st779{fill:#401630;}
	.st780{fill:#3C152D;}
	.st781{fill:#381329;}
	.st782{fill:#220B19;}
	.st783{fill:#584340;}
	.st784{fill:#7F605D;}
	.st785{fill:#4D1B39;}
	.st786{fill:#471935;}
	.st787{fill:#431731;}
	.st788{fill:#3E162E;}
	.st789{fill:#3A142B;}
	.st790{fill:#341227;}
	.st791{fill:#581F41;}
	.st792{fill:#531D3E;}
	.st793{fill:#4E1B3A;}
	.st794{fill:#491A36;}
	.st795{fill:#451833;}
	.st796{fill:#411730;}
	.st797{fill:#3B152C;}
	.st798{fill:#632249;}
	.st799{fill:#5E2146;}
	.st800{fill:#5A1F43;}
	.st801{fill:#541D3F;}
	.st802{fill:#501C3B;}
	.st803{fill:#4C1A38;}
	.st804{fill:#421731;}
	.st805{fill:#6B2650;}
	.st806{fill:#67244D;}
	.st807{fill:#632349;}
	.st808{fill:#5D2145;}
	.st809{fill:#591F42;}
	.st810{fill:#551E3F;}
	.st811{fill:#501C3C;}
	.st812{fill:#4B1A37;}
	.st813{fill:#762958;}
	.st814{fill:#722855;}
	.st815{fill:#6E2652;}
	.st816{fill:#6A254E;}
	.st817{fill:#64234A;}
	.st818{fill:#5F2147;}
	.st819{fill:#5B2044;}
	.st820{fill:#571E40;}
	.st821{fill:#511C3C;}
	.st822{fill:#4B3937;}
	.st823{fill:#7D2C5D;}
	.st824{fill:#792A5A;}
	.st825{fill:#742957;}
	.st826{fill:#702753;}
	.st827{fill:#6A254F;}
	.st828{fill:#66244C;}
	.st829{fill:#622249;}
	.st830{fill:#5E2145;}
	.st831{fill:#2B201F;}
	.st832{fill:#893066;}
	.st833{fill:#842E62;}
	.st834{fill:#7F2D5F;}
	.st835{fill:#7B2B5B;}
	.st836{fill:#772A58;}
	.st837{fill:#712854;}
	.st838{fill:#6D2651;}
	.st839{fill:#68254E;}
	.st840{fill:#120E0D;}
	.st841{fill:#92336D;}
	.st842{fill:#8D3168;}
	.st843{fill:#883065;}
	.st844{fill:#802D5F;}
	.st845{fill:#7A2B5B;}
	.st846{fill:#762957;}
	.st847{fill:#1B1414;}
	.st848{fill:#993672;}
	.st849{fill:#93346D;}
	.st850{fill:#8F326A;}
	.st851{fill:#8B3167;}
	.st852{fill:#862F64;}
	.st853{fill:#812D60;}
	.st854{fill:#7C2C5C;}
	.st855{fill:#782A59;}
	.st856{fill:#742856;}
	.st857{fill:#322624;}
	.st858{fill:#130F0E;}
	.st859{fill:#9A3672;}
	.st860{fill:#96346F;}
	.st861{fill:#91336C;}
	.st862{fill:#8D3169;}
	.st863{fill:#872F64;}
	.st864{fill:#832E61;}
	.st865{fill:#7F2C5E;}
	.st866{fill:#752957;}
	.st867{fill:#0E0A0A;}
	.st868{fill:#2D2221;}
	.st869{fill:#0A0307;}
	.st870{fill:#3F162F;}
	.st871{fill:#8B6966;}
	.st872{fill:#56413F;}
	.st873{fill:#0D0C0C;}
	.st874{fill:#2E2321;}
	.st875{fill:#110D0D;}
	.st876{fill:#372A28;}
	.st877{fill:#886763;}
	.st878{fill:#EEEEEE;}
	.st879{fill:#CC2E3B;}
	.st880{fill:#983346;}
	.st881{fill:#DD757E;}
	.st882{fill:#575757;}
	.st883{fill:#CE3440;}
	.st884{fill:#7E7E7E;}
	.st885{fill:#DFDFDF;}
	.st886{fill:#B7707E;}
	.st887{fill:#C42230;}
	.st888{fill:#CF3440;}
	.st889{fill:#555555;}
	.st890{fill:#D03D4A;}
	.st891{fill:#F09F9D;}
	.st892{fill:#EDEDED;}
	.st893{fill:#981529;}
	.st894{fill:#CB2735;}
	.st895{fill:#EAA9AE;}
	.st896{fill:#8D8D8D;}
	.st897{fill:#B91F2F;}
	.st898{fill:#DA5B62;}
	.st899{fill:#CD323F;}
	.st900{fill:#A9A9A9;}
	.st901{fill:#991529;}
	.st902{fill:#4A4A4A;}
	.st903{fill:#973043;}
	.st904{fill:#BD202F;}
	.st905{fill:#0C0C0C;}
	.st906{fill:#912539;}
	.st907{fill:#C92331;}
	.st908{fill:#C22130;}
	.st909{fill:#1C1C1C;}
	.st910{fill:#F8F8F8;}
	.st911{fill:#B97582;}
	.st912{fill:#8E1227;}
	.st913{fill:#A6192B;}
	.st914{fill:#B31D2D;}
	.st915{fill:#C45C69;}
	.st916{fill:#E08289;}
	.st917{fill:#373737;}
	.st918{fill:#A0A0A0;}
	.st919{fill:#E9E9E9;}
	.st920{fill:#959595;}
	.st921{fill:#D75E69;}
	.st922{fill:#414141;}
	.st923{fill:#6F6F6F;}
	.st924{fill:#242424;}
	.st925{fill:#BABABA;}
	.st926{fill:#8B8B8B;}
	.st927{fill:#505050;}
	.st928{fill:#606060;}
	.st929{fill:#222222;}
	.st930{fill:#909090;}
	.st931{fill:#29182E;}
	.st932{fill:#B5B5B5;}
	.st933{fill:#E4E4E4;}
	.st934{fill:#888888;}
	.st935{fill:#C0C0C0;}
	.st936{fill:#C6C6C6;}
	.st937{fill:#29192E;}
	.st938{fill:#DADADA;}
	.st939{fill:#C3C3C3;}
	.st940{fill:#9B9B9B;}
	.st941{fill:#060507;}
	.st942{fill:#3D2545;}
	.st943{fill:#060307;}
	.st944{fill:#020202;}
	.st945{fill:#090909;}
	.st946{fill:#A6A6A6;}
	.st947{fill:#D9626C;}
	.st948{fill:#E49299;}
	.st949{fill:#404040;}
	.st950{fill:#A3A3A3;}
	.st951{fill:#E38C93;}
	.st952{fill:#D24753;}
	.st953{fill:#444444;}
	.st954{fill:#472B4F;}
	.st955{fill:#794988;}
	.st956{fill:#D75A65;}
	.st957{fill:#3A0A0E;}
	.st958{fill:#170E1A;}
	.st959{fill:#754683;}
	.st960{fill:#FDDCD8;}
	.st961{fill:#F6B2AE;}
	.st962{fill:#301C35;}
	.st963{fill:#51315B;}
	.st964{fill:#CB2936;}
	.st965{fill:#CA2533;}
	.st966{fill:#9B1529;}
	.st967{fill:#462A4F;}
	.st968{fill:#E27478;}
	.st969{fill:#35203B;}
	.st970{fill:#CD303E;}
	.st971{fill:#9B1629;}
	.st972{fill:#901227;}
	.st973{fill:#CA2735;}
	.st974{fill:#794986;}
	.st975{fill:#160D18;}
	.st976{fill:#E16F73;}
	.st977{fill:#CD313D;}
	.st978{fill:#A54B5C;}
	.st979{fill:#2B1A30;}
	.st980{fill:#170D19;}
	.st981{fill:#170E19;}
	.st982{fill:#B71E2E;}
	.st983{fill:#AD5C6B;}
	.st984{fill:#8F1E32;}
	.st985{fill:#9F172A;}
	.st986{fill:#AA1A2B;}
	.st987{fill:#A8192C;}
	.st988{fill:#331E39;}
	.st989{fill:#B61E2E;}
	.st990{fill:#B36977;}
	.st991{fill:#931328;}
	.st992{fill:#C72331;}
	.st993{fill:#A2182A;}
	.st994{fill:#C02130;}
	.st995{fill:#CC9AA4;}
	.st996{fill:#BC7B87;}
	.st997{fill:#4F2F58;}
	.st998{fill:#080608;}
	.st999{fill:#0E0E0E;}
	.st1000{fill:#6C6C6C;}
	.st1001{fill:#0C070D;}
	.st1002{fill:#484848;}
	.st1003{fill:#121212;}
	.st1004{fill:#E5949B;}
	.st1005{fill:#D5535E;}
	.st1006{fill:#921A24;}
	.st1007{fill:#272727;}
	.st1008{fill:#8E1E32;}
	.st1009{fill:#787878;}
	.st1010{fill:#B46A77;}
	.st1011{fill:#A0172A;}
	.st1012{fill:#8A1126;}
	.st1013{fill:#AF1C2D;}
	.st1014{fill:#848484;}
	.st1015{fill:#9E162A;}
	.st1016{fill:#EE9A98;}
	.st1017{fill:#F9F9F9;}
	.st1018{fill:#D23E49;}
	.st1019{fill:#F0A19F;}
	.st1020{fill:#896864;}
	.st1021{fill:#D13D47;}
	.st1022{fill:#060504;}
	.st1023{fill:#F6F6F6;}
	.st1024{fill:#DF6A6F;}
	.st1025{fill:#0A050B;}
	.st1026{fill:#EA9A9C;}
	.st1027{fill:#FDEAE7;}
	.st1028{fill:#89152B;}
	.st1029{fill:#DD6166;}
	.st1030{fill:#FDEAE8;}
	.st1031{fill:#951428;}
	.st1032{fill:#D9646E;}
	.st1033{fill:#313131;}
	.st1034{fill:#37213E;}
	.st1035{fill:#A4727E;}
	.st1036{fill:#F5ABBC;}
	.st1037{fill:#36262A;}
	.st1038{fill:#DD9AA9;}
	.st1039{fill:#2B1E21;}
	.st1040{fill:#9A6B76;}
	.st1041{fill:#050405;}
	.st1042{fill:#B47E8A;}
	.st1043{fill:#392240;}
	.st1044{fill:#5E3869;}
	.st1045{fill:#442F34;}
	.st1046{fill:#E8A2B2;}
	.st1047{fill:#3A282C;}
	.st1048{fill:#3F2C30;}
	.st1049{fill:#0F0B0C;}
	.st1050{fill:#402D31;}
	.st1051{fill:#BB838F;}
	.st1052{fill:#A16B9E;}
	.st1053{fill:#956098;}
	.st1054{fill:#8B5794;}
	.st1055{fill:#A06B9D;}
	.st1056{fill:#341F39;}
	.st1057{fill:#864B91;}
	.st1058{fill:#8A5694;}
	.st1059{fill:#9B669C;}
	.st1060{fill:#884C94;}
	.st1061{fill:#6A306C;}
	.st1062{fill:#8C4B97;}
	.st1063{fill:#B27BA6;}
	.st1064{fill:#140E0F;}
	.st1065{fill:#F1A8B9;}
	.st1066{fill:#9D49A1;}
	.st1067{fill:#824D90;}
	.st1068{fill:#5A3665;}
	.st1069{fill:#8F5B96;}
	.st1070{fill:#814D90;}
	.st1071{fill:#6D4179;}
	.st1072{fill:#AD77A3;}
	.st1073{fill:#723C7A;}
	.st1074{fill:#854D92;}
	.st1075{fill:#B37DA6;}
	.st1076{fill:#9E49A1;}
	.st1077{fill:#8C4B96;}
	.st1078{fill:#935E98;}
	.st1079{fill:#9E699C;}
	.st1080{fill:#331734;}
	.st1081{fill:#9C49A0;}
	.st1082{fill:#9B49A0;}
	.st1083{fill:#853D87;}
	.st1084{fill:#915C97;}
	.st1085{fill:#9A499F;}
	.st1086{fill:#99649A;}
	.st1087{fill:#98649A;}
	.st1088{fill:#844D91;}
	.st1089{fill:#070307;}
	.st1090{fill:#864C93;}
	.st1091{fill:#B079A4;}
	.st1092{fill:#855292;}
	.st1093{fill:#AF79A4;}
	.st1094{fill:#895593;}
	.st1095{fill:#824F90;}
	.st1096{fill:#AF78A4;}
	.st1097{fill:#AA74A2;}
	.st1098{fill:#864D93;}
	.st1099{fill:#9E48A1;}
	.st1100{fill:#98469B;}
	.st1101{fill:#824D91;}
	.st1102{fill:#8E4B98;}
	.st1103{fill:#956099;}
	.st1104{fill:#834D91;}
	.st1105{fill:#B37CA6;}
	.st1106{fill:#9C479F;}
	.st1107{fill:#9B499F;}
	.st1108{fill:#B47DA6;}
	.st1109{fill:#301631;}
	.st1110{fill:#251126;}
	.st1111{fill:#AD76A3;}
	.st1112{fill:#AB75A2;}
	.st1113{fill:#040304;}
	.st1114{fill:#9D49A0;}
	.st1115{fill:#9C679C;}
	.st1116{fill:#905C97;}
	.st1117{fill:#8D4B97;}
	.st1118{fill:#8B4B95;}
	.st1119{fill:#885492;}
	.st1120{fill:#D18EAE;}
	.st1121{fill:#885392;}
	.st1122{fill:#975F98;}
	.st1123{fill:#965F98;}
	.st1124{fill:#734681;}
	.st1125{fill:#D3D3D3;}
	.st1126{fill:#654D4A;}
	.st1127{fill:#545454;}
	.st1128{fill:#674E4B;}
	.st1129{fill:#2D1B33;}
	.st1130{fill:#F0F0F0;}
	.st1131{fill:#5E3969;}
	.st1132{fill:#3B3B3B;}
	.st1133{fill:#878787;}
	.st1134{fill:#3E2546;}
	.st1135{fill:#C887AB;}
	.st1136{fill:#FBFBFB;}
	.st1137{fill:#835091;}
	.st1138{fill:#E9A1B8;}
	.st1139{fill:#856561;}
	.st1140{fill:#9E9E9E;}
	.st1141{fill:#DCDCDC;}
	.st1142{fill:#818181;}
	.st1143{fill:#6B6B6B;}
	.st1144{fill:#D4D4D4;}
	.st1145{fill:#A1A1A1;}
	.st1146{fill:#969696;}
	.st1147{fill:#2B2B2B;}
	.st1148{fill:#43284B;}
	.st1149{fill:#3E2646;}
	.st1150{fill:#422749;}
	.st1151{fill:#472A4F;}
	.st1152{fill:#5C3867;}
	.st1153{fill:#39223F;}
	.st1154{fill:#4D4D4D;}
	.st1155{fill:#563360;}
	.st1156{fill:#633C6E;}
	.st1157{fill:#0B070C;}
	.st1158{fill:#38223E;}
	.st1159{fill:#402748;}
	.st1160{fill:#44294D;}
	.st1161{fill:#3B2442;}
	.st1162{fill:#72447F;}
	.st1163{fill:#535353;}
	.st1164{fill:#4D2F57;}
	.st1165{fill:#3F2647;}
	.st1166{fill:#784986;}
	.st1167{fill:#4E2F57;}
	.st1168{fill:#060506;}
	.st1169{fill:#663E72;}
	.st1170{fill:#301D35;}
	.st1171{fill:#1D1120;}
	.st1172{fill:#262626;}
	.st1173{fill:#181818;}
	.st1174{fill:#4A2C52;}
	.st1175{fill:#F5F5F5;}
	.st1176{fill:#949494;}
	.st1177{fill:#C9C9C9;}
	.st1178{fill:#603A6C;}
	.st1179{fill:#E1E1E1;}
	.st1180{fill:#1F1F1F;}
	.st1181{fill:#643D70;}
	.st1182{fill:#FEFEFE;}
	.st1183{fill:#3C2444;}
	.st1184{fill:#29182D;}
	.st1185{fill:#50305A;}
	.st1186{fill:#5C5C5C;}
	.st1187{fill:#585858;}
	.st1188{fill:#3A2240;}
	.st1189{fill:#B6B6B6;}
	.st1190{fill:#0C0B0D;}
	.st1191{fill:#3C2442;}
	.st1192{fill:#111111;}
	.st1193{fill:#FCFCFC;}
	.st1194{fill:#876662;}
	.st1195{fill:#AFAFAF;}
	.st1196{fill:#E2E2E2;}
	.st1197{fill:#080708;}
	.st1198{fill:#120209;}
	.st1199{fill:#34061A;}
	.st1200{fill:#1B030E;}
	.st1201{fill:#2C2C2C;}
	.st1202{fill:#110C1E;}
	.st1203{fill:#010102;}
	.st1204{fill:#0A0711;}
	.st1205{fill:#120D20;}
	.st1206{fill:#0B0A0B;}
	.st1207{fill:#140E22;}
	.st1208{fill:#0C0916;}
	.st1209{fill:#0A0712;}
	.st1210{fill:#060606;}
	.st1211{fill:#161026;}
	.st1212{fill:#39061D;}
	.st1213{fill:#38061C;}
	.st1214{fill:#36061B;}
	.st1215{fill:#130E21;}
	.st1216{fill:#161027;}
	.st1217{fill:#18112A;}
	.st1218{fill:#181129;}
	.st1219{fill:#07050D;}
	.st1220{fill:#0D0917;}
	.st1221{fill:#020103;}
	.st1222{fill:#020203;}
	.st1223{fill:#160F26;}
	.st1224{fill:#100C1C;}
	.st1225{fill:#0A0810;}
	.st1226{fill:#050309;}
	.st1227{fill:#19122B;}
	.st1228{fill:#150F24;}
	.st1229{fill:#100B1C;}
	.st1230{fill:#090710;}
	.st1231{fill:#160F25;}
	.st1232{fill:#140E23;}
	.st1233{fill:#292140;}
	.st1234{fill:#0A0713;}
	.st1235{fill:#3B3A35;}
	.st1236{fill:#A5A295;}
	.st1237{fill:#040404;}
	.st1238{fill:#150F25;}
	.st1239{fill:#0E0A19;}
	.st1240{fill:#06040B;}
	.st1241{fill:#211A32;}
	.st1242{fill:#2B2B27;}
	.st1243{fill:#A9A799;}
	.st1244{fill:#171129;}
	.st1245{fill:#130D21;}
	.st1246{fill:#030206;}
	.st1247{fill:#140F1F;}
	.st1248{fill:#020204;}
	.st1249{fill:#362A53;}
	.st1250{fill:#0F0B1B;}
	.st1251{fill:#605F57;}
	.st1252{fill:#D9D6C4;}
	.st1253{fill:#A9A798;}
	.st1254{fill:#171128;}
	.st1255{fill:#000001;}
	.st1256{fill:#3A2E59;}
	.st1257{fill:#2E2446;}
	.st1258{fill:#DBD8C6;}
	.st1259{fill:#C8C5B4;}
	.st1260{fill:#100B1B;}
	.st1261{fill:#030205;}
	.st1262{fill:#33284E;}
	.st1263{fill:#2D2446;}
	.st1264{fill:#60213F;}
	.st1265{fill:#D95694;}
	.st1266{fill:#DEB0B8;}
	.st1267{fill:#BFBDAC;}
	.st1268{fill:#050504;}
	.st1269{fill:#392D58;}
	.st1270{fill:#372C55;}
	.st1271{fill:#352A51;}
	.st1272{fill:#241C37;}
	.st1273{fill:#DA679B;}
	.st1274{fill:#DB80A5;}
	.st1275{fill:#D95292;}
	.st1276{fill:#DB7DA4;}
	.st1277{fill:#06050A;}
	.st1278{fill:#D54A8D;}
	.st1279{fill:#A23266;}
	.st1280{fill:#7B2148;}
	.st1281{fill:#A7356A;}
	.st1282{fill:#E0D8C8;}
	.st1283{fill:#1B1529;}
	.st1284{fill:#807E75;}
	.st1285{fill:#DD99AF;}
	.st1286{fill:#31282B;}
	.st1287{fill:#060206;}
	.st1288{fill:#040307;}
	.st1289{fill:#BCB9AA;}
	.st1290{fill:#8F8D82;}
	.st1291{fill:#DB83A6;}
	.st1292{fill:#DDA4B3;}
	.st1293{fill:#382C56;}
	.st1294{fill:#DEDBC8;}
	.st1295{fill:#A19E91;}
	.st1296{fill:#362B53;}
	.st1297{fill:#382C55;}
	.st1298{fill:#221B35;}
	.st1299{fill:#0E0B15;}
	.st1300{fill:#0E0918;}
	.st1301{fill:#4E4D48;}
	.st1302{fill:#727168;}
	.st1303{fill:#2A2927;}
	.st1304{fill:#4D4C47;}
	.st1305{fill:#353430;}
	.st1306{fill:#2A2140;}
	.st1307{fill:#130D20;}
	.st1308{fill:#282828;}
	.st1309{fill:#362B54;}
	.st1310{fill:#0C0915;}
	.st1311{fill:#D0CDBB;}
	.st1312{fill:#0B0B0C;}
	.st1313{fill:#2B2242;}
	.st1314{fill:#08060C;}
	.st1315{fill:#020104;}
	.st1316{fill:#07050C;}
	.st1317{fill:#DDDAC7;}
	.st1318{fill:#3F3E39;}
	.st1319{fill:#352A52;}
	.st1320{fill:#130F1D;}
	.st1321{fill:#050308;}
	.st1322{fill:#130E22;}
	.st1323{fill:#171028;}
	.st1324{fill:#8C8A7E;}
	.st1325{fill:#181224;}
	.st1326{fill:#4B4B4B;}
	.st1327{fill:#ABA89A;}
	.st1328{fill:#191427;}
	.st1329{fill:#E0DDCA;}
	.st1330{fill:#161614;}
	.st1331{fill:#33284F;}
	.st1332{fill:#161123;}
	.st1333{fill:#31302C;}
	.st1334{fill:#68675E;}
	.st1335{fill:#CAC7B6;}
	.st1336{fill:#D8D5C3;}
	.st1337{fill:#8E8C80;}
	.st1338{fill:#2D2D29;}
	.st1339{fill:#110C1D;}
	.st1340{fill:#06040C;}
	.st1341{fill:#110D1A;}
	.st1342{fill:#626158;}
	.st1343{fill:#A19F91;}
	.st1344{fill:#0F0A1A;}
	.st1345{fill:#807E73;}
	.st1346{fill:#171224;}
	.st1347{fill:#0F0C17;}
	.st1348{fill:#050307;}
	.st1349{fill:#32284D;}
	.st1350{fill:#0A070F;}
	.st1351{fill:#342950;}
	.st1352{fill:#0B0811;}
	.st1353{fill:#08060F;}
	.st1354{fill:#281F3D;}
	.st1355{fill:#1A1428;}
	.st1356{fill:#06040A;}
	.st1357{fill:#392D57;}
	.st1358{fill:#2C2344;}
	.st1359{fill:#1B152A;}
	.st1360{fill:#2C2243;}
	.st1361{fill:#261E3B;}
	.st1362{fill:#030204;}
	.st1363{fill:#110C1F;}
	.st1364{fill:#171027;}
	.st1365{fill:#0E0B16;}
	.st1366{fill:#1D172C;}
	.st1367{fill:#010002;}
	.st1368{fill:#201932;}
	.st1369{fill:#120D1F;}
	.st1370{fill:#31274C;}
	.st1371{fill:#0E0A18;}
	.st1372{fill:#474747;}
	.st1373{fill:#1A1528;}
	.st1374{fill:#211A33;}
	.st1375{fill:#090610;}
</style>
<g id="_x37_">
	<g>
		<g>
			<g>
				<path d="M111.3805466,67.8880157c0.008728,0.4361191,0.2180557,0.9158325,0.5495071,1.1251602
					c0,0,0.0087357,0,0.0087357,0.008728c9.4113617,4.422226,18.831459,7.5360947,28.0248184,9.6381531
					c-5.0328064,4.2477646-10.1528015,8.7746506-15.3338547,13.5981216
					c-2.7824249,2.5904999-5.4775925,5.1635971-8.0856094,7.7279587c-0.6541748,0.6279831-0.3052597,1.7182693,0.5495071,1.8927307
					c0.0436554,0.0174561,0.0872574,0.0174561,0.1308594,0.0261917c1.6049271,0.148262,3.2360001,0.2791214,4.9106674,0.3663177
					c9.2020416,0.5146408,17.5929108-0.0174561,24.9720001-1.0466843c0.1134033,2.4160995,0.3925171,5.0938568,0.9333038,7.9722137
					c1.1862183,6.358551,3.2796021,11.5657959,5.2507935,15.4821091c0.9943542,0.6018448,2.3724976,1.2734833,4.1082306,1.7008667
					c3.3842621,0.8286285,6.253891,0.2529297,7.7366943-0.1657257c-0.3139954-1.0815582-0.8024445-3.2970657-0.2442017-6.018425
					c0.5931091-2.895813,2.0584564-4.82341,2.7998352-5.6869659c0.5756989,1.3868713,1.1513519,2.7824249,1.735733,4.1692963
					c1.2298737,0.4971771,2.8434753,1.0204926,4.7798615,1.3170776c2.6079712,0.4011917,4.8408813,0.2355194,6.4283447,0
					c-0.1569977-0.9420242-0.4535675-3.5674515,1.1076965-5.8963013c1.5874786-2.3637619,4.1780243-3.0615387,5.974823-3.5412521
					c1.8927307-0.5059128,3.5238037-0.5233231,4.5792236-0.4535828c0.2529297,0.8111725,0.5931091,1.735733,1.0640869,2.7213593
					c0.4710388,0.9768982,0.9768982,1.8142624,1.447937,2.5120316c0.7065125,0.2529831,1.5525513,0.4797211,2.5120392,0.6193085
					c2.4945679,0.3489151,4.5792084-0.087204,5.896286-0.4971848v-0.0697861
					c0.0086823-0.7937088,0.0174103-1.5961533,0.0348816-2.3986435c0.0174561-0.6105194,0.0261383-1.2123566,0.0435944-1.8142014
					c1.1862183,2.2067184,2.4858398,5.2071991,3.3406677,8.8967209c0.5320435,2.3463058,0.7762909,4.483284,0.8634949,6.3062744
					c1.3694153,0.244194,3.3493958,0.4448471,5.6869659,0.1657257c2.3724518-0.2791214,4.2739105-0.9594879,5.5648499-1.5264053
					c0.7326508-1.683403,1.4304199-3.4976578,2.0584564-5.4601822c2.4335022-7.6320267,2.8696289-14.6448059,2.6341095-20.1311264
					c2.520752,0.1482697,5.2247009,0.1831894,8.1030579,0.0610657c6.175415-0.2616577,11.6530151-1.2124176,16.3020172-2.3811798
					c0.4099274-0.10466,0.6977692-0.4099731,0.8024445-0.7675629c0.10466-0.3489151,0.0435944-0.7414322-0.2267914-1.0554199
					c-0.7937164-0.9245682-1.6048737-1.8491287-2.4160461-2.7736969
					c-6.4632721-7.3354416-13.0137329-14.0516357-19.5380096-20.2183228
					c4.5006866-1.8491287,9.8126068-4.474556,15.3949127-8.2164154c3.4191284-2.293972,6.3934174-4.6402779,8.9403687-6.8819199
					c0.4622498-0.4012451,0.4884491-1.0292244,0.183136-1.4653435v-0.008728
					c-0.1482697-0.2093277-0.3663177-0.3750534-0.6454468-0.4535789c-1.1077423-0.2878494-2.2241821-0.5843811-3.3493958-0.8983727
					c-8.3733978-2.3114357-16.2583618-4.945591-23.6287231-7.7628822c1.2211456-2.983017,2.4073639-6.0881615,3.5412598-9.3154297
					c3.1574707-8.9927101,5.4252472-17.5667629,7.0476379-25.5215149c0.0523376-0.2703896,0.0087433-0.5320482-0.1133881-0.7413759
					V11.018487c0,0,0-0.0087309-0.008728-0.0087309c-0.2442474-0.4361153-0.7763062-0.6977749-1.3170776-0.5320482
					c-4.0384369,1.2472849-7.326767,2.4422388-9.6904907,3.340663c0,0-1.3083496,0.4971256-4.5181427,1.883997
					c-3.2011414,1.3781414-8.2949371,3.6371918-15.8746338,7.1610432
					c-0.1395874-4.3698902-0.3401947-8.8531752-0.6193085-13.4323921c-0.1744537-2.8434844-0.3750458-5.6433144-0.5931091-8.3995972
					c-0.0261383-0.3575916-0.2093353-0.645443-0.470993-0.8199c-0.3489075-0.2529281-0.8460846-0.296529-1.256012-0.0348701
					c-3.6459198,2.3637142-7.4488983,5.0066028-11.3390198,7.9547505
					c-5.8177643,4.4134912-10.9378204,8.8357134-15.3949127,13.0485544
					c-0.6279755-1.735733-1.3257446-3.5063362-2.1020508-5.3205929c-2.0235901-4.7449436-4.247757-9.01017-6.5155945-12.8218193
					c-0.1657257-0.2877982-0.4186554-0.4535244-0.6977844-0.5145869c-0.4971771-0.130856-1.0728149,0.1046634-1.3083344,0.6629047
					c-1.535141,3.7156627-3.0528259,7.7802925-4.4570923,12.176322c-1.7008667,5.3380547-2.9830322,10.3621197-3.9512482,14.9587975
					c-3.0528107-0.7588367-6.2190094-1.4653416-9.5247498-2.102108c-9.8387451-1.875267-19.0495148-2.7213593-27.3967819-2.9481487
					c-0.1221237,0-0.2529831-0.0086765-0.3750534-0.0086765c-0.4971771-0.0087318-0.8722305,0.2877979-1.0466919,0.6803131
					c-0.061058,0.1482639-0.0959854,0.3053131-0.0959854,0.4623089c0,0.2180576,0.0610657,0.4361153,0.2006531,0.6367111
					c6.7859344,9.5683594,13.5631943,19.1367683,20.3491898,28.7051277
					c-3.2098694,1.2036858-6.5592041,2.5643654-10.0132675,4.1256943c-5.1025314,2.3026505-9.7602768,4.7274818-13.973114,7.1435814
					c-0.0174637,0.008728-0.1221237,0.05233-0.2093811,0.148262c-0.034874,0.0261383-0.0697403,0.0610657-0.095932,0.095932
					c-0.008728,0.0174637-0.0174637,0.0261917-0.0261383,0.043602
					C111.4154663,67.4606323,111.3718109,67.66996,111.3805466,67.8880157z"/>
				<path class="st5" d="M218.8748932,61.970005c1.9973907,4.5792198,4.9368591,11.339016,2.5905609,18.5785255
					c-0.7065125,2.1805801-1.7531891,3.9947815-2.97435,5.5473862c4.797287,3.1836624,11.8274689,6.9342499,20.9074402,8.9403763
					c3.3318787,0.7326965,6.4457397,1.1251602,9.254364,1.299614c0.10466-0.3488617,0.0435944-0.7413788-0.2267914-1.0554199
					c-0.7937164-0.9245605-1.6049347-1.8491287-2.4161072-2.7736893
					c-6.4632111-7.3354492-13.0136719-14.0516434-19.5379486-20.2183304
					c-0.7699738-1.4015656-1.6088562-3.2028351-2.28302-5.3754807c-0.664444-2.1412888-0.9924011-4.0744781-1.1535797-5.6495438
					c8.0681458-1.0553627,16.4328156-2.6079636,25.0155945-4.7798119c0.9856262-0.2441978,1.9625244-0.4971771,2.9394226-0.7588387
					v-0.008728c-0.1482697-0.2093277-0.3663177-0.3750534-0.6454468-0.4535255
					c-1.1077423-0.2878532-2.2241821-0.5844345-3.3493958-0.8984261
					c-8.3733978-2.3114357-16.2584076-4.9455376-23.6287231-7.7628822
					c-2.2067719,3.6721153-4.4134979,7.3442307-6.6202698,11.0076141c0,0.0086784,0,0.0086784,0,0.0174065
					C217.6799469,59.2485924,218.3428497,60.7575874,218.8748932,61.970005z"/>
				<path class="st5" d="M189.4545288,39.2221832c0.087204,0.9332924,0.1308136,2.0323143,0.0348663,3.2534065
					c-0.0523224,0.7850304-0.1569824,1.500267-0.2878418,2.14571c0.6716309-0.4623108,1.3955994-1.0205498,2.1457062-1.692131
					c0.5931091-0.5320511,1.1164856-1.0641518,1.5612793-1.5613289c-0.095932,0.5233688-0.2616577,1.16008-0.5320587,1.8491783
					c-0.2441864,0.6192513-0.5233154,1.1426239-0.7849731,1.5700073c0.6367188-0.6105728,1.6484833-1.4304733,3.0528107-2.0671844
					c0.3924713-0.1744576,0.7675171-0.314045,1.1338959-0.4274406c3.55867-3.9075813,7.5709686-7.9460182,12.0891266-12.0105953
					c9.053772-8.1379375,17.9854126-14.4267492,25.9750824-19.258894v-0.0087309c0,0,0-0.0087309-0.008728-0.0087309
					c-0.2442474-0.4361162-0.7763062-0.6977749-1.3170776-0.5320492c-4.0384369,1.2472858-7.326767,2.4422388-9.6904907,3.340663
					c0,0-1.3083496,0.497179-4.5182037,1.8839979c-3.2010803,1.3781414-8.2948761,3.6372452-15.8745728,7.1610432
					c-3.2796021,2.843483-7.3093109,6.8993301-11.1296844,12.3682404c-2.1980438,3.1400146-3.9250488,6.1841469-5.2857361,8.966568
					c0.5495148-0.6629028,1.1077118-1.3868713,1.6572113-2.1719017
					C188.3642426,41.0538483,188.9486237,40.1031456,189.4545288,39.2221832z"/>
				<path class="st5" d="M115.3841095,25.9423618c8.7746506,3.1051426,18.3779297,7.1087093,28.4522095,12.298502
					c5.4775848,2.8172913,10.5539703,5.7131081,15.246582,8.6089249c0.8635101,0.2529259,1.9189301,0.4884453,3.1313477,0.601841
					c0.7326355,0.0697403,1.4130096,0.0784721,2.0148468,0.0610085c-0.8286285-0.4709854-1.7793884-0.9419708-2.8522186-1.3693581
					c-0.6367035-0.2529793-1.256012-0.4710388-1.8403931-0.654171c1.4566193-0.1395874,3.3144684-0.1657295,5.4165344,0.1744041
					c1.1513519,0.1831856,2.1718903,0.4448433,3.0702667,0.7326965c-0.3052673-0.6716347-0.6454468-1.3781433-1.0292206-2.102108
					c-0.7239685-1.3519478-1.4828186-2.5469017-2.2241821-3.5848618c1.6485291,0.4448471,3.9860992,1.3345413,6.262619,3.1749382
					c0.7937012,0.645443,1.465332,1.3083458,2.0148468,1.9363289c0.0261383-0.9768944-0.008728-2.0671844-0.1221313-3.2534065
					c-0.1221161-1.2560158-0.3139801-2.3899078-0.5320435-3.3842659c1.1338959,1.0379601,2.4073639,2.3986397,3.5848541,4.1605644
					c0.4623108,0.697773,0.8548279,1.3781395,1.1949615,2.0235825c0.0872498-1.1164818,0.2965851-2.5207634,0.7762909-4.0820389
					c0.4186554-1.3345375,0.9245758-2.4509697,1.4042816-3.3406601c0.1221313,1.3519478,0.3576508,2.8783531,0.7850342,4.535614
					c0.2442017,0.9681664,0.5320435,1.8665886,0.8199005,2.6777573c0.0174561-5.5648422,0.8024445-15.691494,6.2277527-26.7426567
					c4.2565002-8.6787186,9.7340851-14.5749607,13.5108643-18.0464802c0.0174103-0.0523318,0.0348663-0.1046636,0.0523224-0.1569953
					c-0.3489075-0.2529281-0.8460846-0.296529-1.256012-0.0348701c-3.6459198,2.3637142-7.4488983,5.0066028-11.3390198,7.9547505
					c-5.8177643,4.4134912-10.9378204,8.8357134-15.3949127,13.0485544
					c-1.1164246,1.2996712-2.2765045,2.7650127-3.4365845,4.387352c-1.3083496,1.831665-2.4160461,3.6023216-3.358078,5.2508526
					c0-3.2185383-0.0872498-6.6028023-0.3139954-10.1353302c-0.4099731-6.5940704-1.2124023-12.6648235-2.2067719-18.159874
					c-1.3344879,5.215929-2.520752,11.4087543-3.1051331,18.4040718c-0.4186554,4.9978714-0.470993,9.603281-0.3139954,13.7201881
					c-2.0933838-1.4391479-4.1954346-2.8870831-6.2975464-4.3262348c-3.0528107-0.7588367-6.2190094-1.4653416-9.5247498-2.102108
					c-9.8387451-1.875267-19.0495148-2.7213593-27.3967819-2.9481487c-0.1221237,0-0.2529831-0.0086765-0.3750534-0.0086765
					C115.9336243,25.2533169,115.5585709,25.5498466,115.3841095,25.9423618z"/>
				<path class="st5" d="M111.3112564,67.7790451c0.0785217,0.1221237,0.1657257,0.244194,0.2529831,0.3663254
					c6.5591431-0.2442017,13.8859177-0.9943619,21.762146-2.5905075c2.913269-0.5931091,5.704422-1.256012,8.3559875-1.9712524
					c-1.9537811-2.6166954-3.8988495-5.224659-5.8439636-7.8413544c-3.2098083,1.2036819-6.5591431,2.5643616-10.0131989,4.1256409
					c-5.1025391,2.3027039-9.7602768,4.727478-13.973175,7.1435776
					C111.5380478,67.185936,111.3635864,67.4737854,111.3112564,67.7790451z"/>
				<path class="st5" d="M117.0941544,101.8746109c3.122612-0.7937622,6.3324127-1.6659927,9.6207428-2.6341553
					c5.4688644-1.6049347,10.6237869-3.3144684,15.447197-5.0676651c-0.5843811-1.1688156-1.1513519-2.5294952-1.6048737-4.0820389
					c-1.3606873-4.6490097-1.0554199-8.7833786-0.5931091-11.4349976
					c-5.0328064,4.247818-10.1528015,8.7746429-15.3338547,13.598114c-2.7824249,2.5904999-5.4776459,5.1635971-8.0856094,7.7279587
					C115.8904724,100.6098633,116.2393875,101.7001572,117.0941544,101.8746109z"/>
			</g>
			<path class="st6" d="M142.7203369,76.1699142c0.1221161,3.9163055,1.0466919,7.623291,2.8783569,10.658699
				c0.4884491,0.8198471,1.0466766,1.58741,1.6747131,2.3026505c1.3432159,1.5264053,2.5730438,2.2852402,5.0327454,3.8029709
				c2.5294952,1.5612793,12.24617,7.2395172,27.2136536,7.649437c5.8439636,0.1569977,20.1921844,0.5495071,32.5516968-8.6612549
				c2.1020508-1.5612793,4.4745483-3.3580704,6.4196014-5.8264999c1.2211609-1.5526047,2.2678375-3.366806,2.97435-5.5473862
				c2.3462982-7.2395096-0.5931702-13.9993057-2.5905609-18.5785255c-0.5320435-1.2124176-1.1949463-2.7214127-2.1282501-4.3437538
				c0-0.008728,0-0.008728,0-0.0174065c-1.5787354-2.7388229-3.8814392-5.8178253-7.518631-8.3734589
				c-3.1661987-2.2329102-6.2451477-3.2970085-8.2774658-3.8291092c0.1569977-0.3750534,0.4099121-0.8635025,0.8199005-1.3606796
				c0.5843811-0.7152367,1.2210846-1.1338921,1.6485291-1.3606796c-0.9682159,0.05233-2.1108398,0.2006493-3.3755341,0.5321007
				c-2.0235901,0.5320511-3.6110535,1.3344879-4.7449493,2.0235329c0.1482697-0.4709854,0.366333-1.0640984,0.7413788-1.6921349
				c0.4448547-0.741375,0.9332886-1.2821541,1.3258057-1.6484756c-0.4623108,0.0784721-1.0030823,0.191864-1.5874634,0.3924599
				c-0.3663788,0.1133957-0.7414246,0.2529831-1.1338959,0.4274406c-1.4043274,0.6367111-2.4160919,1.4566116-3.0528107,2.0671844
				c0.2616577-0.4273834,0.5407867-0.9507561,0.7849731-1.5700073c0.270401-0.6890984,0.4361267-1.3258095,0.5320587-1.8491783
				c-0.4447937,0.4971771-0.9681702,1.0292778-1.5612793,1.5613289c-0.7501068,0.6715813-1.4740753,1.2298203-2.1457062,1.692131
				c0.1308594-0.645443,0.2355194-1.3606796,0.2878418-2.14571c0.0959473-1.2210922,0.0523376-2.3201141-0.0348663-3.2534065
				c-0.5059052,0.8809624-1.0902863,1.831665-1.7793884,2.7998276c-0.5494995,0.7850304-1.1076965,1.5089989-1.6572113,2.1719017
				c-0.3663177,0.4447937-0.7326965,0.8547707-1.0815582,1.2385559c0.1918793-0.8199005,0.3488617-1.7967949,0.4011993-2.9045486
				c0.0872498-1.596199-0.0697327-2.9742851-0.2791138-4.0471687c-0.462265,1.0990219-1.0815735,2.3550377-1.910202,3.6808472
				c-0.7326355,1.1687622-1.4827423,2.1631203-2.1892548,2.9917488c-0.2878418-0.8111687-0.5756989-1.7095909-0.8199005-2.6777573
				c-0.4274292-1.6572075-0.6629028-3.1836128-0.7850342-4.5356178c-0.4797058,0.8896942-0.9856262,2.006176-1.4042664,3.3406639
				c-0.4797211,1.5612755-0.6891022,2.9656105-0.7763062,4.0820389c-0.3401794-0.645443-0.7326965-1.3258095-1.1949463-2.0235825
				c-1.1775055-1.7618752-2.4509735-3.1225548-3.5848694-4.160511c0.2180634,0.9943047,0.4099274,2.1282463,0.5320435,3.3842621
				c0.1134033,1.1862259,0.1482697,2.2765121,0.1221313,3.2534103c-0.5495148-0.6280365-1.2211456-1.2908859-2.0148468-1.9363823
				c-2.2765656-1.8403969-4.614151-2.7300911-6.262619-3.1748848c0.7413788,1.0379601,1.5002136,2.2329102,2.2241821,3.5848618
				c0.3837738,0.7239647,0.7239075,1.4304733,1.0292206,2.1020546c-0.8984222-0.2877998-1.9189148-0.549511-3.0702667-0.7326469
				c-2.102066-0.3401833-3.9599152-0.3140411-5.4165344-0.1744576c0.5843811,0.1831894,1.2036285,0.4012489,1.8403931,0.6541748
				c1.0728302,0.4273872,2.0235901,0.8983727,2.8521729,1.3694115c-0.6017914,0.0174065-1.2821655,0.0087318-2.0148621-0.0610619
				c-1.2123566-0.1133957-2.2677765-0.3489151-3.1312714-0.6018448c-2.0148621,1.0554199-5.3031921,3.0615425-8.3298035,6.5330086
				C145.4504242,59.4492416,142.4674072,68.2587585,142.7203369,76.1699142z"/>
			<g>
				<path class="st7" d="M204.7796478,134.6617737c0.5756531,0.6280365,1.822937,0.7501068,4.3262482,0.9856262
					c0.4448395,0.0436096,0.8722229,0.0697937,1.26474,0.087204c0.6629028,0.0349274,1.2385559,0.0436554,1.7008667,0.0349274
					c0.9506989,1.2124176,2.4160919,1.831665,3.8377838,1.6048737c1.360733-0.2093201,2.1805725-1.1338959,2.4073639-1.4217377
					c0.2180634,0.1395874,1.0205536,0.6105652,2.1195221,0.5494995c0.1483154,0,0.3140411-0.017395,0.4797668-0.0523224
					c0.9856262-0.191864,1.6136169-0.7501068,1.8491364-0.9856262c0.1744537,0.0349274,2.1979828,0.4361115,2.7824097-0.4971771
					c0.4011993-0.6367188-0.0523224-1.5874176-0.5582428-2.4683838c-0.8286285-1.4653473-2.5643616-4.0558929-6.2364655-7.4837646
					c-0.7239227-0.4884415-2.3811798-1.4392014-4.6402893-1.4828033c-3.7418518-0.0784683-6.1840973,2.3986359-6.6114807,2.843483
					C204.8493958,130.0389557,203.6544342,133.4144897,204.7796478,134.6617737z"/>
				<path class="st8" d="M217.8805389,132.2195435c0.008728,0.008728,0.2267914,1.9276428,0.2267914,1.9363251
					c0,0.008728,0.2093201,1.7881165,0.2093201,1.7967987c0.2180634,0.1395874,1.0205536,0.6105652,2.1195221,0.5494995
					c-0.3227234-0.3663177-0.6454468-0.7762451-0.9681702-1.2472839
					C218.7178955,134.1645966,218.2207184,133.1092377,217.8805389,132.2195435z"/>
				<path class="st8" d="M210.370636,135.7346039c0.6629028,0.0349274,1.2385559,0.0436554,1.7008667,0.0349274
					c-0.2006073-0.5582428-0.3925171-1.2036896-0.5495148-1.9101868c-0.2267914-1.0118256-0.3227234-1.9276581-0.3575897-2.703949
					c-0.3401794,0.9332886-0.6541748,2.0933685-0.7588959,3.4540558
					C210.379364,135.0106964,210.370636,135.3770142,210.370636,135.7346039z"/>
			</g>
			<path class="st9" d="M180.6362762,119.9908295c0.2013702,0.6213303,0.5293121,1.5483398,1.0263367,2.6351166
				c0.9244232,2.021347,1.5025177,2.5590973,1.3186493,3.131813c-0.2062531,0.6424103-1.3521118,1.2692719-5.6042786,1.1126022
				c-0.3983917,0.2488785-1.7711792,1.0374222-3.5850677,0.7829514c-1.2434845-0.1744614-2.109314-0.7569733-2.5136871-1.0713959
				c-0.1560516,0.0529175-3.0296783,0.9872284-4.4504242-0.4945145c-0.1624908-0.1694489-0.5101166-0.5319977-0.5769043-1.0713882
				c-0.1295624-1.0462112,0.9266052-1.7136383,1.8131409-2.9669418c0.4797668-0.6782379,1.0679779-1.7515945,1.3640289-3.3753204
				c0.9120026-0.412529,5.0496674-2.1684952,8.9791107-0.2510147
				C179.3226318,118.8694534,180.0570374,119.4327469,180.6362762,119.9908295z"/>
			<path class="st9" d="M203.2190094,115.3891449c0.7873993,1.7339783,1.4707489,3.0430756,1.9629517,3.9401627
				c0.2786102,0.5078278,0.4631653,0.8237915,0.3708801,1.2053375c-0.2604675,1.0767136-2.4735413,1.6328812-4.2032166,1.3907547
				c-0.9037933-0.1264877-1.5891724-0.458847-1.977951-0.6798859c-0.268631,0.2143326-1.0769348,0.8015366-2.2561493,0.8344345
				c-1.5421143,0.0430145-2.5559845-0.8944321-2.7506104-1.0817184c-0.1789551,0.0317841-1.0070038,0.1591263-1.7925415-0.3708496
				c-0.1458435-0.098381-0.9868469-0.6657791-0.9889832-1.4525604c-0.0019684-0.7296143,0.7191315-1.0408325,2.0861359-2.5034103
				c0.501709-0.5367889,0.8853912-1.0092621,1.1405182-1.3382645c1.0441895-0.5118713,4.1107941-1.8402405,7.1472626-0.6146774
				C202.4224548,114.9062347,202.8419342,115.1357422,203.2190094,115.3891449z"/>
			<g>
				<path class="st7" d="M167.760376,133.9662933c-0.6221008,0.6472473-2.3478546,0.7917328-4.3262329,0.9856262
					c-0.4448547,0.0435944-0.8722382,0.0697937-1.2647552,0.087204c-0.6629028,0.0349121-1.2385559,0.0436554-1.7008667,0.0349121
					c-0.9506989,1.2124176-2.4160919,1.8316803-3.8377838,1.6048889c-1.360733-0.2093353-2.1805725-1.1338959-2.4073639-1.4217529
					c-0.2180634,0.1395874-1.0205536,0.6105804-2.1195221,0.5495148c-0.1483154,0-0.3140411-0.0174103-0.4797668-0.0523224
					c-0.9856262-0.1918793-1.6136017-0.7501068-1.8491211-0.9856415c-0.174469,0.0349274-2.197998,0.4361267-2.7824249-0.4971771
					c-0.4051666-0.6470337,0.164978-1.7791138,0.5582428-2.4683685c0.8760376-1.5354614,2.5388794-4.0161362,5.7409973-7.1284637
					c0.982193-0.4422913,4.4294891-1.847641,8.3026276-0.5240631c1.5980377,0.5461044,2.7731323,1.3874588,3.5422974,2.0591965
					C167.6702728,129.6913757,168.7767181,132.908844,167.760376,133.9662933z"/>
				<path class="st8" d="M154.6594849,131.5240479c-0.008728,0.0087433-0.2267914,1.9276581-0.2267914,1.9363403
					c0,0.008728-0.2093201,1.7881165-0.2093201,1.7967834c-0.2180634,0.1395874-1.0205536,0.6105804-2.1195221,0.5495148
					c0.3227234-0.3663177,0.6454468-0.7762451,0.9681702-1.2472839
					C153.8221283,133.4691162,154.3193054,132.4137421,154.6594849,131.5240479z"/>
				<path class="st8" d="M162.1693878,135.0391235c-0.6629028,0.0349121-1.2385559,0.0436554-1.7008667,0.0349121
					c0.2006073-0.5582275,0.3925171-1.2036743,0.5495148-1.9101868c0.2267914-1.0118103,0.3227234-1.9276428,0.3575897-2.703949
					c0.3401947,0.9333038,0.6541748,2.0933838,0.7588959,3.4540558
					C162.1606598,134.3152008,162.1693878,134.6815338,162.1693878,135.0391235z"/>
			</g>
			<path class="st10" d="M191.9233398,90.9371643c-4.2180328-2.5226822-7.8838501-3.7141724-10.3843536-4.3268204
				c-2.4992981-0.6123352-3.6273193-0.5956726-4.0795898-0.5769272c-4.5505219,0.1886139-7.7856445,3.3675461-9.1481323,4.9037476
				c1.6858826-1.3460388,4.8072052-3.3973618,8.9833221-3.6262817c0.4915314-0.0269394,1.5985565-0.0615921,3.8323212,0.2884369
				C183.6998444,88.0024872,187.4633484,88.8682709,191.9233398,90.9371643z"/>
			<g>
				<path class="st11" d="M170.0647888,81.2550354c0.1133881,0.183136,0.2529755,0.3575974,0.4361115,0.5145874
					c1.3781433,1.2211456,3.1575317-0.139534,7.5796967-0.4535217c3.3406677-0.2355194,4.7275391,0.3750534,5.5561066-0.6803665
					c0.087265-0.1046677,0.1570587-0.2180557,0.2093811-0.3314514c0.462265-0.9158325,0.2354736-2.1718521-0.2093811-3.0092087
					c-1.4304199-2.7300949-5.9660339-2.4596481-6.6725311-2.4073181c-3.1923981,0.244194-7.2307892,2.1456528-7.3529205,4.6925583
					C169.6025238,79.6326981,169.5763397,80.4962006,170.0647888,81.2550354z"/>
				<path class="st12" d="M170.0647888,81.2550354c0.1133881,0.183136,0.2529755,0.3575974,0.4361115,0.5145874
					c1.3781433,1.2211456,3.1575317-0.139534,7.5796967-0.4535217c3.3406677-0.2355194,4.7275391,0.3750534,5.5561066-0.6803665
					c0.087265-0.1046677,0.1570587-0.2180557,0.2093811-0.3314514c-0.1657257-0.2878494-0.7152405-1.1513519-1.8142548-1.5612793
					c-0.1133881-0.05233-1.256012-0.4623032-2.4945679,0.0087357c-1.0118256,0.3837814-0.9682159,0.9158325-2.0323181,1.308342
					c-0.2355194,0.078476-1.0554199,0.3663254-2.0235901,0.174408c-1.0466766-0.2005997-1.1164246-0.7413788-2.1980286-0.9507065
					c-0.3488617-0.0697937-1.0903015-0.2093277-1.8404083,0.1569977c-0.9332886,0.4623108-1.2472839,1.4130096-1.3170776,1.6485291
					C170.108429,81.1416397,170.0822449,81.1939774,170.0647888,81.2550354z"/>
			</g>
			<g>
				<path class="st10" d="M189.4545288,74.704567c0.4797211,0.8547745,1.2472839,1.535141,2.1805878,2.0148544h0.008728
					c2.7300873,1.4217453,6.8382721,1.1513519,9.053772-1.0292282c0.1482544-0.148262,0.287796-0.3053131,0.4099274-0.4623108
					h0.008728c1.4828033-1.8403931,1.447876-4.2215729,1.4391479-4.727478
					c-0.0523376-3.2185364-2.0410004-5.2682648-2.4771118-5.6869659c0.8286285-0.0959396,1.8752747-0.1046677,3.0353546,0.1221237
					c3.4104462,0.6716309,5.4950409,2.9743347,6.2364807,3.8901749c-1.6834106-3.6633911-5.1985321-6.1230888-9.141037-6.3672867
					c-3.9686432-0.2355194-7.632019,1.8142014-9.5596161,4.8234177
					C190.2569733,67.8924408,187.7885437,71.7389603,189.4545288,74.704567z"/>
				<path class="st11" d="M191.6438446,76.7194214c1.5263977,0.8722305,18.7180634,10.5627136,24.5096893,5.3991165
					c0.4884491-0.4361191,2.8260193-2.5207596,2.5120392-5.0676651c-0.2006073-1.6485291-1.4740753-3.3319321-3.174942-3.9948349
					c-2.9742889-1.1774902-5.1199951,1.6485291-11.3302765,2.1369781c-1.3083496,0.10466-2.3811798,0.0697937-3.0440826,0.0348663
					h-0.008728c-0.1221313,0.1569977-0.261673,0.3140488-0.4099274,0.4623108
					C198.4821167,77.8707733,194.3739319,78.1411667,191.6438446,76.7194214z"/>
				<path class="st2" d="M195.2817841,67.1396713c0.282547,0.4100266,0.230545,0.955864,0,1.3186188
					c-0.4097748,0.6448059-1.477478,0.8590851-1.9985657,0.3296432c-0.4963226-0.5043106-0.3587952-1.5432816,0.3090363-1.9573593
					C194.1203156,66.5031738,194.9146576,66.6069794,195.2817841,67.1396713z"/>
			</g>
			<g>
				<path class="st10" d="M166.1837616,77.962883c-0.4797211,0.8547745-1.2472839,1.535141-2.1805878,2.0148544h-0.008728
					c-2.7300873,1.4217453-6.8382721,1.1513519-9.053772-1.0292282c-0.1482544-0.148262-0.287796-0.3053131-0.4099121-0.4623032
					h-0.0087433c-1.4828033-1.8404007-1.447876-4.2215729-1.4391479-4.7274857
					c0.0523376-3.2185364,2.0410004-5.2682648,2.4771118-5.6869659c-0.8286285-0.095932-1.8752747-0.1046677-3.0353546,0.1221237
					c-3.4104462,0.6716309-5.4950409,2.9743423-6.2364807,3.8901749c1.6834106-3.6633835,5.1985321-6.123085,9.141037-6.3672867
					c3.9686432-0.2355194,7.632019,1.814209,9.5596161,4.8234177
					C165.3813171,71.1507568,167.8497467,74.9972763,166.1837616,77.962883z"/>
				<path class="st11" d="M142.7203369,76.1699142c0.1221161,3.9163055,1.0466919,7.623291,2.8783569,10.658699
					c7.344223-0.6018448,17.2527618-6.1928787,18.3953857-6.8470535c-2.7300873,1.4217453-6.8383179,1.1513519-9.053772-1.0292282
					c-0.1482544-0.148262-0.2878418-0.3052597-0.4099731-0.4623108h-0.0086823
					c-0.6629028,0.0349274-1.7357788,0.0697937-3.0441284-0.0348663
					C147.1250916,78.1149673,144.7613831,76.6147614,142.7203369,76.1699142z"/>
				<path class="st2" d="M160.3565063,70.3979874c-0.282547,0.4100266-0.2305298,0.955864,0,1.3186188
					c0.4097748,0.6448059,1.4774933,0.8590851,1.9985657,0.3296432c0.4963226-0.5043106,0.3587952-1.5432816-0.3090363-1.9573517
					C161.5179749,69.7614899,160.7236328,69.865303,160.3565063,70.3979874z"/>
			</g>
		</g>
		<g>
			<rect x="135.3897247" y="102.622879" class="st17" width="4.3843117" height="10.5558815"/>
			<rect x="0.5" y="105.7875366" class="st17" width="141.1733246" height="4.226418"/>
			<g>
				<path class="st17" d="M135.8065796,149.8403015c3.1340027,2.0344086,6.2681122,4.0688782,9.4021912,6.103363
					c1.473175,0.9563141,3.4432983,0.4888611,4.34375-1.0191193c5.4592285-9.1426239,9.1769562-19.2286835,10.9539795-29.7467957
					c-5.7087555-0.9643784-11.4173584-1.9289169-17.1259613-2.8933029
					c-1.3966675,8.2673416-4.2961578,16.2001266-8.5462341,23.4083481
					C133.9959259,147.1147156,134.4220276,148.9415283,135.8065796,149.8403015z"/>
			</g>
			<path class="st17" d="M171.133606,121.5959854c-0.1309509-0.3729858-1.0032959-0.6353531-0.8312225-0.9913254
				c0.20784-0.4295578,1.4189911-0.7834854,1.8921967-0.8465118c0.5661774,1.6317215,2.6648102,5.905571-1.6794739,9.3296051
				C169.6520538,128.5661621,172.9132996,126.6670227,171.133606,121.5959854z"/>
			<path class="st18" d="M142.0288239,119.9180679c0,3.0431519,0.0075684,1.7896118-0.0453796,5.6183472l-1.3668518,0.8004761
				l0.0453796,1.2762451l19.9285278,3.8209763h18.5315552l0.6871948,1.6915894l-1.1252747,2.3031616
				c-0.2225647,0.3945312-0.2360229,0.7647705-0.0691223,0.90625c0.033905,0.0287476,0.0932617,0.0633545,0.1975708,0.0679321
				c0.8609009,0.0100708,1.7218018,0.0201416,2.5827026,0.0302124l3.8134766,8.0725098
				c0.7807922,1.4693604,0.7515259,2.0510254,0.5267944,2.289978c-0.1581421,0.1681519-0.4060059,0.1590576-0.600769,0.4207153
				c-0.2247925,0.302002-0.1906433,0.711853-0.1222839,1.0199585c0.0240479,0.1081543,0.168335,0.7077026,0.763916,1.0786743
				c0.3752136,0.2337036,0.8406067,0.3226318,1.3050232,0.2099609l10.9729309-2.6619263
				c1.0782776-0.2615967,1.6244202-1.4661865,1.1105347-2.449646l-11.4188843-21.8524704
				c-0.4831238-0.7022095-0.6794739-1.532959-0.6115723-2.3410034c0.0906067-1.0948486,0.6569519-2.1596069,1.6538086-2.8619385
				c1.1099854-0.7854004,2.7336731-1.1252441,4.8102417-0.5436401v-13.9401855l-2.8619385-3.3453979l-1.6686096-5.7768555
				c-0.065094-0.4463501-0.5121765-3.1911011-3.0489197-4.8775024c-2.003479-1.3318481-4.0666199-1.1766968-4.6590576-1.1109619
				h-4.6542358l-31.4673462,3.2773438c-2.8091736,0.2869263-5.0444031,2.4694214-5.4219666,5.2634277l-0.4305115,3.2245483
				v18.2822876L142.0288239,119.9180679z M161.5345459,124.4790421c0-1.180275,0.9568024-2.1370773,2.137085-2.1370773h0.0151215
				l10.3154144,0.0226898c0.8759766,0.0075607,1.6537933,0.5362396,1.9859619,1.3441467l1.2837982,3.179306
				c0.5738983,1.4044952-0.4606018,2.9451447-1.9785614,2.9451447h-11.6217346c-1.1802826,0-2.137085-0.9568024-2.137085-2.1370773
				V124.4790421z M146.6151886,97.3835602v-0.2208099c0-1.385582,1.076416-2.5391693,2.4618835-2.6275177l19.4849243-1.3199234
				c1.9486084-0.1320038,3.7698059,0.9753189,4.5493164,2.7660904l0.2979889,0.6845474
				c0.6159515,1.4149933-0.421051,2.9973907-1.9642792,2.9973907h-22.5500641
				C147.6358795,99.6633377,146.6151886,98.6426468,146.6151886,97.3835602z"/>
			<path class="st17" d="M182.9808502,131.1390076l4.6242676-1.477356c0.5678711-0.1813965,1.1841736,0.0697021,1.4635315,0.5963745
				l6.3456726,11.9622803c0.5245667,0.9888916-0.0231628,2.2070923-1.1110229,2.4710083
				c-1.4394836,0.6008911-2.6794739,0.9717407-3.6072693,1.2067871c-1.118866,0.2834473-1.6743164,0.3416138-2.1732178,0.0472412
				c-0.686615-0.4051514-0.8807373-1.2506714-0.9415283-1.6179199l-5.342865-11.4952393
				C181.9257355,132.1593933,182.2741241,131.3648376,182.9808502,131.1390076z"/>
			<path class="st17" d="M193.6016541,116.8118973l72.1089478,16.5971298
				c1.5170288,0.3534546,2.9883118-0.7396698,3.0877686-2.2941895c2.6042786-7.5714951,3.7409058-16.1020203,3.4479675-25.5592575
				c0.092804-1.4525604-1.0601807-2.6816788-2.5157471-2.6816788h-76.1289368V116.8118973z"/>
			<rect x="131.2677765" y="101.148262" class="st18" width="6.1986728" height="13.5051241"/>
			<path class="st17" d="M56.5074043,103.1988297v9.4017944c0,1.0647583,0.8457336,1.9407349,1.9104919,1.9708252
				c24.2807655,0.6796875,48.5615578,1.359375,72.8423157,2.0390625c1.1101379,0.0300903,2.0239563-0.8610229,2.0239563-1.963562
				v-13.4869995c0-1.1099854-0.9138184-2.0010986-2.0239563-1.9710083
				c-24.2807541,0.6796265-48.5615463,1.3592529-72.8423157,2.0388794
				c-0.1361694,0.0041504-0.8125916,0.0388184-1.3545532,0.5975952
				C56.5208015,102.3848038,56.5072823,103.0627823,56.5074043,103.1988297z"/>
			<path class="st18" d="M1.6797917,110.8918228h11.4849653c0.6515808,0,1.1797915-0.5282059,1.1797915-1.1797943v-3.6225739
				c0-0.6515884-0.5282106-1.1797943-1.1797915-1.1797943H1.6797917c-0.651588,0-1.1797917,0.5282059-1.1797917,1.1797943v3.6225739
				C0.5,110.3636169,1.0282037,110.8918228,1.6797917,110.8918228z"/>
			<path class="st17" d="M43.4810066,93.6583557v12.2262497h13.0263977v-2.6854553l-8.3612175-10.7283707
				c-0.5612679-0.7201691-1.4232979-1.1412506-2.3363495-1.1412506h-0.0000038
				C44.5236588,91.3295288,43.4810066,92.3721848,43.4810066,93.6583557z M46.5192795,92.8397675L46.5192795,92.8397675
				l8.4777336,10.8786011v0.6558456H44.9912415V94.3678055C44.9912415,93.5238953,45.6753654,92.8397675,46.5192795,92.8397675z"/>
			<path class="st3" d="M187.6114349,118.1748123h-25.6354218c-1.7608795,0-3.1883392-1.4274673-3.1883392-3.1883392v-8.129837"/>
		</g>
	</g>
</g>
<g id="_x36_">
</g>
<g id="_x35_">
</g>
<g id="_x34_">
</g>
<g id="_x33_">
</g>
<g id="_x32__00000090986873235919319700000007018539234035486648_">
</g>
<g id="_x31_">
</g>
</svg>
