<?xml version="1.0" encoding="utf-8"?>
<!-- Generator: Adobe Illustrator 27.6.1, SVG Export Plug-In . SVG Version: 6.00 Build 0)  -->
<svg version="1.1" xmlns="http://www.w3.org/2000/svg" xmlns:xlink="http://www.w3.org/1999/xlink" x="0px" y="0px"
	 viewBox="0 0 349.9464722 130.9191895" style="enable-background:new 0 0 349.9464722 130.9191895;" xml:space="preserve">
<style type="text/css">
	.st0{fill:#814E90;stroke:#000000;stroke-linecap:round;stroke-linejoin:round;stroke-miterlimit:10;}
	.st1{fill:#FFFFFF;stroke:#000000;stroke-miterlimit:10;}
	.st2{fill:#FFFFFF;}
	.st3{fill:none;stroke:#000000;stroke-linecap:round;stroke-linejoin:round;stroke-miterlimit:10;}
	.st4{fill:#926F6B;stroke:#000000;stroke-linecap:round;stroke-linejoin:round;stroke-miterlimit:10;}
	.st5{fill:#1D0235;}
	.st6{fill:#E1DECB;}
	.st7{fill:#80386A;}
	.st8{fill:#3D0B30;}
	.st9{fill:#3B071E;}
	.st10{fill:#010103;}
	.st11{fill:#D94C90;}
	.st12{fill:#771F45;}
	.st13{fill:#19122B;stroke:#000000;stroke-linecap:round;stroke-linejoin:round;stroke-miterlimit:10;}
	.st14{fill:#3A2E59;stroke:#000000;stroke-linecap:round;stroke-linejoin:round;stroke-miterlimit:10;}
	.st15{fill:#E1DECB;stroke:#000000;stroke-linecap:round;stroke-linejoin:round;stroke-miterlimit:10;}
	.st16{fill:#3B071E;stroke:#000000;stroke-linecap:round;stroke-linejoin:round;stroke-miterlimit:10;}
	.st17{fill:#3C3C3B;stroke:#000000;stroke-miterlimit:10;}
	.st18{fill:#575756;stroke:#000000;stroke-miterlimit:10;}
	.st19{fill:#EEEEEE;stroke:#000000;stroke-miterlimit:10;}
	.st20{fill:#EEEEEE;stroke:#000000;stroke-linecap:round;stroke-linejoin:round;stroke-miterlimit:10;}
	.st21{fill:#CA2432;}
	.st22{fill:#871026;}
	.st23{fill:#FCC5BE;}
	.st24{fill:#F6ACBD;stroke:#000000;stroke-linecap:round;stroke-linejoin:round;stroke-miterlimit:10;}
	.st25{fill:#9F49A2;}
	.st26{fill:none;stroke:#B780A8;stroke-linecap:round;stroke-linejoin:round;stroke-miterlimit:10;}
	.st27{fill:#F6ACBD;}
	.st28{fill:#9789A3;stroke:#000000;stroke-linecap:round;stroke-linejoin:round;stroke-miterlimit:10;}
	.st29{fill:url(#SVGID_1_);stroke:#000000;stroke-linecap:round;stroke-linejoin:round;stroke-miterlimit:10;}
	.st30{fill:url(#SVGID_00000002368659072941308650000002551795440575419811_);}
	.st31{fill:url(#SVGID_00000092435176812057443340000015187785928423602314_);}
	.st32{fill:url(#SVGID_00000160899208273287877730000008649762499443656344_);}
	.st33{fill:url(#SVGID_00000131351831482857787340000008913204569236603291_);}
	.st34{fill:url(#SVGID_00000105403181068557047340000015400094452889452478_);}
	
		.st35{fill:url(#SVGID_00000166651101546304045610000010799172818015836332_);stroke:#000000;stroke-linecap:round;stroke-linejoin:round;stroke-miterlimit:10;}
	.st36{fill:url(#SVGID_00000036950366355081462820000007366294861560214439_);}
	.st37{fill:url(#SVGID_00000047024783034834292890000001221342224280811909_);}
	.st38{fill:url(#SVGID_00000098209937798208410270000017561033009780541066_);}
	.st39{fill:url(#SVGID_00000056414031147795690940000004852223915737284756_);}
	.st40{fill:url(#SVGID_00000069376757462742694170000013686649744450069431_);}
	
		.st41{fill:url(#SVGID_00000146475973472495282050000005369111117544327338_);stroke:#000000;stroke-linecap:round;stroke-linejoin:round;stroke-miterlimit:10;}
	.st42{fill:#0B0B0B;}
	.st43{fill:#010101;}
	.st44{fill:#151514;}
	.st45{fill:#1D1D1D;}
	.st46{fill:#1E1E1D;}
	.st47{fill:#141414;}
	.st48{fill:#0D0D0D;}
	.st49{fill:#3C3C3B;}
	.st50{fill:#333332;}
	.st51{fill:#292929;}
	.st52{fill:#242423;}
	.st53{fill:#0F0F0F;}
	.st54{fill:#323231;}
	.st55{fill:#4C4C4B;}
	.st56{fill:#4F4F4E;}
	.st57{fill:#363635;}
	.st58{fill:#575756;}
	.st59{fill:#0A0A0A;}
	.st60{fill:#101010;}
	.st61{fill:#0E0E0D;}
	.st62{fill:#545453;}
	.st63{fill:#393938;}
	.st64{fill:#050505;}
	.st65{fill:#030303;}
	.st66{fill:#202020;}
	.st67{fill:#373736;}
	.st68{fill:#303030;}
	.st69{fill:#2D2D2C;}
	.st70{fill:#252525;}
	.st71{fill:#212121;}
	.st72{fill:#1C1C1B;}
	.st73{fill:#161616;}
	.st74{fill:#070707;}
	.st75{fill:#2F2F2F;}
	.st76{fill:#8F8F8F;}
	.st77{fill:#1A1A19;}
	.st78{fill:#707070;}
	.st79{fill:#080808;}
	.st80{fill:#171717;}
	.st81{fill:#1B1B1B;}
	.st82{fill:#5F5F5F;}
	.st83{fill:#1C111F;}
	.st84{fill:#814E90;}
	.st85{fill:#693F75;}
	.st86{fill:#5F396A;}
	.st87{fill:#563460;}
	.st88{fill:#7D4B8B;}
	.st89{fill:#744681;}
	.st90{fill:#4D2E55;}
	.st91{fill:#4D2E56;}
	.st92{fill:#804D8E;}
	.st93{fill:#492C52;}
	.st94{fill:#412749;}
	.st95{fill:#6E437B;}
	.st96{fill:#774885;}
	.st97{fill:#6C4179;}
	.st98{fill:#402647;}
	.st99{fill:#341F3A;}
	.st100{fill:#030103;}
	.st101{fill:#43284A;}
	.st102{fill:#6C4178;}
	.st103{fill:#080408;}
	.st104{fill:#4B2D53;}
	.st105{fill:#6E427B;}
	.st106{fill:#7F4D8E;}
	.st107{fill:#392340;}
	.st108{fill:#565656;}
	.st109{fill:#673E73;}
	.st110{fill:#3E2545;}
	.st111{fill:#241528;}
	.st112{fill:#0F0910;}
	.st113{fill:#150D18;}
	.st114{fill:#1A1A1A;}
	.st115{fill:#492C51;}
	.st116{fill:#130B15;}
	.st117{fill:#3C2443;}
	.st118{fill:#100A12;}
	.st119{fill:#613A6C;}
	.st120{fill:#28182D;}
	.st121{fill:#1A0F1D;}
	.st122{fill:#7C4B8A;}
	.st123{fill:#4F4F4F;}
	.st124{fill:#7A4988;}
	.st125{fill:#040205;}
	.st126{fill:#4C2E55;}
	.st127{fill:#54335E;}
	.st128{fill:#482B50;}
	.st129{fill:#44294C;}
	.st130{fill:#7A4A88;}
	.st131{fill:#070407;}
	.st132{fill:#794987;}
	.st133{fill:#09050A;}
	.st134{fill:#72457F;}
	.st135{fill:#180E1B;}
	.st136{fill:#140C16;}
	.st137{fill:#603A6B;}
	.st138{fill:#7C4A8A;}
	.st139{fill:#2D1B32;}
	.st140{fill:#51315A;}
	.st141{fill:#6F437C;}
	.st142{fill:#0A060B;}
	.st143{fill:#6B4178;}
	.st144{fill:#7F4C8D;}
	.st145{fill:#70437D;}
	.st146{fill:#120A14;}
	.st147{fill:#655C6D;}
	.st148{fill:#683F75;}
	.st149{fill:#150C18;}
	.st150{fill:#633C6F;}
	.st151{fill:#5C3766;}
	.st152{fill:#784987;}
	.st153{fill:#3A2341;}
	.st154{fill:#784886;}
	.st155{fill:#110A12;}
	.st156{fill:#0B060C;}
	.st157{fill:#724580;}
	.st158{fill:#2F1C35;}
	.st159{fill:#110A13;}
	.st160{fill:#583563;}
	.st161{fill:#321E38;}
	.st162{fill:#593663;}
	.st163{fill:#4C2D54;}
	.st164{fill:#232323;}
	.st165{fill:#040305;}
	.st166{fill:#6D4279;}
	.st167{fill:#4A2D53;}
	.st168{fill:#573461;}
	.st169{fill:#764784;}
	.st170{fill:#52315C;}
	.st171{fill:#643C70;}
	.st172{fill:#010001;}
	.st173{fill:#8E8199;}
	.st174{fill:#160D19;}
	.st175{fill:#190F1C;}
	.st176{fill:#2E1C34;}
	.st177{fill:#1C1120;}
	.st178{fill:#5A3664;}
	.st179{fill:#1E1222;}
	.st180{fill:#5C3767;}
	.st181{fill:#7B4A89;}
	.st182{fill:#040204;}
	.st183{fill:#804D8F;}
	.st184{fill:#080409;}
	.st185{fill:#744682;}
	.st186{fill:#653D71;}
	.st187{fill:#5D3867;}
	.st188{fill:#503059;}
	.st189{fill:#9587A1;}
	.st190{fill:#1F1323;}
	.st191{fill:#7A4A89;}
	.st192{fill:#231527;}
	.st193{fill:#623B6D;}
	.st194{fill:#1F1222;}
	.st195{fill:#3D2544;}
	.st196{fill:#70447D;}
	.st197{fill:#734580;}
	.st198{fill:#241628;}
	.st199{fill:#42284A;}
	.st200{fill:#402747;}
	.st201{fill:#050205;}
	.st202{fill:#120B14;}
	.st203{fill:#311D36;}
	.st204{fill:#080509;}
	.st205{fill:#35203C;}
	.st206{fill:#653D70;}
	.st207{fill:#71447E;}
	.st208{fill:#28182C;}
	.st209{fill:#2C1B31;}
	.st210{fill:#6A3F76;}
	.st211{fill:#2C1A31;}
	.st212{fill:#0C070E;}
	.st213{fill:#412748;}
	.st214{fill:#211425;}
	.st215{fill:#683E74;}
	.st216{fill:#71447F;}
	.st217{fill:#583562;}
	.st218{fill:#1A101D;}
	.st219{fill:#54325E;}
	.st220{fill:#4E2F58;}
	.st221{fill:#7D4B8C;}
	.st222{fill:#593664;}
	.st223{fill:#7E4C8D;}
	.st224{fill:#663D72;}
	.st225{fill:#593563;}
	.st226{fill:#331F39;}
	.st227{fill:#754783;}
	.st228{fill:#36203C;}
	.st229{fill:#7E4C8C;}
	.st230{fill:#5B3765;}
	.st231{fill:#060306;}
	.st232{fill:#774784;}
	.st233{fill:#150C17;}
	.st234{fill:#050305;}
	.st235{fill:#9789A3;}
	.st236{fill:#877A92;}
	.st237{fill:#201323;}
	.st238{fill:#55335E;}
	.st239{fill:#623B6E;}
	.st240{fill:#734581;}
	.st241{fill:#3D2444;}
	.st242{fill:#55335F;}
	.st243{fill:#3B2342;}
	.st244{fill:#241629;}
	.st245{fill:#6D427A;}
	.st246{fill:#201324;}
	.st247{fill:#140C17;}
	.st248{fill:#1B101E;}
	.st249{fill:#151515;}
	.st250{fill:#4A2C53;}
	.st251{fill:#0D070E;}
	.st252{fill:#683F74;}
	.st253{fill:#2F1C34;}
	.st254{fill:#44294B;}
	.st255{fill:#0D080F;}
	.st256{fill:#070607;}
	.st257{fill:#060407;}
	.st258{fill:#784885;}
	.st259{fill:#3F2646;}
	.st260{fill:#5D3868;}
	.st261{fill:#251629;}
	.st262{fill:#53325C;}
	.st263{fill:#4F3058;}
	.st264{fill:#26172A;}
	.st265{fill:#311E37;}
	.st266{fill:#4B2D54;}
	.st267{fill:#27172B;}
	.st268{fill:#2E1B33;}
	.st269{fill:#100911;}
	.st270{fill:#1E1221;}
	.st271{fill:#070408;}
	.st272{fill:#38223F;}
	.st273{fill:#030203;}
	.st274{fill:#452A4D;}
	.st275{fill:#080609;}
	.st276{fill:#383838;}
	.st277{fill:#201D23;}
	.st278{fill:#301D36;}
	.st279{fill:#4F3059;}
	.st280{fill:#754682;}
	.st281{fill:#7B4A8A;}
	.st282{fill:#6B4077;}
	.st283{fill:#7B6F84;}
	.st284{fill:#0E080F;}
	.st285{fill:#38213E;}
	.st286{fill:#0E0810;}
	.st287{fill:#020102;}
	.st288{fill:#090809;}
	.st289{fill:#311D37;}
	.st290{fill:#0F0911;}
	.st291{fill:#525252;}
	.st292{fill:#CACACA;}
	.st293{fill:#27172C;}
	.st294{fill:#926F6B;}
	.st295{fill:#929292;}
	.st296{fill:#26172B;}
	.st297{fill:#DBDBDB;}
	.st298{fill:#050303;}
	.st299{fill:#5A5A5A;}
	.st300{fill:#693F76;}
	.st301{fill:#6A4077;}
	.st302{fill:#52315B;}
	.st303{fill:#6A4076;}
	.st304{fill:#3A2340;}
	.st305{fill:#633B6E;}
	.st306{fill:#664D4A;}
	.st307{fill:#9688A2;}
	.st308{fill:#36203D;}
	.st309{fill:#434343;}
	.st310{fill:#25162A;}
	.st311{fill:#846561;}
	.st312{fill:#E7E7E7;}
	.st313{fill:#29252C;}
	.st314{fill:#FDFDFD;}
	.st315{fill:#5D5D5D;}
	.st316{fill:#221526;}
	.st317{fill:#353535;}
	.st318{fill:#221426;}
	.st319{fill:#36213D;}
	.st320{fill:#7F615D;}
	.st321{fill:#BFBFBF;}
	.st322{fill:#6D5350;}
	.st323{fill:#644C49;}
	.st324{fill:#53325D;}
	.st325{fill:#B4B4B4;}
	.st326{fill:#131313;}
	.st327{fill:#191919;}
	.st328{fill:#343434;}
	.st329{fill:#FFCA53;}
	.st330{fill:#FFC649;}
	.st331{fill:#FFB920;}
	.st332{fill:#FFD883;}
	.st333{fill:#FFB003;}
	.st334{fill:#FFB613;}
	.st335{fill:#FFBD29;}
	.st336{fill:#FFB40F;}
	.st337{fill:#FFBC26;}
	.st338{fill:#FFB300;}
	.st339{fill:#FFB301;}
	.st340{fill:#FFB200;}
	.st341{fill:#FFB100;}
	.st342{fill:#FFC441;}
	.st343{fill:#FFB500;}
	.st344{fill:#FFB906;}
	.st345{fill:#FFB803;}
	.st346{fill:#FFB400;}
	.st347{fill:#FFC74A;}
	.st348{fill:#FFB000;}
	.st349{fill:#FFC648;}
	.st350{fill:#FFC136;}
	.st351{fill:#FFB600;}
	.st352{fill:#FFB801;}
	.st353{fill:#FFBF0B;}
	.st354{fill:#FFBA05;}
	.st355{fill:#FFD881;}
	.st356{fill:#FFB102;}
	.st357{fill:#FFCA54;}
	.st358{fill:#FFB715;}
	.st359{fill:#FFB900;}
	.st360{fill:#FFC50F;}
	.st361{fill:#FFC009;}
	.st362{fill:#FFCE60;}
	.st363{fill:#FFCC5A;}
	.st364{fill:#FFB208;}
	.st365{fill:#FFB410;}
	.st366{fill:#FFBB00;}
	.st367{fill:#FFCB16;}
	.st368{fill:#FFBA00;}
	.st369{fill:#FFBE00;}
	.st370{fill:#FFC002;}
	.st371{fill:#FFD21A;}
	.st372{fill:#FFBB23;}
	.st373{fill:#FFC000;}
	.st374{fill:#FFD116;}
	.st375{fill:#FFD81E;}
	.st376{fill:#FFAF00;}
	.st377{fill:#FFDE22;}
	.st378{fill:#FFD315;}
	.st379{fill:#FFC200;}
	.st380{fill:#FFC100;}
	.st381{fill:#FFBF00;}
	.st382{fill:#FFAD00;}
	.st383{fill:#FFBC00;}
	.st384{fill:#FFB700;}
	.st385{fill:#FFCC0E;}
	.st386{fill:#FFE327;}
	.st387{fill:#FFDB1F;}
	.st388{fill:#FFD61A;}
	.st389{fill:#FFD91D;}
	.st390{fill:#FFB41C;}
	.st391{fill:#FFAB00;}
	.st392{fill:#FFB800;}
	.st393{fill:#FFE62B;}
	.st394{fill:#FFE227;}
	.st395{fill:#FFDB1E;}
	.st396{fill:#FFC300;}
	.st397{fill:#FFA900;}
	.st398{fill:#FFEA2F;}
	.st399{fill:#FFDF23;}
	.st400{fill:#FFB31B;}
	.st401{fill:#FFA700;}
	.st402{fill:#FFDA1D;}
	.st403{fill:#FFED33;}
	.st404{fill:#FFC301;}
	.st405{fill:#FFA906;}
	.st406{fill:#FFA705;}
	.st407{fill:#FFA500;}
	.st408{fill:#FFDE21;}
	.st409{fill:#FFF136;}
	.st410{fill:#FFA300;}
	.st411{fill:#FFC400;}
	.st412{fill:#FFCA09;}
	.st413{fill:#FFF53B;}
	.st414{fill:#FFA100;}
	.st415{fill:#FFAE00;}
	.st416{fill:#FFF73E;}
	.st417{fill:#FFC45F;}
	.st418{fill:#FFA000;}
	.st419{fill:#FFC500;}
	.st420{fill:#FFFB41;}
	.st421{fill:#FFEB2E;}
	.st422{fill:#FFC601;}
	.st423{fill:#FFAB1F;}
	.st424{fill:#FF9D00;}
	.st425{fill:#FFA30E;}
	.st426{fill:#FFFE44;}
	.st427{fill:#FFF337;}
	.st428{fill:#FFF63B;}
	.st429{fill:#FFB53F;}
	.st430{fill:#FF9B00;}
	.st431{fill:#FFE223;}
	.st432{fill:#F8FF48;}
	.st433{fill:#FF9C03;}
	.st434{fill:#FFCB7B;}
	.st435{fill:#FF9900;}
	.st436{fill:#FFC46A;}
	.st437{fill:#FFC600;}
	.st438{fill:#FFC905;}
	.st439{fill:#F1FF4B;}
	.st440{fill:#FFFF45;}
	.st441{fill:#FFBD00;}
	.st442{fill:#FFB13C;}
	.st443{fill:#FF9800;}
	.st444{fill:#FFD28F;}
	.st445{fill:#FFC700;}
	.st446{fill:#EAFF4E;}
	.st447{fill:#EEFF4C;}
	.st448{fill:#FFCA04;}
	.st449{fill:#FF9600;}
	.st450{fill:#FFB954;}
	.st451{fill:#E2FF50;}
	.st452{fill:#FFC901;}
	.st453{fill:#E4FF4F;}
	.st454{fill:#FFF437;}
	.st455{fill:#FFC800;}
	.st456{fill:#FF9300;}
	.st457{fill:#DBFF53;}
	.st458{fill:#FFF83B;}
	.st459{fill:#FFCB04;}
	.st460{fill:#E9FF4D;}
	.st461{fill:#F3FF49;}
	.st462{fill:#FF9100;}
	.st463{fill:#FFC900;}
	.st464{fill:#D6FF55;}
	.st465{fill:#FFCB02;}
	.st466{fill:#FFE827;}
	.st467{fill:#FFC070;}
	.st468{fill:#FFA12A;}
	.st469{fill:#FF8E00;}
	.st470{fill:#FFCA00;}
	.st471{fill:#FFDD18;}
	.st472{fill:#CFFF58;}
	.st473{fill:#FF8F00;}
	.st474{fill:#FF8C00;}
	.st475{fill:#FFCB00;}
	.st476{fill:#FFD50D;}
	.st477{fill:#FFE21E;}
	.st478{fill:#CAFF5A;}
	.st479{fill:#CCFF58;}
	.st480{fill:#FFFE43;}
	.st481{fill:#FFAA00;}
	.st482{fill:#FF8900;}
	.st483{fill:#FFCD00;}
	.st484{fill:#FFE21B;}
	.st485{fill:#FFF838;}
	.st486{fill:#C2FF5C;}
	.st487{fill:#FF8700;}
	.st488{fill:#FF9A00;}
	.st489{fill:#FFCF00;}
	.st490{fill:#FFDD11;}
	.st491{fill:#BDFF5E;}
	.st492{fill:#FFCE00;}
	.st493{fill:#FF8F11;}
	.st494{fill:#FF8400;}
	.st495{fill:#BBFF5F;}
	.st496{fill:#FFD000;}
	.st497{fill:#FF8200;}
	.st498{fill:#FFEC26;}
	.st499{fill:#B6FF61;}
	.st500{fill:#FF8302;}
	.st501{fill:#FF7F00;}
	.st502{fill:#FFD400;}
	.st503{fill:#FF8A00;}
	.st504{fill:#D4FF52;}
	.st505{fill:#B1FF63;}
	.st506{fill:#E7FF49;}
	.st507{fill:#FF7D00;}
	.st508{fill:#FFD500;}
	.st509{fill:#CFFF54;}
	.st510{fill:#FFED23;}
	.st511{fill:#AFFF64;}
	.st512{fill:#FFE111;}
	.st513{fill:#FFC286;}
	.st514{fill:#FF8500;}
	.st515{fill:#FF8100;}
	.st516{fill:#FF9F44;}
	.st517{fill:#FF7B00;}
	.st518{fill:#FFD700;}
	.st519{fill:#FFD800;}
	.st520{fill:#FFAC00;}
	.st521{fill:#FF9000;}
	.st522{fill:#ADFF65;}
	.st523{fill:#FFF026;}
	.st524{fill:#FF9C3F;}
	.st525{fill:#FF7900;}
	.st526{fill:#FFD900;}
	.st527{fill:#AAFF66;}
	.st528{fill:#FFE513;}
	.st529{fill:#FF9331;}
	.st530{fill:#FF8B22;}
	.st531{fill:#FF7600;}
	.st532{fill:#FF7800;}
	.st533{fill:#FFD300;}
	.st534{fill:#FFDB00;}
	.st535{fill:#A8FF67;}
	.st536{fill:#FF7C00;}
	.st537{fill:#FFAC67;}
	.st538{fill:#FF7400;}
	.st539{fill:#FFDE00;}
	.st540{fill:#FFEF1F;}
	.st541{fill:#A9FF68;}
	.st542{fill:#FF7500;}
	.st543{fill:#FF7E17;}
	.st544{fill:#FF7200;}
	.st545{fill:#FFE000;}
	.st546{fill:#DDFF48;}
	.st547{fill:#FFFB2E;}
	.st548{fill:#E8FF42;}
	.st549{fill:#A6FF69;}
	.st550{fill:#B4FF62;}
	.st551{fill:#FF7000;}
	.st552{fill:#FFE400;}
	.st553{fill:#FFD200;}
	.st554{fill:#FF9645;}
	.st555{fill:#FF6D00;}
	.st556{fill:#FFA600;}
	.st557{fill:#FFAC6E;}
	.st558{fill:#FFA25D;}
	.st559{fill:#FF730A;}
	.st560{fill:#FFE900;}
	.st561{fill:#C6FF53;}
	.st562{fill:#A4FF6A;}
	.st563{fill:#FF760E;}
	.st564{fill:#FF9C00;}
	.st565{fill:#FFAA51;}
	.st566{fill:#FF6C00;}
	.st567{fill:#FF8000;}
	.st568{fill:#FFEB00;}
	.st569{fill:#FFEC00;}
	.st570{fill:#F2FF34;}
	.st571{fill:#FF7700;}
	.st572{fill:#FF7B09;}
	.st573{fill:#FF6A00;}
	.st574{fill:#FF6E08;}
	.st575{fill:#FF8600;}
	.st576{fill:#D2FF49;}
	.st577{fill:#FFF207;}
	.st578{fill:#FFEA00;}
	.st579{fill:#FF6800;}
	.st580{fill:#FFA15F;}
	.st581{fill:#FF7F28;}
	.st582{fill:#FFDF00;}
	.st583{fill:#FF6900;}
	.st584{fill:#FF7B24;}
	.st585{fill:#FF6500;}
	.st586{fill:#FFCC00;}
	.st587{fill:#FF7315;}
	.st588{fill:#FF6F00;}
	.st589{fill:#FF6E00;}
	.st590{fill:#FF5B04;}
	.st591{fill:#FF6400;}
	.st592{fill:#FF9700;}
	.st593{fill:#FF7116;}
	.st594{fill:#FF6200;}
	.st595{fill:#FF7925;}
	.st596{fill:#FF6E14;}
	.st597{fill:#FF9500;}
	.st598{fill:#FF9F00;}
	.st599{fill:#FF8846;}
	.st600{fill:#FFC74D;}
	.st601{fill:#FF6000;}
	.st602{fill:#FFD600;}
	.st603{fill:#FF6100;}
	.st604{fill:#FFE800;}
	.st605{fill:#FFA400;}
	.st606{fill:#FF5E00;}
	.st607{fill:#FF8800;}
	.st608{fill:#FFA800;}
	.st609{fill:#FF6A12;}
	.st610{fill:#FFDA00;}
	.st611{fill:#FF670E;}
	.st612{fill:#FF6C16;}
	.st613{fill:#FF8B00;}
	.st614{fill:#FF5C00;}
	.st615{fill:#FFE700;}
	.st616{fill:#FF6610;}
	.st617{fill:#FF7A00;}
	.st618{fill:#FF640E;}
	.st619{fill:#FF5B00;}
	.st620{fill:#FFD100;}
	.st621{fill:#FFE500;}
	.st622{fill:#FFAA7B;}
	.st623{fill:#FFA16D;}
	.st624{fill:#FF5900;}
	.st625{fill:#FF7327;}
	.st626{fill:#FFE600;}
	.st627{fill:#FFE200;}
	.st628{fill:#FF7930;}
	.st629{fill:#FF5800;}
	.st630{fill:#FF5700;}
	.st631{fill:#FF691A;}
	.st632{fill:#FF8A4C;}
	.st633{fill:#FF7C37;}
	.st634{fill:#FF4D00;}
	.st635{fill:#FF5600;}
	.st636{fill:#FF5500;}
	.st637{fill:#FF5300;}
	.st638{fill:#FF5C0D;}
	.st639{fill:#FF5403;}
	.st640{fill:#FF5200;}
	.st641{fill:#FFBD4D;}
	.st642{fill:#FF9E70;}
	.st643{fill:#FF5000;}
	.st644{fill:#FF5400;}
	.st645{fill:#FFE300;}
	.st646{fill:#FF5A0D;}
	.st647{fill:#FFB456;}
	.st648{fill:#FF4F00;}
	.st649{fill:#FF9A31;}
	.st650{fill:#FF9223;}
	.st651{fill:#FF4E00;}
	.st652{fill:#FF6300;}
	.st653{fill:#FF7300;}
	.st654{fill:#FFA255;}
	.st655{fill:#FF6623;}
	.st656{fill:#FF6E2E;}
	.st657{fill:#FF6700;}
	.st658{fill:#FF621F;}
	.st659{fill:#FF4C00;}
	.st660{fill:#FF4B00;}
	.st661{fill:#FF9F21;}
	.st662{fill:#FFA22A;}
	.st663{fill:#FF4A00;}
	.st664{fill:#FF956B;}
	.st665{fill:#FF6805;}
	.st666{fill:#FF6600;}
	.st667{fill:#FF4900;}
	.st668{fill:#FF5B19;}
	.st669{fill:#FFFEFE;}
	.st670{fill:#FFC84C;}
	.st671{fill:#FFDC8F;}
	.st672{fill:#FFBB09;}
	.st673{fill:#FFB001;}
	.st674{fill:#FFFCF6;}
	.st675{fill:#FFB313;}
	.st676{fill:#FFDC63;}
	.st677{fill:#FFC451;}
	.st678{fill:#FFAA0B;}
	.st679{fill:#FFD052;}
	.st680{fill:#FFD314;}
	.st681{fill:#FFA200;}
	.st682{fill:#FFE304;}
	.st683{fill:#FFEE24;}
	.st684{fill:#FFB234;}
	.st685{fill:#FFD371;}
	.st686{fill:#FFDCA6;}
	.st687{fill:#FFCC19;}
	.st688{fill:#FFBC56;}
	.st689{fill:#FFCD81;}
	.st690{fill:#FFD98B;}
	.st691{fill:#FFCB19;}
	.st692{fill:#FFB652;}
	.st693{fill:#FF9E1A;}
	.st694{fill:#FFE9C0;}
	.st695{fill:#FFFE00;}
	.st696{fill:#FFF800;}
	.st697{fill:#FFAF48;}
	.st698{fill:#FFF700;}
	.st699{fill:#FFFD00;}
	.st700{fill:#FFF0D6;}
	.st701{fill:#FFFEBA;}
	.st702{fill:#FFFEB5;}
	.st703{fill:#FFF5E9;}
	.st704{fill:#FF8D00;}
	.st705{fill:#FFFF00;}
	.st706{fill:#FFB12F;}
	.st707{fill:#FFFC00;}
	.st708{fill:#FFFB0B;}
	.st709{fill:#FFF600;}
	.st710{fill:#FFD07F;}
	.st711{fill:#FFD492;}
	.st712{fill:#FFFEF0;}
	.st713{fill:#FFFB00;}
	.st714{fill:#FFF900;}
	.st715{fill:#FFFA00;}
	.st716{fill:#FFF500;}
	.st717{fill:#FFA540;}
	.st718{fill:#FFFEF5;}
	.st719{fill:#FF9220;}
	.st720{fill:#FFA415;}
	.st721{fill:#FFFCC3;}
	.st722{fill:#FFF000;}
	.st723{fill:#FF9E3D;}
	.st724{fill:#FF9400;}
	.st725{fill:#FFEA21;}
	.st726{fill:#FFF200;}
	.st727{fill:#FFCC81;}
	.st728{fill:#FF9F1C;}
	.st729{fill:#FFF400;}
	.st730{fill:#FFEF00;}
	.st731{fill:#FF8A04;}
	.st732{fill:#FF8300;}
	.st733{fill:#FFF300;}
	.st734{fill:#FFE303;}
	.st735{fill:#FF5F00;}
	.st736{fill:#FF8304;}
	.st737{fill:#FFFAA9;}
	.st738{fill:#FFE840;}
	.st739{fill:#FFF100;}
	.st740{fill:#FFEE00;}
	.st741{fill:#FF7100;}
	.st742{fill:#FF7601;}
	.st743{fill:#FFDC00;}
	.st744{fill:#FF6B00;}
	.st745{fill:#FFE100;}
	.st746{fill:#FFA25C;}
	.st747{fill:#FFED00;}
	.st748{fill:#FF7E22;}
	.st749{fill:#FFD98E;}
	.st750{fill:#FF7002;}
	.st751{fill:#FFD088;}
	.st752{fill:#FF7B25;}
	.st753{fill:#FF7A28;}
	.st754{fill:#FF9011;}
	.st755{fill:#FFEAC2;}
	.st756{fill:#FFAE7A;}
	.st757{fill:#FF5D00;}
	.st758{fill:#FFC46D;}
	.st759{fill:#FF5A00;}
	.st760{fill:#FF6806;}
	.st761{fill:#FF5100;}
	.st762{fill:#FF5306;}
	.st763{fill:#FF5D1B;}
	.st764{fill:#8A6965;}
	.st765{fill:#020101;}
	.st766{fill:#1D0A16;}
	.st767{fill:#916E6A;}
	.st768{fill:#2D0F21;}
	.st769{fill:#280E1E;}
	.st770{fill:#240C1B;}
	.st771{fill:#483735;}
	.st772{fill:#331226;}
	.st773{fill:#2F1023;}
	.st774{fill:#2B0F20;}
	.st775{fill:#020001;}
	.st776{fill:#1D1615;}
	.st777{fill:#100C0C;}
	.st778{fill:#461834;}
	.st779{fill:#401630;}
	.st780{fill:#3C152D;}
	.st781{fill:#381329;}
	.st782{fill:#220B19;}
	.st783{fill:#584340;}
	.st784{fill:#7F605D;}
	.st785{fill:#4D1B39;}
	.st786{fill:#471935;}
	.st787{fill:#431731;}
	.st788{fill:#3E162E;}
	.st789{fill:#3A142B;}
	.st790{fill:#341227;}
	.st791{fill:#581F41;}
	.st792{fill:#531D3E;}
	.st793{fill:#4E1B3A;}
	.st794{fill:#491A36;}
	.st795{fill:#451833;}
	.st796{fill:#411730;}
	.st797{fill:#3B152C;}
	.st798{fill:#632249;}
	.st799{fill:#5E2146;}
	.st800{fill:#5A1F43;}
	.st801{fill:#541D3F;}
	.st802{fill:#501C3B;}
	.st803{fill:#4C1A38;}
	.st804{fill:#421731;}
	.st805{fill:#6B2650;}
	.st806{fill:#67244D;}
	.st807{fill:#632349;}
	.st808{fill:#5D2145;}
	.st809{fill:#591F42;}
	.st810{fill:#551E3F;}
	.st811{fill:#501C3C;}
	.st812{fill:#4B1A37;}
	.st813{fill:#762958;}
	.st814{fill:#722855;}
	.st815{fill:#6E2652;}
	.st816{fill:#6A254E;}
	.st817{fill:#64234A;}
	.st818{fill:#5F2147;}
	.st819{fill:#5B2044;}
	.st820{fill:#571E40;}
	.st821{fill:#511C3C;}
	.st822{fill:#4B3937;}
	.st823{fill:#7D2C5D;}
	.st824{fill:#792A5A;}
	.st825{fill:#742957;}
	.st826{fill:#702753;}
	.st827{fill:#6A254F;}
	.st828{fill:#66244C;}
	.st829{fill:#622249;}
	.st830{fill:#5E2145;}
	.st831{fill:#2B201F;}
	.st832{fill:#893066;}
	.st833{fill:#842E62;}
	.st834{fill:#7F2D5F;}
	.st835{fill:#7B2B5B;}
	.st836{fill:#772A58;}
	.st837{fill:#712854;}
	.st838{fill:#6D2651;}
	.st839{fill:#68254E;}
	.st840{fill:#120E0D;}
	.st841{fill:#92336D;}
	.st842{fill:#8D3168;}
	.st843{fill:#883065;}
	.st844{fill:#802D5F;}
	.st845{fill:#7A2B5B;}
	.st846{fill:#762957;}
	.st847{fill:#1B1414;}
	.st848{fill:#993672;}
	.st849{fill:#93346D;}
	.st850{fill:#8F326A;}
	.st851{fill:#8B3167;}
	.st852{fill:#862F64;}
	.st853{fill:#812D60;}
	.st854{fill:#7C2C5C;}
	.st855{fill:#782A59;}
	.st856{fill:#742856;}
	.st857{fill:#322624;}
	.st858{fill:#130F0E;}
	.st859{fill:#9A3672;}
	.st860{fill:#96346F;}
	.st861{fill:#91336C;}
	.st862{fill:#8D3169;}
	.st863{fill:#872F64;}
	.st864{fill:#832E61;}
	.st865{fill:#7F2C5E;}
	.st866{fill:#752957;}
	.st867{fill:#0E0A0A;}
	.st868{fill:#2D2221;}
	.st869{fill:#0A0307;}
	.st870{fill:#3F162F;}
	.st871{fill:#8B6966;}
	.st872{fill:#56413F;}
	.st873{fill:#0D0C0C;}
	.st874{fill:#2E2321;}
	.st875{fill:#110D0D;}
	.st876{fill:#372A28;}
	.st877{fill:#886763;}
	.st878{fill:#EEEEEE;}
	.st879{fill:#CC2E3B;}
	.st880{fill:#983346;}
	.st881{fill:#DD757E;}
	.st882{fill:#575757;}
	.st883{fill:#CE3440;}
	.st884{fill:#7E7E7E;}
	.st885{fill:#DFDFDF;}
	.st886{fill:#B7707E;}
	.st887{fill:#C42230;}
	.st888{fill:#CF3440;}
	.st889{fill:#555555;}
	.st890{fill:#D03D4A;}
	.st891{fill:#F09F9D;}
	.st892{fill:#EDEDED;}
	.st893{fill:#981529;}
	.st894{fill:#CB2735;}
	.st895{fill:#EAA9AE;}
	.st896{fill:#8D8D8D;}
	.st897{fill:#B91F2F;}
	.st898{fill:#DA5B62;}
	.st899{fill:#CD323F;}
	.st900{fill:#A9A9A9;}
	.st901{fill:#991529;}
	.st902{fill:#4A4A4A;}
	.st903{fill:#973043;}
	.st904{fill:#BD202F;}
	.st905{fill:#0C0C0C;}
	.st906{fill:#912539;}
	.st907{fill:#C92331;}
	.st908{fill:#C22130;}
	.st909{fill:#1C1C1C;}
	.st910{fill:#F8F8F8;}
	.st911{fill:#B97582;}
	.st912{fill:#8E1227;}
	.st913{fill:#A6192B;}
	.st914{fill:#B31D2D;}
	.st915{fill:#C45C69;}
	.st916{fill:#E08289;}
	.st917{fill:#373737;}
	.st918{fill:#A0A0A0;}
	.st919{fill:#E9E9E9;}
	.st920{fill:#959595;}
	.st921{fill:#D75E69;}
	.st922{fill:#414141;}
	.st923{fill:#6F6F6F;}
	.st924{fill:#242424;}
	.st925{fill:#BABABA;}
	.st926{fill:#8B8B8B;}
	.st927{fill:#505050;}
	.st928{fill:#606060;}
	.st929{fill:#222222;}
	.st930{fill:#909090;}
	.st931{fill:#29182E;}
	.st932{fill:#B5B5B5;}
	.st933{fill:#E4E4E4;}
	.st934{fill:#888888;}
	.st935{fill:#C0C0C0;}
	.st936{fill:#C6C6C6;}
	.st937{fill:#29192E;}
	.st938{fill:#DADADA;}
	.st939{fill:#C3C3C3;}
	.st940{fill:#9B9B9B;}
	.st941{fill:#060507;}
	.st942{fill:#3D2545;}
	.st943{fill:#060307;}
	.st944{fill:#020202;}
	.st945{fill:#090909;}
	.st946{fill:#A6A6A6;}
	.st947{fill:#D9626C;}
	.st948{fill:#E49299;}
	.st949{fill:#404040;}
	.st950{fill:#A3A3A3;}
	.st951{fill:#E38C93;}
	.st952{fill:#D24753;}
	.st953{fill:#444444;}
	.st954{fill:#472B4F;}
	.st955{fill:#794988;}
	.st956{fill:#D75A65;}
	.st957{fill:#3A0A0E;}
	.st958{fill:#170E1A;}
	.st959{fill:#754683;}
	.st960{fill:#FDDCD8;}
	.st961{fill:#F6B2AE;}
	.st962{fill:#301C35;}
	.st963{fill:#51315B;}
	.st964{fill:#CB2936;}
	.st965{fill:#CA2533;}
	.st966{fill:#9B1529;}
	.st967{fill:#462A4F;}
	.st968{fill:#E27478;}
	.st969{fill:#35203B;}
	.st970{fill:#CD303E;}
	.st971{fill:#9B1629;}
	.st972{fill:#901227;}
	.st973{fill:#CA2735;}
	.st974{fill:#794986;}
	.st975{fill:#160D18;}
	.st976{fill:#E16F73;}
	.st977{fill:#CD313D;}
	.st978{fill:#A54B5C;}
	.st979{fill:#2B1A30;}
	.st980{fill:#170D19;}
	.st981{fill:#170E19;}
	.st982{fill:#B71E2E;}
	.st983{fill:#AD5C6B;}
	.st984{fill:#8F1E32;}
	.st985{fill:#9F172A;}
	.st986{fill:#AA1A2B;}
	.st987{fill:#A8192C;}
	.st988{fill:#331E39;}
	.st989{fill:#B61E2E;}
	.st990{fill:#B36977;}
	.st991{fill:#931328;}
	.st992{fill:#C72331;}
	.st993{fill:#A2182A;}
	.st994{fill:#C02130;}
	.st995{fill:#CC9AA4;}
	.st996{fill:#BC7B87;}
	.st997{fill:#4F2F58;}
	.st998{fill:#080608;}
	.st999{fill:#0E0E0E;}
	.st1000{fill:#6C6C6C;}
	.st1001{fill:#0C070D;}
	.st1002{fill:#484848;}
	.st1003{fill:#121212;}
	.st1004{fill:#E5949B;}
	.st1005{fill:#D5535E;}
	.st1006{fill:#921A24;}
	.st1007{fill:#272727;}
	.st1008{fill:#8E1E32;}
	.st1009{fill:#787878;}
	.st1010{fill:#B46A77;}
	.st1011{fill:#A0172A;}
	.st1012{fill:#8A1126;}
	.st1013{fill:#AF1C2D;}
	.st1014{fill:#848484;}
	.st1015{fill:#9E162A;}
	.st1016{fill:#EE9A98;}
	.st1017{fill:#F9F9F9;}
	.st1018{fill:#D23E49;}
	.st1019{fill:#F0A19F;}
	.st1020{fill:#896864;}
	.st1021{fill:#D13D47;}
	.st1022{fill:#060504;}
	.st1023{fill:#F6F6F6;}
	.st1024{fill:#DF6A6F;}
	.st1025{fill:#0A050B;}
	.st1026{fill:#EA9A9C;}
	.st1027{fill:#FDEAE7;}
	.st1028{fill:#89152B;}
	.st1029{fill:#DD6166;}
	.st1030{fill:#FDEAE8;}
	.st1031{fill:#951428;}
	.st1032{fill:#D9646E;}
	.st1033{fill:#313131;}
	.st1034{fill:#37213E;}
	.st1035{fill:#A4727E;}
	.st1036{fill:#F5ABBC;}
	.st1037{fill:#36262A;}
	.st1038{fill:#DD9AA9;}
	.st1039{fill:#2B1E21;}
	.st1040{fill:#9A6B76;}
	.st1041{fill:#050405;}
	.st1042{fill:#B47E8A;}
	.st1043{fill:#392240;}
	.st1044{fill:#5E3869;}
	.st1045{fill:#442F34;}
	.st1046{fill:#E8A2B2;}
	.st1047{fill:#3A282C;}
	.st1048{fill:#3F2C30;}
	.st1049{fill:#0F0B0C;}
	.st1050{fill:#402D31;}
	.st1051{fill:#BB838F;}
	.st1052{fill:#A16B9E;}
	.st1053{fill:#956098;}
	.st1054{fill:#8B5794;}
	.st1055{fill:#A06B9D;}
	.st1056{fill:#341F39;}
	.st1057{fill:#864B91;}
	.st1058{fill:#8A5694;}
	.st1059{fill:#9B669C;}
	.st1060{fill:#884C94;}
	.st1061{fill:#6A306C;}
	.st1062{fill:#8C4B97;}
	.st1063{fill:#B27BA6;}
	.st1064{fill:#140E0F;}
	.st1065{fill:#F1A8B9;}
	.st1066{fill:#9D49A1;}
	.st1067{fill:#824D90;}
	.st1068{fill:#5A3665;}
	.st1069{fill:#8F5B96;}
	.st1070{fill:#814D90;}
	.st1071{fill:#6D4179;}
	.st1072{fill:#AD77A3;}
	.st1073{fill:#723C7A;}
	.st1074{fill:#854D92;}
	.st1075{fill:#B37DA6;}
	.st1076{fill:#9E49A1;}
	.st1077{fill:#8C4B96;}
	.st1078{fill:#935E98;}
	.st1079{fill:#9E699C;}
	.st1080{fill:#331734;}
	.st1081{fill:#9C49A0;}
	.st1082{fill:#9B49A0;}
	.st1083{fill:#853D87;}
	.st1084{fill:#915C97;}
	.st1085{fill:#9A499F;}
	.st1086{fill:#99649A;}
	.st1087{fill:#98649A;}
	.st1088{fill:#844D91;}
	.st1089{fill:#070307;}
	.st1090{fill:#864C93;}
	.st1091{fill:#B079A4;}
	.st1092{fill:#855292;}
	.st1093{fill:#AF79A4;}
	.st1094{fill:#895593;}
	.st1095{fill:#824F90;}
	.st1096{fill:#AF78A4;}
	.st1097{fill:#AA74A2;}
	.st1098{fill:#864D93;}
	.st1099{fill:#9E48A1;}
	.st1100{fill:#98469B;}
	.st1101{fill:#824D91;}
	.st1102{fill:#8E4B98;}
	.st1103{fill:#956099;}
	.st1104{fill:#834D91;}
	.st1105{fill:#B37CA6;}
	.st1106{fill:#9C479F;}
	.st1107{fill:#9B499F;}
	.st1108{fill:#B47DA6;}
	.st1109{fill:#301631;}
	.st1110{fill:#251126;}
	.st1111{fill:#AD76A3;}
	.st1112{fill:#AB75A2;}
	.st1113{fill:#040304;}
	.st1114{fill:#9D49A0;}
	.st1115{fill:#9C679C;}
	.st1116{fill:#905C97;}
	.st1117{fill:#8D4B97;}
	.st1118{fill:#8B4B95;}
	.st1119{fill:#885492;}
	.st1120{fill:#D18EAE;}
	.st1121{fill:#885392;}
	.st1122{fill:#975F98;}
	.st1123{fill:#965F98;}
	.st1124{fill:#734681;}
	.st1125{fill:#D3D3D3;}
	.st1126{fill:#654D4A;}
	.st1127{fill:#545454;}
	.st1128{fill:#674E4B;}
	.st1129{fill:#2D1B33;}
	.st1130{fill:#F0F0F0;}
	.st1131{fill:#5E3969;}
	.st1132{fill:#3B3B3B;}
	.st1133{fill:#878787;}
	.st1134{fill:#3E2546;}
	.st1135{fill:#C887AB;}
	.st1136{fill:#FBFBFB;}
	.st1137{fill:#835091;}
	.st1138{fill:#E9A1B8;}
	.st1139{fill:#856561;}
	.st1140{fill:#9E9E9E;}
	.st1141{fill:#DCDCDC;}
	.st1142{fill:#818181;}
	.st1143{fill:#6B6B6B;}
	.st1144{fill:#D4D4D4;}
	.st1145{fill:#A1A1A1;}
	.st1146{fill:#969696;}
	.st1147{fill:#2B2B2B;}
	.st1148{fill:#43284B;}
	.st1149{fill:#3E2646;}
	.st1150{fill:#422749;}
	.st1151{fill:#472A4F;}
	.st1152{fill:#5C3867;}
	.st1153{fill:#39223F;}
	.st1154{fill:#4D4D4D;}
	.st1155{fill:#563360;}
	.st1156{fill:#633C6E;}
	.st1157{fill:#0B070C;}
	.st1158{fill:#38223E;}
	.st1159{fill:#402748;}
	.st1160{fill:#44294D;}
	.st1161{fill:#3B2442;}
	.st1162{fill:#72447F;}
	.st1163{fill:#535353;}
	.st1164{fill:#4D2F57;}
	.st1165{fill:#3F2647;}
	.st1166{fill:#784986;}
	.st1167{fill:#4E2F57;}
	.st1168{fill:#060506;}
	.st1169{fill:#663E72;}
	.st1170{fill:#301D35;}
	.st1171{fill:#1D1120;}
	.st1172{fill:#262626;}
	.st1173{fill:#181818;}
	.st1174{fill:#4A2C52;}
	.st1175{fill:#F5F5F5;}
	.st1176{fill:#949494;}
	.st1177{fill:#C9C9C9;}
	.st1178{fill:#603A6C;}
	.st1179{fill:#E1E1E1;}
	.st1180{fill:#1F1F1F;}
	.st1181{fill:#643D70;}
	.st1182{fill:#FEFEFE;}
	.st1183{fill:#3C2444;}
	.st1184{fill:#29182D;}
	.st1185{fill:#50305A;}
	.st1186{fill:#5C5C5C;}
	.st1187{fill:#585858;}
	.st1188{fill:#3A2240;}
	.st1189{fill:#B6B6B6;}
	.st1190{fill:#0C0B0D;}
	.st1191{fill:#3C2442;}
	.st1192{fill:#111111;}
	.st1193{fill:#FCFCFC;}
	.st1194{fill:#876662;}
	.st1195{fill:#AFAFAF;}
	.st1196{fill:#E2E2E2;}
	.st1197{fill:#080708;}
	.st1198{fill:#120209;}
	.st1199{fill:#34061A;}
	.st1200{fill:#1B030E;}
	.st1201{fill:#2C2C2C;}
	.st1202{fill:#110C1E;}
	.st1203{fill:#010102;}
	.st1204{fill:#0A0711;}
	.st1205{fill:#120D20;}
	.st1206{fill:#0B0A0B;}
	.st1207{fill:#140E22;}
	.st1208{fill:#0C0916;}
	.st1209{fill:#0A0712;}
	.st1210{fill:#060606;}
	.st1211{fill:#161026;}
	.st1212{fill:#39061D;}
	.st1213{fill:#38061C;}
	.st1214{fill:#36061B;}
	.st1215{fill:#130E21;}
	.st1216{fill:#161027;}
	.st1217{fill:#18112A;}
	.st1218{fill:#181129;}
	.st1219{fill:#07050D;}
	.st1220{fill:#0D0917;}
	.st1221{fill:#020103;}
	.st1222{fill:#020203;}
	.st1223{fill:#160F26;}
	.st1224{fill:#100C1C;}
	.st1225{fill:#0A0810;}
	.st1226{fill:#050309;}
	.st1227{fill:#19122B;}
	.st1228{fill:#150F24;}
	.st1229{fill:#100B1C;}
	.st1230{fill:#090710;}
	.st1231{fill:#160F25;}
	.st1232{fill:#140E23;}
	.st1233{fill:#292140;}
	.st1234{fill:#0A0713;}
	.st1235{fill:#3B3A35;}
	.st1236{fill:#A5A295;}
	.st1237{fill:#040404;}
	.st1238{fill:#150F25;}
	.st1239{fill:#0E0A19;}
	.st1240{fill:#06040B;}
	.st1241{fill:#211A32;}
	.st1242{fill:#2B2B27;}
	.st1243{fill:#A9A799;}
	.st1244{fill:#171129;}
	.st1245{fill:#130D21;}
	.st1246{fill:#030206;}
	.st1247{fill:#140F1F;}
	.st1248{fill:#020204;}
	.st1249{fill:#362A53;}
	.st1250{fill:#0F0B1B;}
	.st1251{fill:#605F57;}
	.st1252{fill:#D9D6C4;}
	.st1253{fill:#A9A798;}
	.st1254{fill:#171128;}
	.st1255{fill:#000001;}
	.st1256{fill:#3A2E59;}
	.st1257{fill:#2E2446;}
	.st1258{fill:#DBD8C6;}
	.st1259{fill:#C8C5B4;}
	.st1260{fill:#100B1B;}
	.st1261{fill:#030205;}
	.st1262{fill:#33284E;}
	.st1263{fill:#2D2446;}
	.st1264{fill:#60213F;}
	.st1265{fill:#D95694;}
	.st1266{fill:#DEB0B8;}
	.st1267{fill:#BFBDAC;}
	.st1268{fill:#050504;}
	.st1269{fill:#392D58;}
	.st1270{fill:#372C55;}
	.st1271{fill:#352A51;}
	.st1272{fill:#241C37;}
	.st1273{fill:#DA679B;}
	.st1274{fill:#DB80A5;}
	.st1275{fill:#D95292;}
	.st1276{fill:#DB7DA4;}
	.st1277{fill:#06050A;}
	.st1278{fill:#D54A8D;}
	.st1279{fill:#A23266;}
	.st1280{fill:#7B2148;}
	.st1281{fill:#A7356A;}
	.st1282{fill:#E0D8C8;}
	.st1283{fill:#1B1529;}
	.st1284{fill:#807E75;}
	.st1285{fill:#DD99AF;}
	.st1286{fill:#31282B;}
	.st1287{fill:#060206;}
	.st1288{fill:#040307;}
	.st1289{fill:#BCB9AA;}
	.st1290{fill:#8F8D82;}
	.st1291{fill:#DB83A6;}
	.st1292{fill:#DDA4B3;}
	.st1293{fill:#382C56;}
	.st1294{fill:#DEDBC8;}
	.st1295{fill:#A19E91;}
	.st1296{fill:#362B53;}
	.st1297{fill:#382C55;}
	.st1298{fill:#221B35;}
	.st1299{fill:#0E0B15;}
	.st1300{fill:#0E0918;}
	.st1301{fill:#4E4D48;}
	.st1302{fill:#727168;}
	.st1303{fill:#2A2927;}
	.st1304{fill:#4D4C47;}
	.st1305{fill:#353430;}
	.st1306{fill:#2A2140;}
	.st1307{fill:#130D20;}
	.st1308{fill:#282828;}
	.st1309{fill:#362B54;}
	.st1310{fill:#0C0915;}
	.st1311{fill:#D0CDBB;}
	.st1312{fill:#0B0B0C;}
	.st1313{fill:#2B2242;}
	.st1314{fill:#08060C;}
	.st1315{fill:#020104;}
	.st1316{fill:#07050C;}
	.st1317{fill:#DDDAC7;}
	.st1318{fill:#3F3E39;}
	.st1319{fill:#352A52;}
	.st1320{fill:#130F1D;}
	.st1321{fill:#050308;}
	.st1322{fill:#130E22;}
	.st1323{fill:#171028;}
	.st1324{fill:#8C8A7E;}
	.st1325{fill:#181224;}
	.st1326{fill:#4B4B4B;}
	.st1327{fill:#ABA89A;}
	.st1328{fill:#191427;}
	.st1329{fill:#E0DDCA;}
	.st1330{fill:#161614;}
	.st1331{fill:#33284F;}
	.st1332{fill:#161123;}
	.st1333{fill:#31302C;}
	.st1334{fill:#68675E;}
	.st1335{fill:#CAC7B6;}
	.st1336{fill:#D8D5C3;}
	.st1337{fill:#8E8C80;}
	.st1338{fill:#2D2D29;}
	.st1339{fill:#110C1D;}
	.st1340{fill:#06040C;}
	.st1341{fill:#110D1A;}
	.st1342{fill:#626158;}
	.st1343{fill:#A19F91;}
	.st1344{fill:#0F0A1A;}
	.st1345{fill:#807E73;}
	.st1346{fill:#171224;}
	.st1347{fill:#0F0C17;}
	.st1348{fill:#050307;}
	.st1349{fill:#32284D;}
	.st1350{fill:#0A070F;}
	.st1351{fill:#342950;}
	.st1352{fill:#0B0811;}
	.st1353{fill:#08060F;}
	.st1354{fill:#281F3D;}
	.st1355{fill:#1A1428;}
	.st1356{fill:#06040A;}
	.st1357{fill:#392D57;}
	.st1358{fill:#2C2344;}
	.st1359{fill:#1B152A;}
	.st1360{fill:#2C2243;}
	.st1361{fill:#261E3B;}
	.st1362{fill:#030204;}
	.st1363{fill:#110C1F;}
	.st1364{fill:#171027;}
	.st1365{fill:#0E0B16;}
	.st1366{fill:#1D172C;}
	.st1367{fill:#010002;}
	.st1368{fill:#201932;}
	.st1369{fill:#120D1F;}
	.st1370{fill:#31274C;}
	.st1371{fill:#0E0A18;}
	.st1372{fill:#474747;}
	.st1373{fill:#1A1528;}
	.st1374{fill:#211A33;}
	.st1375{fill:#090610;}
</style>
<g id="_x37_">
	<g>
		<g>
			<g>
				<path class="st0" d="M121.2066803,56.1222076c-0.695343-6.8733521-2.1499786-29.3928223,11.9055176-45.1654053
					c2.8775177-3.2290645,7.3462067-8.1055908,14.7401581-9.6377563
					c10.8294067-2.2440796,19.8058014,4.3703613,21.7322845,5.8582764
					c4.9334869-3.9359133,9.2840729-5.4044189,12.0944824-6.0472412
					c10.9204407-2.4978638,16.9658813,3.2666018,32.1259918,2.8345947
					c7.7321777-0.2203369,6.6164551-1.7329102,12.4724274-1.7007446
					c15.3000183,0.0840454,28.0682068,10.4376831,41.7638092,21.5432739
					c6.7359314,5.4620972,13.5130005,11.8289185,24.1889648,12.8504028c2.454895,0.2348633,4.5028687,0.128479,5.8582458,0
					c8.5649719-3.7805176,14.2806091-2.6710815,17.0078735-1.7952881
					c2.5380554,0.8150635,3.8829956,1.8757324,19.7480469,20.9763794c5.7466125,6.9185791,7.0296326,8.5365601,7.7952576,11.6220703
					c1.1101074,4.4738159,0.2080994,8.307373,3.2598572,11.1495972c1.4725037,1.3713989,3.6467285,2.3082275,3.5433044,3.8740234
					c-0.071106,1.076355-1.1743164,1.7799072-1.2755737,1.8425293c-1.3740234,0.8499756-2.9747925,0.1911621-6.5905762-0.9212646
					c-1.2623291-0.3883667-3.2362976-0.9754028-5.7401428-1.6299438c-0.929657,1.0300903-2.3768616,2.4599609-4.3937073,3.8267822
					c-2.7869263,1.8886719-6.4687195,4.3838501-9.8530579,3.1329956c-0.7172546-0.2650757-2.4092712-1.0636597-3.7532349-3.6999512
					c-2.8668213,1.3893433-5.9897461,1.3303223-8.0787354-0.2834473c-0.9495239-0.7335205-1.5096741-1.6524658-1.8425293-2.4094238
					c-0.7260742,2.1710205-2.1760864,5.4141235-5.2440796,7.7952881c-4.081665,3.1679077-6.9200134,1.6225586-17.0078735,3.6849976
					c-8.3086548,1.6986694-10.3001099,3.5477905-16.2992249,3.118103c-3.3247986-0.2380981-6.014679-1.0425415-7.7952576-1.7007446
					c-13.7009888,3.7238159-25.3422241,5.8313599-34.1575012,7.0866089
					c-21.8560944,3.1121216-18.6988678-0.1032715-26.2677155,1.7007446
					c-1.5887909,0.3786621-6.4528198,1.6465454-10.2992096-0.8503418c-1.0883484-0.7064819-1.8198395-1.5356445-2.2677155-2.1260376
					c-6.3201752,0.3884277-14.7276306,0.1834717-24.2362213-2.1259766
					c-4.8618317-1.1808472-9.1286316-2.6973877-12.7559052-4.2519531c-0.4073181,0.2247925-0.9294128,0.4625244-1.5590515,0.6378174
					c-1.1613617,0.3233032-2.1741333,0.2910156-2.8346558,0.2125854c-0.1304779,0.2625122-1.2720032,2.4663086-3.7559052,2.9055176
					c-1.5236359,0.2694092-2.7398834-0.2687988-3.1889648-0.4960938c-1.2440948,2.2593384-3.5805817,3.6789551-6.0944977,3.6850586
					c-3.3293304,0.0081177-5.2994995-2.467041-5.5275574-2.7637939c-1.2682724,0.6257935-2.9272995,1.1977539-4.8897629,1.2756348
					c-7.1608734,0.2841187-11.8802414-6.2681274-12.4015808-7.0157471c-1.5434036,0.0976562-3.2168045-0.008667-3.6850357-0.9212646
					c-0.5874634-1.1450195,1.1623154-2.7015991,2.4803162-5.5275879c1.4176102-3.0396118,1.374321-5.4863892,1.5590515-7.1574707
					C112.0692978,76.0497589,114.1355667,69.5141754,121.2066803,56.1222076z"/>
				<path class="st0" d="M188.576767,101.0512848c4.7546997-0.4678955,12.1471863-1.8656006,19.842514-6.3779297
					c3.4338074-2.0134888,6.1987457-4.2195435,8.3622131-6.2362061c-0.2216034-2.1403809-0.24823-5.4241943,1.1810913-8.881897
					c1.5310669-3.7037964,4.0442505-5.9416504,10.3937073-10.5827026
					c8.6861572-6.3490601,13.0292511-9.5236206,15.2126007-10.1574707
					c1.358429-0.3943481,14.7819061-4.0710449,22.8188934,4.3937378c4.980835,5.2459717,4.9643555,12.0707397,4.9606323,13.6062622
					c-0.0265198,10.9865723-8.673645,17.6071777-9.7795105,18.4252319"/>
				<path class="st0" d="M216.7814941,88.437149c1.066452,0.2376709,2.4654236,0.6687622,3.9684906,1.4881592
					c2.1555634,1.1751099,3.5883789,2.6380615,4.4291382,3.6495972"/>
				<path class="st0" d="M223.5137634,98.7127228c0.8799896-0.1849365,6.641449-1.4868164,8.7165375-6.3779297
					c0.4596405-1.0834351,0.6568451-2.1506348,0.7086639-3.118103"/>
				<path class="st0" d="M253.6318817,90.8465729c1.3821716-0.4271851,4.9973907-1.7537231,7.5118256-5.3858032
					c1.124176-1.6239014,1.6872559-3.2159424,1.9842529-4.3937378"/>
				<path class="st0" d="M121.2066803,56.1222076c1.448822-0.0629883,2.8976364-0.1260376,4.3464584-0.1890259
					c-0.2935791,1.8956299-0.5976486,5.6131592,0.9448853,9.8267822c0.9729309,2.6576538,2.3485031,4.605835,3.4015732,5.8582764
					c3.5036011,2.6208496,6.3043671,5.0271606,8.3622131,6.897644c7.828186,7.1153564,10.8303986,11.8612061,11.6446838,13.1883545
					c0.747818,1.218811,1.310318,2.2597046,1.6781464,2.9691162"/>
				<path class="st0" d="M114.9704666,80.4056549c0.4691467-1.296936,1.6600418-4.0195312,4.4409409-6.2362061
					c4.2075958-3.3538818,8.9726562-3.0925903,10.1244812-2.9974976"/>
				<path class="st0" d="M109.1088257,88.5473785c0.5695038-0.7366943,1.7177582-2.0186157,3.5939178-2.9448853
					c1.5651398-0.7727051,2.9941177-0.9805298,3.8740158-1.0393677"/>
				<path class="st0" d="M136.7361908,77.1549835c-0.7869263-0.3761597-2.0684357-0.869873-3.7184753-1.0012817
					c-1.4269409-0.1135864-2.609314,0.0852051-3.4015808,0.2834473"/>
				<path class="st0" d="M129.5452728,80.2166901c1.6273041-0.3250122,4.0925293-0.6089478,7.0157471-0.1417847
					c1.9950409,0.3188477,3.6385956,0.8972168,4.8661499,1.4397583"/>
				<path class="st0" d="M128.6240082,98.8544464c-0.805542-0.7698364-1.4361496-1.460083-1.8897629-1.9842529
					c-1.7853012-2.0629883-1.8467941-2.7288818-1.7695694-3.1541138c0.0651169-0.3586426,0.2404556-0.5863037,0.5884628-1.0269775
					c0.4593811-0.5817261,1.2753677-1.4398193,2.645668-2.1732178"/>
				<path class="st0" d="M140.2460632,97.9331818c-0.0741119-0.4257812-0.2326965-1.0327148-0.6141815-1.6535034
					c-0.8617859-1.4023438-2.165451-1.7432861-3.4960632-2.5984497c-0.9004974-0.5787354-2.0565491-1.5493164-3.118103-3.2598267"/>
				<path class="st0" d="M147.1909332,95.5237579c0.0096588-0.2832642-0.0082855-0.5509644-0.0472412-0.8031616
					c-0.5049744-3.2703857-4.7001343-4.9821167-5.6929169-5.3621826c-0.0547028-0.3844604-0.1658478-0.8874512-0.4015656-1.440979
					c-0.2897797-0.6804199-0.6591492-1.1820068-0.9448853-1.5117798"/>
				<path class="st0" d="M126.3099747,96.3668976c-0.0898209-0.0480347-1.260643-0.6486816-2.3985672-0.0281982
					c-0.927681,0.5058594-1.4384842,1.6078491-1.2401581,2.7283325"/>
				<path class="st0" d="M123.7342453,87.3741608c0.3517151-0.598999,2.1494141-3.5206299,5.6692886-4.2519531
					c1.4629364-0.3039551,2.7247162-0.1259766,3.5433044,0.0708618"/>
				<path class="st0" d="M194.2981415,104.4987946c2.0990448-1.1633301,4.8039551-2.4214478,8.0738983-3.4002686
					c2.5182953-0.7537842,4.8267822-1.178833,6.8031464-1.4172974c0.3378754,0.3391113,0.9606628,0.8748169,1.8897705,1.2283325
					c1.1932068,0.4540405,2.2430115,0.3607788,2.7401581,0.2835083"/>
				<path class="st0" d="M212.7103119,91.8313751c0.7660522,0.2352295,1.7695923,0.6315308,2.8310242,1.3183594
					c0.8087463,0.5233154,1.440155,1.0787964,1.9133759,1.559082"/>
				<path class="st0" d="M125.8890305,63.7625885c4.3525009,2.6051025,10.4016647,5.7285767,17.9948196,8.2335815
					c12.0761719,3.9839478,21.9025726,4.3728638,24.4724426,4.440979c16.37323,0.4337769,29.4968262-4.4382324,37.2283478-8.1259766
					"/>
				<path class="st0" d="M130.9200134,66.5584869c3.4291382,4.2190552,10.0354309,11.2044678,20.5228882,16.303833
					c12.9835815,6.3131104,24.8854065,6.3171387,30.5196838,5.9527588"/>
				<path class="st0" d="M229.5846405,46.9568024c1.3070068,0.3112793,3.3773956,0.7623901,5.9527588,1.1338501
					c5.192215,0.7488403,7.7710114,0.5008545,8.0314941,1.4173584c0.3023224,1.0637817-2.8630219,2.4841309-5.3858337,4.3464355
					c-3.1442871,2.321106-6.8837433,6.5048218-9.2282257,14.680603"/>
				<path class="st0" d="M246.4743958,55.6261139c2.3846283-3.7199097,3.8359833-3.8666992,4.4645691-3.7559204
					c0.4431152,0.078125,0.6883392,0.3214111,1.9842529,1.2047119c1.1640167,0.793396,2.134964,1.3937378,2.7637787,1.7716675"/>
				<path class="st0" d="M257.3877869,54.421402c1.365509-0.3382568,3.412262-0.6077881,5.3858337,0.2834473
					c2.6198425,1.1831055,2.3453064,3.1629028,5.3858337,5.2440796c2.9476013,2.0175781,4.6499634,1.1455688,6.0944824,3.2598877
					c0.3569031,0.5223999,0.7388611,1.6782227,1.4881897,3.9685059c0.5001221,1.5285645,0.8799133,2.803833,1.1338501,3.6849976"/>
				<path class="st0" d="M227.316925,30.9882965c3.4437714-0.6165161,5.2810516,0.1127319,6.3307037,0.9448853
					c0.6813507,0.5401611,0.9304352,1.0441284,2.173233,2.5512085c1.276062,1.5474243,2.4233093,2.725769,3.2126007,3.4960327"/>
				<path class="st0" d="M205.7891541,3.6070702c3.2107849,0.5910647,4.5525818,1.8141482,5.1813049,2.8379519
					c0.5183563,0.8440552,0.7425079,1.8627925,1.8425293,3.2598262c0.6579132,0.8355713,1.3222046,1.416626,1.7716522,1.7716675"/>
				<path class="st0" d="M210.970459,6.4450221c1.6815948,0.5170898,2.8696136,0.3554077,3.6378021,0.118103
					c1.0247192-0.3165283,1.5167847-0.8338623,3.4960632-2.0787354c0.9896851-0.6224368,1.8179169-1.0914309,2.3502045-1.3839114"/>
				<path class="st0" d="M218.246048,11.2403097c2.532486,0.4191895,4.2086334-0.0402832,5.2913513-0.5669556
					c1.051651-0.5115967,1.6088867-1.1183472,3.3070831-1.9842529c1.2226105-0.6234131,2.2940521-1.0024409,3.0236206-1.228332"/>
				<path class="st0" d="M226.0885773,15.9646749c2.6458588-2.2768555,6.5611115-5.069519,11.8110199-7.0866089
					c2.3081665-0.8868403,4.4771576-1.4711299,6.4099121-1.8595576"/>
				<path class="st0" d="M233.1751862,27.303299c3.4875336-1.6081543,6.4058838-2.7033081,8.4094543-3.4016113
					c4.8186493-1.6795044,7.0930939-2.0214844,10.4527588-3.8504028c2.7125854-1.4766846,4.6728363-3.1280518,5.8806915-4.2619028"
					/>
				<path class="st0" d="M249.3799133,28.0591583c2.2624207-1.289917,4.2177124-2.2496948,5.6965637-2.9293823
					c2.0428467-0.9389038,2.97995-1.2528687,4.1538391-1.1808472c1.6190796,0.0993652,2.8520508,0.8818359,3.5433044,1.4173584"/>
				<path class="st0" d="M244.7027435,33.5158844c0.9590912-0.2876587,2.4573975-0.7338257,4.3228302-1.2755737
					c2.458847-0.7140503,3.0943756-0.8793945,4.0393829-0.7086792c1.2681427,0.2290649,2.3353424,0.9262695,2.8927307,1.2904053
					c0.730545,0.4772949,1.2758942,0.9663086,1.6427155,1.331665"/>
				<path class="st0" d="M261.2854309,30.3269196c0.5866394-0.4955444,1.5069885-1.1688843,2.7637939-1.7008057
					c1.0397644-0.4400635,1.9467773-0.8239746,3.0472412-0.7086792c1.9137878,0.2005005,3.1236877,1.7756348,3.4724426,2.2677612"/>
				<path class="st0" d="M247.0649567,38.5473785c0.8808746-0.1928711,2.2287445-0.3752441,3.839859-0.151062
					c1.1925964,0.1659546,2.1647797,0.5039673,2.8687897,0.8125"/>
				<path class="st0" d="M251.576767,46.7678375c1.8458099-0.4108887,4.9003143-0.8452759,8.5748138-0.2125854
					c4.3900146,0.7559204,7.517395,2.6651611,9.1417236,3.8267822"/>
				<path class="st0" d="M270.2854309,53.8544464c2.2983093,0.1171265,3.4985657,0.9242554,4.1102295,1.4882202
					c0.3805237,0.3508301,0.9439087,1.1362915,2.0551147,2.6928711c0.569397,0.7976074,1.0326538,1.4608765,1.3464661,1.9133911"/>
				<path class="st0" d="M267.7578735,43.5552521c2.5480957,1.0709229,7.322937,3.3956299,10.8661499,7.4645386
					c1.8855286,2.1652832,2.4841614,3.7471924,2.7401428,5.0078735c0.3877258,1.9093628,0.0840759,3.5476685-0.1889648,4.5354614
					c0.6040039,0.8845825,1.3699951,2.2702026,1.6062927,4.0629883c0.2814026,2.1347656-0.4503479,2.8580933-0.6614075,6.1417236
					c-0.1910095,2.9716187,0.3504944,3.2789307,0,5.102356c-0.299408,1.5576782-1.0961304,3.4224854-3.0236206,5.3858643"/>
				<path class="st0" d="M276.5925293,43.2245636c2.7288513,3.9364624,5.4780273,6.4752197,7.5118103,8.0787354
					c3.5604858,2.8071899,5.1269836,2.90448,6.6614075,5.5275269c1.5611877,2.6688232,0.9789429,4.3450317,3.2598267,7.2283325
					c1.3149719,1.6622925,2.0595398,1.8017578,2.4094543,3.1181641c0.5378113,2.0233154-0.9487,2.718811-1.2755737,5.9527588
					c-0.271759,2.6883545,0.6363831,3.3864136,0,5.5275269c-0.4434204,1.4918213-1.3053284,2.5696411-1.9842529,3.2598267"/>
				<path class="st0" d="M286.8444824,64.437149c2.3660583,2.0367432,2.8968506,3.7276611,2.9291382,4.9133911
					c0.0357971,1.3151855-0.5452881,1.8780518-0.2834778,3.4960327c0.2790222,1.7243652,1.0944214,2.045166,1.1338806,3.4016113
					c0.0340271,1.1698608-0.5433044,1.9337769-1.5118103,3.4015503c-0.8321228,1.2610474-1.9880066,3.0946655-3.3070984,5.4803467"
					/>
				<path class="st0" d="M287.1279602,44.878067c2.8484802,1.7953491,6.1507568,4.2609863,8.8818665,7.3701172
					c1.2932129,1.472168,1.96521,2.5272217,2.1732483,3.8740234c0.3437805,2.2253418-0.9220581,3.0270386-0.5669556,4.9133301
					c0.4652405,2.4711914,2.8392944,2.1651611,4.0630188,4.8189087c1.1932373,2.5875854-0.6574707,3.7599487,0,8.881897
					c0.3182678,2.4794312,0.8112488,2.666626,0.7558899,4.1574707c-0.1217957,3.2796631-2.6359253,5.8302002-4.7243958,7.4645996"/>
				<path class="st0" d="M307.9153442,82.3426666c0.782135-2.2819824,2.6672974-8.7996826-0.1417236-15.8031616
					c-0.9843445-2.4542236-2.2991028-4.3546753-3.4724426-5.7401733"/>
				<path class="st0" d="M309.2337036,75.4875031c0.9764709,0.9577637,2.2098389,2.0281982,3.7236328,3.0736084
					c1.4505005,1.0016479,2.8293457,1.7530518,4.0288696,2.3169556"/>
				<path class="st0" d="M300.0728149,40.6261139c2.0149231,1.4381714,3.5499878,2.2987061,4.6299438,2.8346558
					c0.3586426,0.1779785,0.8816223,0.4266357,1.2755737,0.9921265c0.7554321,1.0844116,0.476532,2.5302124,0.2362366,3.3543091"/>
				<path class="st0" d="M309.1200562,48.3269196c0.7515869,0.1234131,2.1614685,0.3533936,3.9685059,0.6377563
					c2.3453674,0.3690796,2.8858948,0.4404907,3.4724426,0.8504028c0.4840088,0.3382568,1.7211914,1.4115601,1.7716675,4.6063232"/>
				<path class="st0" d="M309.9456482,34.0115509c0.7774353,0.5701904,2.0684814,1.6802979,3.0248108,3.49646
					c1.4082031,2.6744385,1.2132263,5.2137451,1.0866089,6.1889648"/>
				<path class="st0" d="M324.0246277,42.9953766c-0.493866,1.1591187-0.9981995,2.6796265-1.2510071,4.5047607
					c-0.1275024,0.9204712-0.1704712,1.7701416-0.1653748,2.5275269"/>
				<path class="st0" d="M317.8366089,85.0355377c1.7841797-1.0186768,4.3208313-2.4747925,7.3700867-4.2519531
					c3.8270264-2.2304688,4.462738-2.6361694,5.1376343-3.2839966c1.3987427-1.3425903,3.730072-4.4586792,3.3663025-11.6687622"/>
				<path class="st0" d="M328.2937927,78.9608307c1.0343018-2.9423828,1.4658203-5.4916382,1.6609192-7.3189697
					c0.2506714-2.3480225,0.5110779-5.0059814-0.2834473-8.2913208c-0.5921936-2.4486084-1.5475464-4.3243408-2.2677307-5.5275879"
					/>
				<path class="st0" d="M324.2145691,59.2875519c1.1143494,1.2672119,2.3609314,2.8818359,3.5433044,4.8661499
					c1.0716248,1.7984619,1.8476868,3.493042,2.4141541,4.9584351"/>
				<path class="st0" d="M330.5301819,50.6621857c-0.022583,1.7891846,0.1716614,4.2896118,1.1489563,7.0662842
					c0.4511414,1.2817383,0.9856262,2.3851318,1.5118103,3.3070679"/>
				<path class="st0" d="M335.8366089,81.7757111c0.4233093-0.4683838,0.8696594-1.046936,1.2755737-1.7480469
					c1.1959534-2.0657349,1.4022522-4.0925293,1.4173279-5.2913208"/>
				<path class="st0" d="M340.9724121,83.2213898c-0.1764832-0.3526001-0.3484802-0.7400513-0.5058899-1.1622314
					c-0.4398804-1.1797485-0.6317444-2.270752-0.7086487-3.1653442"/>
				<path class="st0" d="M169.5846405,7.1773219c-1.3582458,1.9674678-2.9505157,4.8372798-3.826767,8.5511475
					c-0.2987518,1.2661753-0.4732971,2.4568491-0.5669403,3.5433359"/>
			</g>
			<g>
				<path class="st0" d="M135.0491333,48.9379425c-1.0087738,0.2055054-8.9054184,1.6872559-14.2100983-3.4551392
					c-2.8276978-2.7412109-3.53582-6.0255127-3.9788055-8.0692749c-1.5762329-7.2722168,0.8754883-15.6342163,6.8031464-20.6929321
					c1.5214005-1.2984018,3.5447464-3.0250864,6.6614227-3.6850595c6.3394928-1.3424072,9.1054688,3.5292368,19.4173279,6.3779917
					c7.5144958,2.0759277,13.4716949,1.5495605,14.8568573,1.4076538
					c6.8942413-0.7062988,10.5651398-3.1622925,14.9069061-4.8092651
					c5.9157715-2.2440805,15.0256653-3.7255869,28.6299286,0.2835083"/>
				<path class="st1" d="M163.4935608,36.9925079c0.1599731,1.539978-1.210022,2.789978-1.4200439,2.9699707
					c-2.2199707,0.9099731-5.3800049,2.0900269-9.2799683,3.1199951c-3.4000244,0.9000244-7.4500122,1.9700317-11.8200073,2.2999878
					c-1.460022,0.1100464-2.960022,0.1300049-4.4799805,0.0400391c-2.5100098-0.1500244-7.6200562-0.7800293-13.710022-4.0900269
					c-1.8900146-1.0200195-3.8800049-2.3099976-5.9199829-3.9199829c-0.3699951-1.7800293-0.6799927-4.4000244-0.25-7.5100098
					c0.289978-2.0700073,0.8299561-3.7999878,1.3599854-5.1300049c2.5999756-0.2000122,6.6599731-0.210022,11.2199707,1.2299805
					c5.8900146,1.8600464,7.9100342,4.6600342,12.9000244,6.6600342c3.3099976,1.3300171,8.5200195,2.5599976,16.1500244,1.1400146
					C161.1035461,33.5024567,163.3035583,35.2024689,163.4935608,36.9925079z"/>
				<path class="st1" d="M209.6435242,25.032486c-1.5999756,1.6199951-4.0299683,3.9500122-7.1799927,6.5200195
					c-3.6799927,3.0099487-6.8900146,5.6399536-10.2399902,7.6999512
					c-3.0800171,1.9100342-6.2800293,3.3200073-10.0700073,4.1100464
					c-1.0700073,0.2199707-7.5599976,1.4899902-15.0300293-0.8500366c-0.1599731-0.0499878-0.3299561-0.0999756-0.5-0.1499634
					c-0.0099487-0.0100098-0.0099487-0.0100098-0.0099487-0.0100098c-3-0.9500122-6.6600342-2.3200073-7.9000244-5.6000366
					c-0.6500244-1.7399902-0.75-4.3800049,0.6699829-5.8599854c1.1100464-1.1599731,2.7800293-1.210022,3.3000488-1.2299805
					c7.9699707-0.4100342,18.0699463-9.6600342,31.4199829-9.3400269
					C197.6435242,20.4124908,203.0635071,21.2124786,209.6435242,25.032486z"/>
				<path d="M140.9735413,45.3824615c-1.460022,0.1100464-2.960022,0.1300049-4.4799805,0.0400391
					c-2.5100098-0.1500244-7.6200562-0.7800293-13.710022-4.0900269
					c-0.1400146-6.4199829,1.4000244-11.0599976,4.0899658-11.8599854c1-0.2900391,2.0200195-0.0200195,3.2200317,0.5700073
					C136.5935364,33.2724762,139.9135437,42.1924591,140.9735413,45.3824615z"/>
				<path class="st2" d="M125.6476288,37.4607697c-0.3672714,0.9042969,0.182663,1.9516602,0.9921265,2.3621826
					c1.0213699,0.5180054,2.4122925,0.0001221,2.7401581-0.9448853c0.3686981-1.0626221-0.6914215-2.4216309-1.8897629-2.5039062
					C126.7944717,36.3263702,125.9556808,36.7022858,125.6476288,37.4607697z"/>
				<path class="st2" d="M129.7229309,33.0584373c-0.238266,0.5866623,0.1184998,1.26614,0.6436462,1.5324669
					c0.6626129,0.3360558,1.5649567,0.0000763,1.7776642-0.6129951c0.2391968-0.6893768-0.4485626-1.5710335-1.2259827-1.6244087
					C130.4669495,32.3224983,129.9227753,32.5663719,129.7229309,33.0584373z"/>
				<path d="M192.2235413,39.2524567c-3.0800171,1.9100342-6.2800293,3.3200073-10.0700073,4.1100464
					c-1.0700073,0.2199707-7.5599976,1.4899902-15.0300293-0.8500366c-0.1599731-0.0499878-0.3299561-0.0999756-0.5-0.1499634
					c-0.0099487-0.0100098-0.0099487-0.0100098-0.0099487-0.0100098c-0.1799927-0.8599854-1.1500244-6.1400146,2.1900024-9.9700317
					c2.2799683-2.6099854,5.2699585-3.0799561,8.6499634-3.6099854c3.2300415-0.5200195,11.4299927-1.8099976,14.3800049,2.8300171
					C192.2135315,32.1924591,193.6535339,34.6725006,192.2235413,39.2524567z"/>
				<path class="st2" d="M181.6653137,32.799118c-0.3672638,0.9042969,0.182663,1.9516602,0.9921265,2.3621826
					c1.0213776,0.5180054,2.4122925,0.0001221,2.7401581-0.9448853c0.3686981-1.0626221-0.6914215-2.4216309-1.8897552-2.5039062
					C182.8121643,31.6647186,181.9733734,32.0406342,181.6653137,32.799118z"/>
				<path class="st2" d="M171.4455261,38.1783447c-0.2563019,0.6310692,0.1274719,1.3619766,0.6923676,1.6484604
					c0.7127686,0.361496,1.6834259,0.0000877,1.9122314-0.6593933c0.2572937-0.7415581-0.4825134-1.689949-1.3187866-1.747364
					C172.2458649,37.3866959,171.6605072,37.6490288,171.4455261,38.1783447z"/>
				<path class="st2" d="M182.4053192,40.048542c-0.219986,0.5416451,0.1094055,1.1689796,0.5942383,1.4148674
					c0.6117706,0.3102684,1.4448853,0.0000725,1.6412659-0.5659523c0.2208405-0.6364746-0.4141388-1.4504776-1.131897-1.4997559
					C183.0922394,39.3690758,182.5898285,39.5942383,182.4053192,40.048542z"/>
				<path class="st3" d="M159.9873199,40.7816925c2.4082184,1.9237061,6.2791901,4.5614624,11.5815735,6.411377
					c2.7876434,0.9725342,6.9955444,2.3961182,12.4724426,2.1259766c7.1143341-0.3508911,12.4210663-3.3648682,15.1653442-5.2441406
					"/>
				<path class="st3" d="M162.1200714,46.3899078c1.7045746,1.1239014,3.7501984,2.312439,6.1361847,3.4135742
					c2.7747345,1.2805176,5.3539734,2.1401367,7.5646057,2.7281494"/>
				<path class="st3" d="M119.8936462,21.0417633c6.9295273-0.3452148,11.683136,1.2057495,14.7303619,2.6709595
					c4.5137177,2.1703491,6.0257568,4.5095215,10.9606323,6.897644c4.9437866,2.392395,9.581131,3.0232544,12.6589203,3.1921387"/>
				<path class="st3" d="M158.2435608,33.8025055c0.016037-1.3782349,0.2027893-3.2458496,0.9237518-5.3181152
					c1.4157104-4.0691528,4.0643311-6.5507812,5.4316711-7.663208"/>
			</g>
			<g>
				<path class="st4" d="M127.1594391,51.5867462c-5.0786285-1.0397949-8.9254074-2.9747314-10.2992096-1.3228149
					c-0.8411255,1.0114136-0.6913834,3.2905884,0.3779526,4.8188477c0.5265121,0.7524414,1.1797333,1.1853638,1.6063004,1.4173584
					c0.2547607,0.8959961,0.7486038,2.111145,1.7952728,3.118103c3.1429825,3.0237427,8.620697,1.6209717,13.606308,0.9448853
					c3.5368347-0.4796143,8.4681244-0.2252808,18.3307037,0.2834473
					c10.7887573,0.5564575,13.4255219,2.1278076,27.0236206,2.7401733
					c7.0232544,0.3162842,11.6238556,0.1359253,14.2677155-3.0236206c1.4643707-1.75,2.4881592-4.6047974,1.4173279-6.2362061
					c-1.3864746-2.1122437-5.5749969-1.0928345-12.0944977-0.4724731c-0.0001068,0-8.3032532,0.7901001-20.5039368,0
					c-10.7127533-0.6937256-9.6970215-2.34021-18.7086487-2.456665
					C134.9632263,51.2813263,133.7002716,52.9259186,127.1594391,51.5867462z"/>
				<path class="st3" d="M118.8444824,56.5001373c8.072525,0.1879883,14.4586334-0.2272949,18.897644-0.661438
					c3.3314972-0.3258667,5.4670868-0.6525879,8.9763794-0.4724121c4.4831543,0.2301636,5.3507538,0.9869995,12.8503876,2.3621826
					c1.818573,0.3334961,6.8215637,1.2157593,13.0393677,1.7952881c3.9675598,0.369812,7.2867889,0.5098267,9.6377869,0.5668945"/>
			</g>
		</g>
		<g>
			<rect x="135.3897247" y="76.6010437" class="st17" width="4.3843117" height="10.5558815"/>
			<rect x="0.5" y="79.7657013" class="st17" width="141.1733246" height="4.226418"/>
			<g>
				<path class="st17" d="M135.8065796,123.8184662c3.1340027,2.0344162,6.2681122,4.0688858,9.4021912,6.103363
					c1.473175,0.9563141,3.4432983,0.4888611,4.34375-1.019104c5.4592285-9.1426392,9.1769562-19.2286987,10.9539795-29.7468109
					c-5.7087555-0.9643784-11.4173584-1.9289169-17.1259613-2.8933029
					c-1.3966675,8.2673416-4.2961578,16.200119-8.5462341,23.4083481
					C133.9959259,121.0928879,134.4220276,122.9197006,135.8065796,123.8184662z"/>
			</g>
			<path class="st17" d="M171.133606,95.5741501c-0.1309509-0.3729858-1.0032959-0.6353531-0.8312225-0.9913254
				c0.20784-0.4295578,1.4189911-0.7834778,1.8921967-0.8465118c0.5661774,1.6317291,2.6648102,5.9055786-1.6794739,9.3296051
				C169.6520538,102.5443268,172.9132996,100.645195,171.133606,95.5741501z"/>
			<path class="st18" d="M142.0288239,93.8962326c0,3.0431519,0.0075684,1.7896118-0.0453796,5.6183472l-1.3668518,0.8004761
				l0.0453796,1.2762451l19.9285278,3.8209839h18.5315552l0.6871948,1.6915894l-1.1252747,2.3031616
				c-0.2225647,0.3945312-0.2360229,0.7647705-0.0691223,0.90625c0.033905,0.0287476,0.0932617,0.0633545,0.1975708,0.0679321
				c0.8609009,0.0100708,1.7218018,0.0201416,2.5827026,0.0302124l3.8134766,8.0725098
				c0.7807922,1.4693604,0.7515259,2.0510254,0.5267944,2.289978c-0.1581421,0.1681519-0.4060059,0.1590576-0.600769,0.4207153
				c-0.2247925,0.302002-0.1906433,0.711853-0.1222839,1.0199585c0.0240479,0.1081543,0.168335,0.7077026,0.763916,1.0786743
				c0.3752136,0.2337036,0.8406067,0.3226318,1.3050232,0.2099609l10.9729309-2.6619263
				c1.0782776-0.2615967,1.6244202-1.4661865,1.1105347-2.449646l-11.4188843-21.852478
				c-0.4831238-0.7022095-0.6794739-1.532959-0.6115723-2.3410034c0.0906067-1.0948486,0.6569519-2.1596069,1.6538086-2.8619385
				c1.1099854-0.7854004,2.7336731-1.1252441,4.8102417-0.5436401V76.8524094l-2.8619385-3.3453979l-1.6686096-5.7768555
				c-0.065094-0.4463501-0.5121765-3.1911011-3.0489197-4.8775024c-2.003479-1.3318481-4.0666199-1.1766968-4.6590576-1.1109619
				h-4.6542358l-31.4673462,3.2773438c-2.8091736,0.2869263-5.0444031,2.4694214-5.4219666,5.2634277l-0.4305115,3.2245483
				V91.789299L142.0288239,93.8962326z M161.5345459,98.4572144c0-1.1802826,0.9568024-2.137085,2.137085-2.137085h0.0151215
				l10.3154144,0.0226898c0.8759766,0.0075684,1.6537933,0.5362396,1.9859619,1.3441467l1.2837982,3.179306
				c0.5738983,1.4045029-0.4606018,2.9451523-1.9785614,2.9451523h-11.6217346c-1.1802826,0-2.137085-0.95681-2.137085-2.137085
				V98.4572144z M146.6151886,71.3617325v-0.2208176c0-1.3855743,1.076416-2.5391693,2.4618835-2.6275177l19.4849243-1.3199234
				c1.9486084-0.1320038,3.7698059,0.9753189,4.5493164,2.7660904l0.2979889,0.6845551
				c0.6159515,1.4149857-0.421051,2.9973831-1.9642792,2.9973831h-22.5500641
				C147.6358795,73.6415024,146.6151886,72.6208115,146.6151886,71.3617325z"/>
			<path class="st17" d="M182.9808502,105.1171799l4.6242676-1.477356c0.5678711-0.1813965,1.1841736,0.0697021,1.4635315,0.5963745
				l6.3456726,11.9622803c0.5245667,0.9888916-0.0231628,2.2070923-1.1110229,2.4710083
				c-1.4394836,0.6008911-2.6794739,0.9717407-3.6072693,1.2067871c-1.118866,0.2834473-1.6743164,0.3416138-2.1732178,0.0472412
				c-0.686615-0.4051514-0.8807373-1.2506714-0.9415283-1.6179199l-5.342865-11.4952393
				C181.9257355,106.1375656,182.2741241,105.3430099,182.9808502,105.1171799z"/>
			<path class="st17" d="M193.6016541,90.790062l72.1089478,16.5971375c1.5170288,0.353447,2.9883118-0.7396774,3.0877686-2.2941895
				c2.6042786-7.5715027,3.7409058-16.1020203,3.4479675-25.5592651c0.092804-1.4525604-1.0601807-2.6816711-2.5157471-2.6816711
				h-76.1289368V90.790062z"/>
			<rect x="131.2677765" y="75.1264267" class="st18" width="6.1986728" height="13.5051241"/>
			<path class="st17" d="M56.5074043,77.1769943v9.4017944c0,1.0647583,0.8457336,1.9407349,1.9104919,1.9708252
				c24.2807655,0.6796875,48.5615578,1.359375,72.8423157,2.0390625c1.1101379,0.0300903,2.0239563-0.8610229,2.0239563-1.963562
				V75.1381149c0-1.1099854-0.9138184-2.0010986-2.0239563-1.9710083
				c-24.2807541,0.6796265-48.5615463,1.3592529-72.8423157,2.0388794
				c-0.1361694,0.0041504-0.8125916,0.0388184-1.3545532,0.5975952
				C56.5208015,76.3629684,56.5072823,77.040947,56.5074043,77.1769943z"/>
			<path class="st18" d="M1.6797917,84.8699875h11.4849653c0.6515808,0,1.1797915-0.5282059,1.1797915-1.1797867v-3.6225815
				c0-0.6515884-0.5282106-1.1797867-1.1797915-1.1797867H1.6797917C1.0282037,78.8878326,0.5,79.4160309,0.5,80.0676193v3.6225815
				C0.5,84.3417816,1.0282037,84.8699875,1.6797917,84.8699875z"/>
			<path class="st17" d="M43.4810066,67.636528v12.2262421h13.0263977v-2.6854553l-8.3612175-10.7283707
				c-0.5612679-0.7201691-1.4232979-1.1412506-2.3363495-1.1412506h-0.0000038
				C44.5236588,65.3076935,43.4810066,66.3503494,43.4810066,67.636528z M46.5192795,66.8179321L46.5192795,66.8179321
				l8.4777336,10.8786011v0.6558456H44.9912415V68.3459702C44.9912415,67.5020599,45.6753654,66.8179321,46.5192795,66.8179321z"/>
			<path class="st3" d="M187.6114349,92.152977h-25.6354218c-1.7608795,0-3.1883392-1.4274673-3.1883392-3.1883316v-8.1298447"/>
		</g>
	</g>
</g>
<g id="_x36_">
</g>
<g id="_x35_">
</g>
<g id="_x34_">
</g>
<g id="_x33_">
</g>
<g id="_x32__00000090986873235919319700000007018539234035486648_">
</g>
<g id="_x31_">
</g>
</svg>
