<?xml version="1.0" encoding="utf-8"?>
<!-- Generator: Adobe Illustrator 27.6.1, SVG Export Plug-In . SVG Version: 6.00 Build 0)  -->
<svg version="1.1" xmlns="http://www.w3.org/2000/svg" xmlns:xlink="http://www.w3.org/1999/xlink" x="0px" y="0px"
	 viewBox="0 0 301.2297668 156.0964355" style="enable-background:new 0 0 301.2297668 156.0964355;" xml:space="preserve">
<style type="text/css">
	.st0{fill:#814E90;stroke:#000000;stroke-linecap:round;stroke-linejoin:round;stroke-miterlimit:10;}
	.st1{fill:#FFFFFF;stroke:#000000;stroke-miterlimit:10;}
	.st2{fill:#FFFFFF;}
	.st3{fill:none;stroke:#000000;stroke-linecap:round;stroke-linejoin:round;stroke-miterlimit:10;}
	.st4{fill:#926F6B;stroke:#000000;stroke-linecap:round;stroke-linejoin:round;stroke-miterlimit:10;}
	.st5{fill:#1D0235;}
	.st6{fill:#E1DECB;}
	.st7{fill:#80386A;}
	.st8{fill:#3D0B30;}
	.st9{fill:#3B071E;}
	.st10{fill:#010103;}
	.st11{fill:#D94C90;}
	.st12{fill:#771F45;}
	.st13{fill:#19122B;stroke:#000000;stroke-linecap:round;stroke-linejoin:round;stroke-miterlimit:10;}
	.st14{fill:#3A2E59;stroke:#000000;stroke-linecap:round;stroke-linejoin:round;stroke-miterlimit:10;}
	.st15{fill:#E1DECB;stroke:#000000;stroke-linecap:round;stroke-linejoin:round;stroke-miterlimit:10;}
	.st16{fill:#3B071E;stroke:#000000;stroke-linecap:round;stroke-linejoin:round;stroke-miterlimit:10;}
	.st17{fill:#3C3C3B;stroke:#000000;stroke-miterlimit:10;}
	.st18{fill:#575756;stroke:#000000;stroke-miterlimit:10;}
	.st19{fill:#EEEEEE;stroke:#000000;stroke-miterlimit:10;}
	.st20{fill:#EEEEEE;stroke:#000000;stroke-linecap:round;stroke-linejoin:round;stroke-miterlimit:10;}
	.st21{fill:#CA2432;}
	.st22{fill:#871026;}
	.st23{fill:#FCC5BE;}
	.st24{fill:#F6ACBD;stroke:#000000;stroke-linecap:round;stroke-linejoin:round;stroke-miterlimit:10;}
	.st25{fill:#9F49A2;}
	.st26{fill:none;stroke:#B780A8;stroke-linecap:round;stroke-linejoin:round;stroke-miterlimit:10;}
	.st27{fill:#F6ACBD;}
	.st28{fill:#9789A3;stroke:#000000;stroke-linecap:round;stroke-linejoin:round;stroke-miterlimit:10;}
	.st29{fill:url(#SVGID_1_);stroke:#000000;stroke-linecap:round;stroke-linejoin:round;stroke-miterlimit:10;}
	.st30{fill:url(#SVGID_00000174566068651009424630000013337940391157659529_);}
	.st31{fill:url(#SVGID_00000112591002999646001000000017642344542163948958_);}
	.st32{fill:url(#SVGID_00000085971494105385754370000012479195502106910343_);}
	.st33{fill:url(#SVGID_00000145738805137446922200000009682589990681297799_);}
	.st34{fill:url(#SVGID_00000133508584125870223070000009239650964832878518_);}
	
		.st35{fill:url(#SVGID_00000101091649368066382560000011276697119580294308_);stroke:#000000;stroke-linecap:round;stroke-linejoin:round;stroke-miterlimit:10;}
	.st36{fill:url(#SVGID_00000014610108969986621150000001721958661843858591_);}
	.st37{fill:url(#SVGID_00000039819131473538626580000001615436052396304009_);}
	.st38{fill:url(#SVGID_00000087402427771505118550000006211472004200147122_);}
	.st39{fill:url(#SVGID_00000179616732626741294680000001159939928614220973_);}
	.st40{fill:url(#SVGID_00000098206763821732761070000010325950385008059284_);}
	
		.st41{fill:url(#SVGID_00000145776118484133199060000000033061584039664303_);stroke:#000000;stroke-linecap:round;stroke-linejoin:round;stroke-miterlimit:10;}
	.st42{fill:#0B0B0B;}
	.st43{fill:#010101;}
	.st44{fill:#151514;}
	.st45{fill:#1D1D1D;}
	.st46{fill:#1E1E1D;}
	.st47{fill:#141414;}
	.st48{fill:#0D0D0D;}
	.st49{fill:#3C3C3B;}
	.st50{fill:#333332;}
	.st51{fill:#292929;}
	.st52{fill:#242423;}
	.st53{fill:#0F0F0F;}
	.st54{fill:#323231;}
	.st55{fill:#4C4C4B;}
	.st56{fill:#4F4F4E;}
	.st57{fill:#363635;}
	.st58{fill:#575756;}
	.st59{fill:#0A0A0A;}
	.st60{fill:#101010;}
	.st61{fill:#0E0E0D;}
	.st62{fill:#545453;}
	.st63{fill:#393938;}
	.st64{fill:#050505;}
	.st65{fill:#030303;}
	.st66{fill:#202020;}
	.st67{fill:#373736;}
	.st68{fill:#303030;}
	.st69{fill:#2D2D2C;}
	.st70{fill:#252525;}
	.st71{fill:#212121;}
	.st72{fill:#1C1C1B;}
	.st73{fill:#161616;}
	.st74{fill:#070707;}
	.st75{fill:#2F2F2F;}
	.st76{fill:#8F8F8F;}
	.st77{fill:#1A1A19;}
	.st78{fill:#707070;}
	.st79{fill:#080808;}
	.st80{fill:#171717;}
	.st81{fill:#1B1B1B;}
	.st82{fill:#5F5F5F;}
	.st83{fill:#1C111F;}
	.st84{fill:#814E90;}
	.st85{fill:#693F75;}
	.st86{fill:#5F396A;}
	.st87{fill:#563460;}
	.st88{fill:#7D4B8B;}
	.st89{fill:#744681;}
	.st90{fill:#4D2E55;}
	.st91{fill:#4D2E56;}
	.st92{fill:#804D8E;}
	.st93{fill:#492C52;}
	.st94{fill:#412749;}
	.st95{fill:#6E437B;}
	.st96{fill:#774885;}
	.st97{fill:#6C4179;}
	.st98{fill:#402647;}
	.st99{fill:#341F3A;}
	.st100{fill:#030103;}
	.st101{fill:#43284A;}
	.st102{fill:#6C4178;}
	.st103{fill:#080408;}
	.st104{fill:#4B2D53;}
	.st105{fill:#6E427B;}
	.st106{fill:#7F4D8E;}
	.st107{fill:#392340;}
	.st108{fill:#565656;}
	.st109{fill:#673E73;}
	.st110{fill:#3E2545;}
	.st111{fill:#241528;}
	.st112{fill:#0F0910;}
	.st113{fill:#150D18;}
	.st114{fill:#1A1A1A;}
	.st115{fill:#492C51;}
	.st116{fill:#130B15;}
	.st117{fill:#3C2443;}
	.st118{fill:#100A12;}
	.st119{fill:#613A6C;}
	.st120{fill:#28182D;}
	.st121{fill:#1A0F1D;}
	.st122{fill:#7C4B8A;}
	.st123{fill:#4F4F4F;}
	.st124{fill:#7A4988;}
	.st125{fill:#040205;}
	.st126{fill:#4C2E55;}
	.st127{fill:#54335E;}
	.st128{fill:#482B50;}
	.st129{fill:#44294C;}
	.st130{fill:#7A4A88;}
	.st131{fill:#070407;}
	.st132{fill:#794987;}
	.st133{fill:#09050A;}
	.st134{fill:#72457F;}
	.st135{fill:#180E1B;}
	.st136{fill:#140C16;}
	.st137{fill:#603A6B;}
	.st138{fill:#7C4A8A;}
	.st139{fill:#2D1B32;}
	.st140{fill:#51315A;}
	.st141{fill:#6F437C;}
	.st142{fill:#0A060B;}
	.st143{fill:#6B4178;}
	.st144{fill:#7F4C8D;}
	.st145{fill:#70437D;}
	.st146{fill:#120A14;}
	.st147{fill:#655C6D;}
	.st148{fill:#683F75;}
	.st149{fill:#150C18;}
	.st150{fill:#633C6F;}
	.st151{fill:#5C3766;}
	.st152{fill:#784987;}
	.st153{fill:#3A2341;}
	.st154{fill:#784886;}
	.st155{fill:#110A12;}
	.st156{fill:#0B060C;}
	.st157{fill:#724580;}
	.st158{fill:#2F1C35;}
	.st159{fill:#110A13;}
	.st160{fill:#583563;}
	.st161{fill:#321E38;}
	.st162{fill:#593663;}
	.st163{fill:#4C2D54;}
	.st164{fill:#232323;}
	.st165{fill:#040305;}
	.st166{fill:#6D4279;}
	.st167{fill:#4A2D53;}
	.st168{fill:#573461;}
	.st169{fill:#764784;}
	.st170{fill:#52315C;}
	.st171{fill:#643C70;}
	.st172{fill:#010001;}
	.st173{fill:#8E8199;}
	.st174{fill:#160D19;}
	.st175{fill:#190F1C;}
	.st176{fill:#2E1C34;}
	.st177{fill:#1C1120;}
	.st178{fill:#5A3664;}
	.st179{fill:#1E1222;}
	.st180{fill:#5C3767;}
	.st181{fill:#7B4A89;}
	.st182{fill:#040204;}
	.st183{fill:#804D8F;}
	.st184{fill:#080409;}
	.st185{fill:#744682;}
	.st186{fill:#653D71;}
	.st187{fill:#5D3867;}
	.st188{fill:#503059;}
	.st189{fill:#9587A1;}
	.st190{fill:#1F1323;}
	.st191{fill:#7A4A89;}
	.st192{fill:#231527;}
	.st193{fill:#623B6D;}
	.st194{fill:#1F1222;}
	.st195{fill:#3D2544;}
	.st196{fill:#70447D;}
	.st197{fill:#734580;}
	.st198{fill:#241628;}
	.st199{fill:#42284A;}
	.st200{fill:#402747;}
	.st201{fill:#050205;}
	.st202{fill:#120B14;}
	.st203{fill:#311D36;}
	.st204{fill:#080509;}
	.st205{fill:#35203C;}
	.st206{fill:#653D70;}
	.st207{fill:#71447E;}
	.st208{fill:#28182C;}
	.st209{fill:#2C1B31;}
	.st210{fill:#6A3F76;}
	.st211{fill:#2C1A31;}
	.st212{fill:#0C070E;}
	.st213{fill:#412748;}
	.st214{fill:#211425;}
	.st215{fill:#683E74;}
	.st216{fill:#71447F;}
	.st217{fill:#583562;}
	.st218{fill:#1A101D;}
	.st219{fill:#54325E;}
	.st220{fill:#4E2F58;}
	.st221{fill:#7D4B8C;}
	.st222{fill:#593664;}
	.st223{fill:#7E4C8D;}
	.st224{fill:#663D72;}
	.st225{fill:#593563;}
	.st226{fill:#331F39;}
	.st227{fill:#754783;}
	.st228{fill:#36203C;}
	.st229{fill:#7E4C8C;}
	.st230{fill:#5B3765;}
	.st231{fill:#060306;}
	.st232{fill:#774784;}
	.st233{fill:#150C17;}
	.st234{fill:#050305;}
	.st235{fill:#9789A3;}
	.st236{fill:#877A92;}
	.st237{fill:#201323;}
	.st238{fill:#55335E;}
	.st239{fill:#623B6E;}
	.st240{fill:#734581;}
	.st241{fill:#3D2444;}
	.st242{fill:#55335F;}
	.st243{fill:#3B2342;}
	.st244{fill:#241629;}
	.st245{fill:#6D427A;}
	.st246{fill:#201324;}
	.st247{fill:#140C17;}
	.st248{fill:#1B101E;}
	.st249{fill:#151515;}
	.st250{fill:#4A2C53;}
	.st251{fill:#0D070E;}
	.st252{fill:#683F74;}
	.st253{fill:#2F1C34;}
	.st254{fill:#44294B;}
	.st255{fill:#0D080F;}
	.st256{fill:#070607;}
	.st257{fill:#060407;}
	.st258{fill:#784885;}
	.st259{fill:#3F2646;}
	.st260{fill:#5D3868;}
	.st261{fill:#251629;}
	.st262{fill:#53325C;}
	.st263{fill:#4F3058;}
	.st264{fill:#26172A;}
	.st265{fill:#311E37;}
	.st266{fill:#4B2D54;}
	.st267{fill:#27172B;}
	.st268{fill:#2E1B33;}
	.st269{fill:#100911;}
	.st270{fill:#1E1221;}
	.st271{fill:#070408;}
	.st272{fill:#38223F;}
	.st273{fill:#030203;}
	.st274{fill:#452A4D;}
	.st275{fill:#080609;}
	.st276{fill:#383838;}
	.st277{fill:#201D23;}
	.st278{fill:#301D36;}
	.st279{fill:#4F3059;}
	.st280{fill:#754682;}
	.st281{fill:#7B4A8A;}
	.st282{fill:#6B4077;}
	.st283{fill:#7B6F84;}
	.st284{fill:#0E080F;}
	.st285{fill:#38213E;}
	.st286{fill:#0E0810;}
	.st287{fill:#020102;}
	.st288{fill:#090809;}
	.st289{fill:#311D37;}
	.st290{fill:#0F0911;}
	.st291{fill:#525252;}
	.st292{fill:#CACACA;}
	.st293{fill:#27172C;}
	.st294{fill:#926F6B;}
	.st295{fill:#929292;}
	.st296{fill:#26172B;}
	.st297{fill:#DBDBDB;}
	.st298{fill:#050303;}
	.st299{fill:#5A5A5A;}
	.st300{fill:#693F76;}
	.st301{fill:#6A4077;}
	.st302{fill:#52315B;}
	.st303{fill:#6A4076;}
	.st304{fill:#3A2340;}
	.st305{fill:#633B6E;}
	.st306{fill:#664D4A;}
	.st307{fill:#9688A2;}
	.st308{fill:#36203D;}
	.st309{fill:#434343;}
	.st310{fill:#25162A;}
	.st311{fill:#846561;}
	.st312{fill:#E7E7E7;}
	.st313{fill:#29252C;}
	.st314{fill:#FDFDFD;}
	.st315{fill:#5D5D5D;}
	.st316{fill:#221526;}
	.st317{fill:#353535;}
	.st318{fill:#221426;}
	.st319{fill:#36213D;}
	.st320{fill:#7F615D;}
	.st321{fill:#BFBFBF;}
	.st322{fill:#6D5350;}
	.st323{fill:#644C49;}
	.st324{fill:#53325D;}
	.st325{fill:#B4B4B4;}
	.st326{fill:#131313;}
	.st327{fill:#191919;}
	.st328{fill:#343434;}
	.st329{fill:#FFCA53;}
	.st330{fill:#FFC649;}
	.st331{fill:#FFB920;}
	.st332{fill:#FFD883;}
	.st333{fill:#FFB003;}
	.st334{fill:#FFB613;}
	.st335{fill:#FFBD29;}
	.st336{fill:#FFB40F;}
	.st337{fill:#FFBC26;}
	.st338{fill:#FFB300;}
	.st339{fill:#FFB301;}
	.st340{fill:#FFB200;}
	.st341{fill:#FFB100;}
	.st342{fill:#FFC441;}
	.st343{fill:#FFB500;}
	.st344{fill:#FFB906;}
	.st345{fill:#FFB803;}
	.st346{fill:#FFB400;}
	.st347{fill:#FFC74A;}
	.st348{fill:#FFB000;}
	.st349{fill:#FFC648;}
	.st350{fill:#FFC136;}
	.st351{fill:#FFB600;}
	.st352{fill:#FFB801;}
	.st353{fill:#FFBF0B;}
	.st354{fill:#FFBA05;}
	.st355{fill:#FFD881;}
	.st356{fill:#FFB102;}
	.st357{fill:#FFCA54;}
	.st358{fill:#FFB715;}
	.st359{fill:#FFB900;}
	.st360{fill:#FFC50F;}
	.st361{fill:#FFC009;}
	.st362{fill:#FFCE60;}
	.st363{fill:#FFCC5A;}
	.st364{fill:#FFB208;}
	.st365{fill:#FFB410;}
	.st366{fill:#FFBB00;}
	.st367{fill:#FFCB16;}
	.st368{fill:#FFBA00;}
	.st369{fill:#FFBE00;}
	.st370{fill:#FFC002;}
	.st371{fill:#FFD21A;}
	.st372{fill:#FFBB23;}
	.st373{fill:#FFC000;}
	.st374{fill:#FFD116;}
	.st375{fill:#FFD81E;}
	.st376{fill:#FFAF00;}
	.st377{fill:#FFDE22;}
	.st378{fill:#FFD315;}
	.st379{fill:#FFC200;}
	.st380{fill:#FFC100;}
	.st381{fill:#FFBF00;}
	.st382{fill:#FFAD00;}
	.st383{fill:#FFBC00;}
	.st384{fill:#FFB700;}
	.st385{fill:#FFCC0E;}
	.st386{fill:#FFE327;}
	.st387{fill:#FFDB1F;}
	.st388{fill:#FFD61A;}
	.st389{fill:#FFD91D;}
	.st390{fill:#FFB41C;}
	.st391{fill:#FFAB00;}
	.st392{fill:#FFB800;}
	.st393{fill:#FFE62B;}
	.st394{fill:#FFE227;}
	.st395{fill:#FFDB1E;}
	.st396{fill:#FFC300;}
	.st397{fill:#FFA900;}
	.st398{fill:#FFEA2F;}
	.st399{fill:#FFDF23;}
	.st400{fill:#FFB31B;}
	.st401{fill:#FFA700;}
	.st402{fill:#FFDA1D;}
	.st403{fill:#FFED33;}
	.st404{fill:#FFC301;}
	.st405{fill:#FFA906;}
	.st406{fill:#FFA705;}
	.st407{fill:#FFA500;}
	.st408{fill:#FFDE21;}
	.st409{fill:#FFF136;}
	.st410{fill:#FFA300;}
	.st411{fill:#FFC400;}
	.st412{fill:#FFCA09;}
	.st413{fill:#FFF53B;}
	.st414{fill:#FFA100;}
	.st415{fill:#FFAE00;}
	.st416{fill:#FFF73E;}
	.st417{fill:#FFC45F;}
	.st418{fill:#FFA000;}
	.st419{fill:#FFC500;}
	.st420{fill:#FFFB41;}
	.st421{fill:#FFEB2E;}
	.st422{fill:#FFC601;}
	.st423{fill:#FFAB1F;}
	.st424{fill:#FF9D00;}
	.st425{fill:#FFA30E;}
	.st426{fill:#FFFE44;}
	.st427{fill:#FFF337;}
	.st428{fill:#FFF63B;}
	.st429{fill:#FFB53F;}
	.st430{fill:#FF9B00;}
	.st431{fill:#FFE223;}
	.st432{fill:#F8FF48;}
	.st433{fill:#FF9C03;}
	.st434{fill:#FFCB7B;}
	.st435{fill:#FF9900;}
	.st436{fill:#FFC46A;}
	.st437{fill:#FFC600;}
	.st438{fill:#FFC905;}
	.st439{fill:#F1FF4B;}
	.st440{fill:#FFFF45;}
	.st441{fill:#FFBD00;}
	.st442{fill:#FFB13C;}
	.st443{fill:#FF9800;}
	.st444{fill:#FFD28F;}
	.st445{fill:#FFC700;}
	.st446{fill:#EAFF4E;}
	.st447{fill:#EEFF4C;}
	.st448{fill:#FFCA04;}
	.st449{fill:#FF9600;}
	.st450{fill:#FFB954;}
	.st451{fill:#E2FF50;}
	.st452{fill:#FFC901;}
	.st453{fill:#E4FF4F;}
	.st454{fill:#FFF437;}
	.st455{fill:#FFC800;}
	.st456{fill:#FF9300;}
	.st457{fill:#DBFF53;}
	.st458{fill:#FFF83B;}
	.st459{fill:#FFCB04;}
	.st460{fill:#E9FF4D;}
	.st461{fill:#F3FF49;}
	.st462{fill:#FF9100;}
	.st463{fill:#FFC900;}
	.st464{fill:#D6FF55;}
	.st465{fill:#FFCB02;}
	.st466{fill:#FFE827;}
	.st467{fill:#FFC070;}
	.st468{fill:#FFA12A;}
	.st469{fill:#FF8E00;}
	.st470{fill:#FFCA00;}
	.st471{fill:#FFDD18;}
	.st472{fill:#CFFF58;}
	.st473{fill:#FF8F00;}
	.st474{fill:#FF8C00;}
	.st475{fill:#FFCB00;}
	.st476{fill:#FFD50D;}
	.st477{fill:#FFE21E;}
	.st478{fill:#CAFF5A;}
	.st479{fill:#CCFF58;}
	.st480{fill:#FFFE43;}
	.st481{fill:#FFAA00;}
	.st482{fill:#FF8900;}
	.st483{fill:#FFCD00;}
	.st484{fill:#FFE21B;}
	.st485{fill:#FFF838;}
	.st486{fill:#C2FF5C;}
	.st487{fill:#FF8700;}
	.st488{fill:#FF9A00;}
	.st489{fill:#FFCF00;}
	.st490{fill:#FFDD11;}
	.st491{fill:#BDFF5E;}
	.st492{fill:#FFCE00;}
	.st493{fill:#FF8F11;}
	.st494{fill:#FF8400;}
	.st495{fill:#BBFF5F;}
	.st496{fill:#FFD000;}
	.st497{fill:#FF8200;}
	.st498{fill:#FFEC26;}
	.st499{fill:#B6FF61;}
	.st500{fill:#FF8302;}
	.st501{fill:#FF7F00;}
	.st502{fill:#FFD400;}
	.st503{fill:#FF8A00;}
	.st504{fill:#D4FF52;}
	.st505{fill:#B1FF63;}
	.st506{fill:#E7FF49;}
	.st507{fill:#FF7D00;}
	.st508{fill:#FFD500;}
	.st509{fill:#CFFF54;}
	.st510{fill:#FFED23;}
	.st511{fill:#AFFF64;}
	.st512{fill:#FFE111;}
	.st513{fill:#FFC286;}
	.st514{fill:#FF8500;}
	.st515{fill:#FF8100;}
	.st516{fill:#FF9F44;}
	.st517{fill:#FF7B00;}
	.st518{fill:#FFD700;}
	.st519{fill:#FFD800;}
	.st520{fill:#FFAC00;}
	.st521{fill:#FF9000;}
	.st522{fill:#ADFF65;}
	.st523{fill:#FFF026;}
	.st524{fill:#FF9C3F;}
	.st525{fill:#FF7900;}
	.st526{fill:#FFD900;}
	.st527{fill:#AAFF66;}
	.st528{fill:#FFE513;}
	.st529{fill:#FF9331;}
	.st530{fill:#FF8B22;}
	.st531{fill:#FF7600;}
	.st532{fill:#FF7800;}
	.st533{fill:#FFD300;}
	.st534{fill:#FFDB00;}
	.st535{fill:#A8FF67;}
	.st536{fill:#FF7C00;}
	.st537{fill:#FFAC67;}
	.st538{fill:#FF7400;}
	.st539{fill:#FFDE00;}
	.st540{fill:#FFEF1F;}
	.st541{fill:#A9FF68;}
	.st542{fill:#FF7500;}
	.st543{fill:#FF7E17;}
	.st544{fill:#FF7200;}
	.st545{fill:#FFE000;}
	.st546{fill:#DDFF48;}
	.st547{fill:#FFFB2E;}
	.st548{fill:#E8FF42;}
	.st549{fill:#A6FF69;}
	.st550{fill:#B4FF62;}
	.st551{fill:#FF7000;}
	.st552{fill:#FFE400;}
	.st553{fill:#FFD200;}
	.st554{fill:#FF9645;}
	.st555{fill:#FF6D00;}
	.st556{fill:#FFA600;}
	.st557{fill:#FFAC6E;}
	.st558{fill:#FFA25D;}
	.st559{fill:#FF730A;}
	.st560{fill:#FFE900;}
	.st561{fill:#C6FF53;}
	.st562{fill:#A4FF6A;}
	.st563{fill:#FF760E;}
	.st564{fill:#FF9C00;}
	.st565{fill:#FFAA51;}
	.st566{fill:#FF6C00;}
	.st567{fill:#FF8000;}
	.st568{fill:#FFEB00;}
	.st569{fill:#FFEC00;}
	.st570{fill:#F2FF34;}
	.st571{fill:#FF7700;}
	.st572{fill:#FF7B09;}
	.st573{fill:#FF6A00;}
	.st574{fill:#FF6E08;}
	.st575{fill:#FF8600;}
	.st576{fill:#D2FF49;}
	.st577{fill:#FFF207;}
	.st578{fill:#FFEA00;}
	.st579{fill:#FF6800;}
	.st580{fill:#FFA15F;}
	.st581{fill:#FF7F28;}
	.st582{fill:#FFDF00;}
	.st583{fill:#FF6900;}
	.st584{fill:#FF7B24;}
	.st585{fill:#FF6500;}
	.st586{fill:#FFCC00;}
	.st587{fill:#FF7315;}
	.st588{fill:#FF6F00;}
	.st589{fill:#FF6E00;}
	.st590{fill:#FF5B04;}
	.st591{fill:#FF6400;}
	.st592{fill:#FF9700;}
	.st593{fill:#FF7116;}
	.st594{fill:#FF6200;}
	.st595{fill:#FF7925;}
	.st596{fill:#FF6E14;}
	.st597{fill:#FF9500;}
	.st598{fill:#FF9F00;}
	.st599{fill:#FF8846;}
	.st600{fill:#FFC74D;}
	.st601{fill:#FF6000;}
	.st602{fill:#FFD600;}
	.st603{fill:#FF6100;}
	.st604{fill:#FFE800;}
	.st605{fill:#FFA400;}
	.st606{fill:#FF5E00;}
	.st607{fill:#FF8800;}
	.st608{fill:#FFA800;}
	.st609{fill:#FF6A12;}
	.st610{fill:#FFDA00;}
	.st611{fill:#FF670E;}
	.st612{fill:#FF6C16;}
	.st613{fill:#FF8B00;}
	.st614{fill:#FF5C00;}
	.st615{fill:#FFE700;}
	.st616{fill:#FF6610;}
	.st617{fill:#FF7A00;}
	.st618{fill:#FF640E;}
	.st619{fill:#FF5B00;}
	.st620{fill:#FFD100;}
	.st621{fill:#FFE500;}
	.st622{fill:#FFAA7B;}
	.st623{fill:#FFA16D;}
	.st624{fill:#FF5900;}
	.st625{fill:#FF7327;}
	.st626{fill:#FFE600;}
	.st627{fill:#FFE200;}
	.st628{fill:#FF7930;}
	.st629{fill:#FF5800;}
	.st630{fill:#FF5700;}
	.st631{fill:#FF691A;}
	.st632{fill:#FF8A4C;}
	.st633{fill:#FF7C37;}
	.st634{fill:#FF4D00;}
	.st635{fill:#FF5600;}
	.st636{fill:#FF5500;}
	.st637{fill:#FF5300;}
	.st638{fill:#FF5C0D;}
	.st639{fill:#FF5403;}
	.st640{fill:#FF5200;}
	.st641{fill:#FFBD4D;}
	.st642{fill:#FF9E70;}
	.st643{fill:#FF5000;}
	.st644{fill:#FF5400;}
	.st645{fill:#FFE300;}
	.st646{fill:#FF5A0D;}
	.st647{fill:#FFB456;}
	.st648{fill:#FF4F00;}
	.st649{fill:#FF9A31;}
	.st650{fill:#FF9223;}
	.st651{fill:#FF4E00;}
	.st652{fill:#FF6300;}
	.st653{fill:#FF7300;}
	.st654{fill:#FFA255;}
	.st655{fill:#FF6623;}
	.st656{fill:#FF6E2E;}
	.st657{fill:#FF6700;}
	.st658{fill:#FF621F;}
	.st659{fill:#FF4C00;}
	.st660{fill:#FF4B00;}
	.st661{fill:#FF9F21;}
	.st662{fill:#FFA22A;}
	.st663{fill:#FF4A00;}
	.st664{fill:#FF956B;}
	.st665{fill:#FF6805;}
	.st666{fill:#FF6600;}
	.st667{fill:#FF4900;}
	.st668{fill:#FF5B19;}
	.st669{fill:#FFFEFE;}
	.st670{fill:#FFC84C;}
	.st671{fill:#FFDC8F;}
	.st672{fill:#FFBB09;}
	.st673{fill:#FFB001;}
	.st674{fill:#FFFCF6;}
	.st675{fill:#FFB313;}
	.st676{fill:#FFDC63;}
	.st677{fill:#FFC451;}
	.st678{fill:#FFAA0B;}
	.st679{fill:#FFD052;}
	.st680{fill:#FFD314;}
	.st681{fill:#FFA200;}
	.st682{fill:#FFE304;}
	.st683{fill:#FFEE24;}
	.st684{fill:#FFB234;}
	.st685{fill:#FFD371;}
	.st686{fill:#FFDCA6;}
	.st687{fill:#FFCC19;}
	.st688{fill:#FFBC56;}
	.st689{fill:#FFCD81;}
	.st690{fill:#FFD98B;}
	.st691{fill:#FFCB19;}
	.st692{fill:#FFB652;}
	.st693{fill:#FF9E1A;}
	.st694{fill:#FFE9C0;}
	.st695{fill:#FFFE00;}
	.st696{fill:#FFF800;}
	.st697{fill:#FFAF48;}
	.st698{fill:#FFF700;}
	.st699{fill:#FFFD00;}
	.st700{fill:#FFF0D6;}
	.st701{fill:#FFFEBA;}
	.st702{fill:#FFFEB5;}
	.st703{fill:#FFF5E9;}
	.st704{fill:#FF8D00;}
	.st705{fill:#FFFF00;}
	.st706{fill:#FFB12F;}
	.st707{fill:#FFFC00;}
	.st708{fill:#FFFB0B;}
	.st709{fill:#FFF600;}
	.st710{fill:#FFD07F;}
	.st711{fill:#FFD492;}
	.st712{fill:#FFFEF0;}
	.st713{fill:#FFFB00;}
	.st714{fill:#FFF900;}
	.st715{fill:#FFFA00;}
	.st716{fill:#FFF500;}
	.st717{fill:#FFA540;}
	.st718{fill:#FFFEF5;}
	.st719{fill:#FF9220;}
	.st720{fill:#FFA415;}
	.st721{fill:#FFFCC3;}
	.st722{fill:#FFF000;}
	.st723{fill:#FF9E3D;}
	.st724{fill:#FF9400;}
	.st725{fill:#FFEA21;}
	.st726{fill:#FFF200;}
	.st727{fill:#FFCC81;}
	.st728{fill:#FF9F1C;}
	.st729{fill:#FFF400;}
	.st730{fill:#FFEF00;}
	.st731{fill:#FF8A04;}
	.st732{fill:#FF8300;}
	.st733{fill:#FFF300;}
	.st734{fill:#FFE303;}
	.st735{fill:#FF5F00;}
	.st736{fill:#FF8304;}
	.st737{fill:#FFFAA9;}
	.st738{fill:#FFE840;}
	.st739{fill:#FFF100;}
	.st740{fill:#FFEE00;}
	.st741{fill:#FF7100;}
	.st742{fill:#FF7601;}
	.st743{fill:#FFDC00;}
	.st744{fill:#FF6B00;}
	.st745{fill:#FFE100;}
	.st746{fill:#FFA25C;}
	.st747{fill:#FFED00;}
	.st748{fill:#FF7E22;}
	.st749{fill:#FFD98E;}
	.st750{fill:#FF7002;}
	.st751{fill:#FFD088;}
	.st752{fill:#FF7B25;}
	.st753{fill:#FF7A28;}
	.st754{fill:#FF9011;}
	.st755{fill:#FFEAC2;}
	.st756{fill:#FFAE7A;}
	.st757{fill:#FF5D00;}
	.st758{fill:#FFC46D;}
	.st759{fill:#FF5A00;}
	.st760{fill:#FF6806;}
	.st761{fill:#FF5100;}
	.st762{fill:#FF5306;}
	.st763{fill:#FF5D1B;}
	.st764{fill:#8A6965;}
	.st765{fill:#020101;}
	.st766{fill:#1D0A16;}
	.st767{fill:#916E6A;}
	.st768{fill:#2D0F21;}
	.st769{fill:#280E1E;}
	.st770{fill:#240C1B;}
	.st771{fill:#483735;}
	.st772{fill:#331226;}
	.st773{fill:#2F1023;}
	.st774{fill:#2B0F20;}
	.st775{fill:#020001;}
	.st776{fill:#1D1615;}
	.st777{fill:#100C0C;}
	.st778{fill:#461834;}
	.st779{fill:#401630;}
	.st780{fill:#3C152D;}
	.st781{fill:#381329;}
	.st782{fill:#220B19;}
	.st783{fill:#584340;}
	.st784{fill:#7F605D;}
	.st785{fill:#4D1B39;}
	.st786{fill:#471935;}
	.st787{fill:#431731;}
	.st788{fill:#3E162E;}
	.st789{fill:#3A142B;}
	.st790{fill:#341227;}
	.st791{fill:#581F41;}
	.st792{fill:#531D3E;}
	.st793{fill:#4E1B3A;}
	.st794{fill:#491A36;}
	.st795{fill:#451833;}
	.st796{fill:#411730;}
	.st797{fill:#3B152C;}
	.st798{fill:#632249;}
	.st799{fill:#5E2146;}
	.st800{fill:#5A1F43;}
	.st801{fill:#541D3F;}
	.st802{fill:#501C3B;}
	.st803{fill:#4C1A38;}
	.st804{fill:#421731;}
	.st805{fill:#6B2650;}
	.st806{fill:#67244D;}
	.st807{fill:#632349;}
	.st808{fill:#5D2145;}
	.st809{fill:#591F42;}
	.st810{fill:#551E3F;}
	.st811{fill:#501C3C;}
	.st812{fill:#4B1A37;}
	.st813{fill:#762958;}
	.st814{fill:#722855;}
	.st815{fill:#6E2652;}
	.st816{fill:#6A254E;}
	.st817{fill:#64234A;}
	.st818{fill:#5F2147;}
	.st819{fill:#5B2044;}
	.st820{fill:#571E40;}
	.st821{fill:#511C3C;}
	.st822{fill:#4B3937;}
	.st823{fill:#7D2C5D;}
	.st824{fill:#792A5A;}
	.st825{fill:#742957;}
	.st826{fill:#702753;}
	.st827{fill:#6A254F;}
	.st828{fill:#66244C;}
	.st829{fill:#622249;}
	.st830{fill:#5E2145;}
	.st831{fill:#2B201F;}
	.st832{fill:#893066;}
	.st833{fill:#842E62;}
	.st834{fill:#7F2D5F;}
	.st835{fill:#7B2B5B;}
	.st836{fill:#772A58;}
	.st837{fill:#712854;}
	.st838{fill:#6D2651;}
	.st839{fill:#68254E;}
	.st840{fill:#120E0D;}
	.st841{fill:#92336D;}
	.st842{fill:#8D3168;}
	.st843{fill:#883065;}
	.st844{fill:#802D5F;}
	.st845{fill:#7A2B5B;}
	.st846{fill:#762957;}
	.st847{fill:#1B1414;}
	.st848{fill:#993672;}
	.st849{fill:#93346D;}
	.st850{fill:#8F326A;}
	.st851{fill:#8B3167;}
	.st852{fill:#862F64;}
	.st853{fill:#812D60;}
	.st854{fill:#7C2C5C;}
	.st855{fill:#782A59;}
	.st856{fill:#742856;}
	.st857{fill:#322624;}
	.st858{fill:#130F0E;}
	.st859{fill:#9A3672;}
	.st860{fill:#96346F;}
	.st861{fill:#91336C;}
	.st862{fill:#8D3169;}
	.st863{fill:#872F64;}
	.st864{fill:#832E61;}
	.st865{fill:#7F2C5E;}
	.st866{fill:#752957;}
	.st867{fill:#0E0A0A;}
	.st868{fill:#2D2221;}
	.st869{fill:#0A0307;}
	.st870{fill:#3F162F;}
	.st871{fill:#8B6966;}
	.st872{fill:#56413F;}
	.st873{fill:#0D0C0C;}
	.st874{fill:#2E2321;}
	.st875{fill:#110D0D;}
	.st876{fill:#372A28;}
	.st877{fill:#886763;}
	.st878{fill:#EEEEEE;}
	.st879{fill:#CC2E3B;}
	.st880{fill:#983346;}
	.st881{fill:#DD757E;}
	.st882{fill:#575757;}
	.st883{fill:#CE3440;}
	.st884{fill:#7E7E7E;}
	.st885{fill:#DFDFDF;}
	.st886{fill:#B7707E;}
	.st887{fill:#C42230;}
	.st888{fill:#CF3440;}
	.st889{fill:#555555;}
	.st890{fill:#D03D4A;}
	.st891{fill:#F09F9D;}
	.st892{fill:#EDEDED;}
	.st893{fill:#981529;}
	.st894{fill:#CB2735;}
	.st895{fill:#EAA9AE;}
	.st896{fill:#8D8D8D;}
	.st897{fill:#B91F2F;}
	.st898{fill:#DA5B62;}
	.st899{fill:#CD323F;}
	.st900{fill:#A9A9A9;}
	.st901{fill:#991529;}
	.st902{fill:#4A4A4A;}
	.st903{fill:#973043;}
	.st904{fill:#BD202F;}
	.st905{fill:#0C0C0C;}
	.st906{fill:#912539;}
	.st907{fill:#C92331;}
	.st908{fill:#C22130;}
	.st909{fill:#1C1C1C;}
	.st910{fill:#F8F8F8;}
	.st911{fill:#B97582;}
	.st912{fill:#8E1227;}
	.st913{fill:#A6192B;}
	.st914{fill:#B31D2D;}
	.st915{fill:#C45C69;}
	.st916{fill:#E08289;}
	.st917{fill:#373737;}
	.st918{fill:#A0A0A0;}
	.st919{fill:#E9E9E9;}
	.st920{fill:#959595;}
	.st921{fill:#D75E69;}
	.st922{fill:#414141;}
	.st923{fill:#6F6F6F;}
	.st924{fill:#242424;}
	.st925{fill:#BABABA;}
	.st926{fill:#8B8B8B;}
	.st927{fill:#505050;}
	.st928{fill:#606060;}
	.st929{fill:#222222;}
	.st930{fill:#909090;}
	.st931{fill:#29182E;}
	.st932{fill:#B5B5B5;}
	.st933{fill:#E4E4E4;}
	.st934{fill:#888888;}
	.st935{fill:#C0C0C0;}
	.st936{fill:#C6C6C6;}
	.st937{fill:#29192E;}
	.st938{fill:#DADADA;}
	.st939{fill:#C3C3C3;}
	.st940{fill:#9B9B9B;}
	.st941{fill:#060507;}
	.st942{fill:#3D2545;}
	.st943{fill:#060307;}
	.st944{fill:#020202;}
	.st945{fill:#090909;}
	.st946{fill:#A6A6A6;}
	.st947{fill:#D9626C;}
	.st948{fill:#E49299;}
	.st949{fill:#404040;}
	.st950{fill:#A3A3A3;}
	.st951{fill:#E38C93;}
	.st952{fill:#D24753;}
	.st953{fill:#444444;}
	.st954{fill:#472B4F;}
	.st955{fill:#794988;}
	.st956{fill:#D75A65;}
	.st957{fill:#3A0A0E;}
	.st958{fill:#170E1A;}
	.st959{fill:#754683;}
	.st960{fill:#FDDCD8;}
	.st961{fill:#F6B2AE;}
	.st962{fill:#301C35;}
	.st963{fill:#51315B;}
	.st964{fill:#CB2936;}
	.st965{fill:#CA2533;}
	.st966{fill:#9B1529;}
	.st967{fill:#462A4F;}
	.st968{fill:#E27478;}
	.st969{fill:#35203B;}
	.st970{fill:#CD303E;}
	.st971{fill:#9B1629;}
	.st972{fill:#901227;}
	.st973{fill:#CA2735;}
	.st974{fill:#794986;}
	.st975{fill:#160D18;}
	.st976{fill:#E16F73;}
	.st977{fill:#CD313D;}
	.st978{fill:#A54B5C;}
	.st979{fill:#2B1A30;}
	.st980{fill:#170D19;}
	.st981{fill:#170E19;}
	.st982{fill:#B71E2E;}
	.st983{fill:#AD5C6B;}
	.st984{fill:#8F1E32;}
	.st985{fill:#9F172A;}
	.st986{fill:#AA1A2B;}
	.st987{fill:#A8192C;}
	.st988{fill:#331E39;}
	.st989{fill:#B61E2E;}
	.st990{fill:#B36977;}
	.st991{fill:#931328;}
	.st992{fill:#C72331;}
	.st993{fill:#A2182A;}
	.st994{fill:#C02130;}
	.st995{fill:#CC9AA4;}
	.st996{fill:#BC7B87;}
	.st997{fill:#4F2F58;}
	.st998{fill:#080608;}
	.st999{fill:#0E0E0E;}
	.st1000{fill:#6C6C6C;}
	.st1001{fill:#0C070D;}
	.st1002{fill:#484848;}
	.st1003{fill:#121212;}
	.st1004{fill:#E5949B;}
	.st1005{fill:#D5535E;}
	.st1006{fill:#921A24;}
	.st1007{fill:#272727;}
	.st1008{fill:#8E1E32;}
	.st1009{fill:#787878;}
	.st1010{fill:#B46A77;}
	.st1011{fill:#A0172A;}
	.st1012{fill:#8A1126;}
	.st1013{fill:#AF1C2D;}
	.st1014{fill:#848484;}
	.st1015{fill:#9E162A;}
	.st1016{fill:#EE9A98;}
	.st1017{fill:#F9F9F9;}
	.st1018{fill:#D23E49;}
	.st1019{fill:#F0A19F;}
	.st1020{fill:#896864;}
	.st1021{fill:#D13D47;}
	.st1022{fill:#060504;}
	.st1023{fill:#F6F6F6;}
	.st1024{fill:#DF6A6F;}
	.st1025{fill:#0A050B;}
	.st1026{fill:#EA9A9C;}
	.st1027{fill:#FDEAE7;}
	.st1028{fill:#89152B;}
	.st1029{fill:#DD6166;}
	.st1030{fill:#FDEAE8;}
	.st1031{fill:#951428;}
	.st1032{fill:#D9646E;}
	.st1033{fill:#313131;}
	.st1034{fill:#37213E;}
	.st1035{fill:#A4727E;}
	.st1036{fill:#F5ABBC;}
	.st1037{fill:#36262A;}
	.st1038{fill:#DD9AA9;}
	.st1039{fill:#2B1E21;}
	.st1040{fill:#9A6B76;}
	.st1041{fill:#050405;}
	.st1042{fill:#B47E8A;}
	.st1043{fill:#392240;}
	.st1044{fill:#5E3869;}
	.st1045{fill:#442F34;}
	.st1046{fill:#E8A2B2;}
	.st1047{fill:#3A282C;}
	.st1048{fill:#3F2C30;}
	.st1049{fill:#0F0B0C;}
	.st1050{fill:#402D31;}
	.st1051{fill:#BB838F;}
	.st1052{fill:#A16B9E;}
	.st1053{fill:#956098;}
	.st1054{fill:#8B5794;}
	.st1055{fill:#A06B9D;}
	.st1056{fill:#341F39;}
	.st1057{fill:#864B91;}
	.st1058{fill:#8A5694;}
	.st1059{fill:#9B669C;}
	.st1060{fill:#884C94;}
	.st1061{fill:#6A306C;}
	.st1062{fill:#8C4B97;}
	.st1063{fill:#B27BA6;}
	.st1064{fill:#140E0F;}
	.st1065{fill:#F1A8B9;}
	.st1066{fill:#9D49A1;}
	.st1067{fill:#824D90;}
	.st1068{fill:#5A3665;}
	.st1069{fill:#8F5B96;}
	.st1070{fill:#814D90;}
	.st1071{fill:#6D4179;}
	.st1072{fill:#AD77A3;}
	.st1073{fill:#723C7A;}
	.st1074{fill:#854D92;}
	.st1075{fill:#B37DA6;}
	.st1076{fill:#9E49A1;}
	.st1077{fill:#8C4B96;}
	.st1078{fill:#935E98;}
	.st1079{fill:#9E699C;}
	.st1080{fill:#331734;}
	.st1081{fill:#9C49A0;}
	.st1082{fill:#9B49A0;}
	.st1083{fill:#853D87;}
	.st1084{fill:#915C97;}
	.st1085{fill:#9A499F;}
	.st1086{fill:#99649A;}
	.st1087{fill:#98649A;}
	.st1088{fill:#844D91;}
	.st1089{fill:#070307;}
	.st1090{fill:#864C93;}
	.st1091{fill:#B079A4;}
	.st1092{fill:#855292;}
	.st1093{fill:#AF79A4;}
	.st1094{fill:#895593;}
	.st1095{fill:#824F90;}
	.st1096{fill:#AF78A4;}
	.st1097{fill:#AA74A2;}
	.st1098{fill:#864D93;}
	.st1099{fill:#9E48A1;}
	.st1100{fill:#98469B;}
	.st1101{fill:#824D91;}
	.st1102{fill:#8E4B98;}
	.st1103{fill:#956099;}
	.st1104{fill:#834D91;}
	.st1105{fill:#B37CA6;}
	.st1106{fill:#9C479F;}
	.st1107{fill:#9B499F;}
	.st1108{fill:#B47DA6;}
	.st1109{fill:#301631;}
	.st1110{fill:#251126;}
	.st1111{fill:#AD76A3;}
	.st1112{fill:#AB75A2;}
	.st1113{fill:#040304;}
	.st1114{fill:#9D49A0;}
	.st1115{fill:#9C679C;}
	.st1116{fill:#905C97;}
	.st1117{fill:#8D4B97;}
	.st1118{fill:#8B4B95;}
	.st1119{fill:#885492;}
	.st1120{fill:#D18EAE;}
	.st1121{fill:#885392;}
	.st1122{fill:#975F98;}
	.st1123{fill:#965F98;}
	.st1124{fill:#734681;}
	.st1125{fill:#D3D3D3;}
	.st1126{fill:#654D4A;}
	.st1127{fill:#545454;}
	.st1128{fill:#674E4B;}
	.st1129{fill:#2D1B33;}
	.st1130{fill:#F0F0F0;}
	.st1131{fill:#5E3969;}
	.st1132{fill:#3B3B3B;}
	.st1133{fill:#878787;}
	.st1134{fill:#3E2546;}
	.st1135{fill:#C887AB;}
	.st1136{fill:#FBFBFB;}
	.st1137{fill:#835091;}
	.st1138{fill:#E9A1B8;}
	.st1139{fill:#856561;}
	.st1140{fill:#9E9E9E;}
	.st1141{fill:#DCDCDC;}
	.st1142{fill:#818181;}
	.st1143{fill:#6B6B6B;}
	.st1144{fill:#D4D4D4;}
	.st1145{fill:#A1A1A1;}
	.st1146{fill:#969696;}
	.st1147{fill:#2B2B2B;}
	.st1148{fill:#43284B;}
	.st1149{fill:#3E2646;}
	.st1150{fill:#422749;}
	.st1151{fill:#472A4F;}
	.st1152{fill:#5C3867;}
	.st1153{fill:#39223F;}
	.st1154{fill:#4D4D4D;}
	.st1155{fill:#563360;}
	.st1156{fill:#633C6E;}
	.st1157{fill:#0B070C;}
	.st1158{fill:#38223E;}
	.st1159{fill:#402748;}
	.st1160{fill:#44294D;}
	.st1161{fill:#3B2442;}
	.st1162{fill:#72447F;}
	.st1163{fill:#535353;}
	.st1164{fill:#4D2F57;}
	.st1165{fill:#3F2647;}
	.st1166{fill:#784986;}
	.st1167{fill:#4E2F57;}
	.st1168{fill:#060506;}
	.st1169{fill:#663E72;}
	.st1170{fill:#301D35;}
	.st1171{fill:#1D1120;}
	.st1172{fill:#262626;}
	.st1173{fill:#181818;}
	.st1174{fill:#4A2C52;}
	.st1175{fill:#F5F5F5;}
	.st1176{fill:#949494;}
	.st1177{fill:#C9C9C9;}
	.st1178{fill:#603A6C;}
	.st1179{fill:#E1E1E1;}
	.st1180{fill:#1F1F1F;}
	.st1181{fill:#643D70;}
	.st1182{fill:#FEFEFE;}
	.st1183{fill:#3C2444;}
	.st1184{fill:#29182D;}
	.st1185{fill:#50305A;}
	.st1186{fill:#5C5C5C;}
	.st1187{fill:#585858;}
	.st1188{fill:#3A2240;}
	.st1189{fill:#B6B6B6;}
	.st1190{fill:#0C0B0D;}
	.st1191{fill:#3C2442;}
	.st1192{fill:#111111;}
	.st1193{fill:#FCFCFC;}
	.st1194{fill:#876662;}
	.st1195{fill:#AFAFAF;}
	.st1196{fill:#E2E2E2;}
	.st1197{fill:#080708;}
	.st1198{fill:#120209;}
	.st1199{fill:#34061A;}
	.st1200{fill:#1B030E;}
	.st1201{fill:#2C2C2C;}
	.st1202{fill:#110C1E;}
	.st1203{fill:#010102;}
	.st1204{fill:#0A0711;}
	.st1205{fill:#120D20;}
	.st1206{fill:#0B0A0B;}
	.st1207{fill:#140E22;}
	.st1208{fill:#0C0916;}
	.st1209{fill:#0A0712;}
	.st1210{fill:#060606;}
	.st1211{fill:#161026;}
	.st1212{fill:#39061D;}
	.st1213{fill:#38061C;}
	.st1214{fill:#36061B;}
	.st1215{fill:#130E21;}
	.st1216{fill:#161027;}
	.st1217{fill:#18112A;}
	.st1218{fill:#181129;}
	.st1219{fill:#07050D;}
	.st1220{fill:#0D0917;}
	.st1221{fill:#020103;}
	.st1222{fill:#020203;}
	.st1223{fill:#160F26;}
	.st1224{fill:#100C1C;}
	.st1225{fill:#0A0810;}
	.st1226{fill:#050309;}
	.st1227{fill:#19122B;}
	.st1228{fill:#150F24;}
	.st1229{fill:#100B1C;}
	.st1230{fill:#090710;}
	.st1231{fill:#160F25;}
	.st1232{fill:#140E23;}
	.st1233{fill:#292140;}
	.st1234{fill:#0A0713;}
	.st1235{fill:#3B3A35;}
	.st1236{fill:#A5A295;}
	.st1237{fill:#040404;}
	.st1238{fill:#150F25;}
	.st1239{fill:#0E0A19;}
	.st1240{fill:#06040B;}
	.st1241{fill:#211A32;}
	.st1242{fill:#2B2B27;}
	.st1243{fill:#A9A799;}
	.st1244{fill:#171129;}
	.st1245{fill:#130D21;}
	.st1246{fill:#030206;}
	.st1247{fill:#140F1F;}
	.st1248{fill:#020204;}
	.st1249{fill:#362A53;}
	.st1250{fill:#0F0B1B;}
	.st1251{fill:#605F57;}
	.st1252{fill:#D9D6C4;}
	.st1253{fill:#A9A798;}
	.st1254{fill:#171128;}
	.st1255{fill:#000001;}
	.st1256{fill:#3A2E59;}
	.st1257{fill:#2E2446;}
	.st1258{fill:#DBD8C6;}
	.st1259{fill:#C8C5B4;}
	.st1260{fill:#100B1B;}
	.st1261{fill:#030205;}
	.st1262{fill:#33284E;}
	.st1263{fill:#2D2446;}
	.st1264{fill:#60213F;}
	.st1265{fill:#D95694;}
	.st1266{fill:#DEB0B8;}
	.st1267{fill:#BFBDAC;}
	.st1268{fill:#050504;}
	.st1269{fill:#392D58;}
	.st1270{fill:#372C55;}
	.st1271{fill:#352A51;}
	.st1272{fill:#241C37;}
	.st1273{fill:#DA679B;}
	.st1274{fill:#DB80A5;}
	.st1275{fill:#D95292;}
	.st1276{fill:#DB7DA4;}
	.st1277{fill:#06050A;}
	.st1278{fill:#D54A8D;}
	.st1279{fill:#A23266;}
	.st1280{fill:#7B2148;}
	.st1281{fill:#A7356A;}
	.st1282{fill:#E0D8C8;}
	.st1283{fill:#1B1529;}
	.st1284{fill:#807E75;}
	.st1285{fill:#DD99AF;}
	.st1286{fill:#31282B;}
	.st1287{fill:#060206;}
	.st1288{fill:#040307;}
	.st1289{fill:#BCB9AA;}
	.st1290{fill:#8F8D82;}
	.st1291{fill:#DB83A6;}
	.st1292{fill:#DDA4B3;}
	.st1293{fill:#382C56;}
	.st1294{fill:#DEDBC8;}
	.st1295{fill:#A19E91;}
	.st1296{fill:#362B53;}
	.st1297{fill:#382C55;}
	.st1298{fill:#221B35;}
	.st1299{fill:#0E0B15;}
	.st1300{fill:#0E0918;}
	.st1301{fill:#4E4D48;}
	.st1302{fill:#727168;}
	.st1303{fill:#2A2927;}
	.st1304{fill:#4D4C47;}
	.st1305{fill:#353430;}
	.st1306{fill:#2A2140;}
	.st1307{fill:#130D20;}
	.st1308{fill:#282828;}
	.st1309{fill:#362B54;}
	.st1310{fill:#0C0915;}
	.st1311{fill:#D0CDBB;}
	.st1312{fill:#0B0B0C;}
	.st1313{fill:#2B2242;}
	.st1314{fill:#08060C;}
	.st1315{fill:#020104;}
	.st1316{fill:#07050C;}
	.st1317{fill:#DDDAC7;}
	.st1318{fill:#3F3E39;}
	.st1319{fill:#352A52;}
	.st1320{fill:#130F1D;}
	.st1321{fill:#050308;}
	.st1322{fill:#130E22;}
	.st1323{fill:#171028;}
	.st1324{fill:#8C8A7E;}
	.st1325{fill:#181224;}
	.st1326{fill:#4B4B4B;}
	.st1327{fill:#ABA89A;}
	.st1328{fill:#191427;}
	.st1329{fill:#E0DDCA;}
	.st1330{fill:#161614;}
	.st1331{fill:#33284F;}
	.st1332{fill:#161123;}
	.st1333{fill:#31302C;}
	.st1334{fill:#68675E;}
	.st1335{fill:#CAC7B6;}
	.st1336{fill:#D8D5C3;}
	.st1337{fill:#8E8C80;}
	.st1338{fill:#2D2D29;}
	.st1339{fill:#110C1D;}
	.st1340{fill:#06040C;}
	.st1341{fill:#110D1A;}
	.st1342{fill:#626158;}
	.st1343{fill:#A19F91;}
	.st1344{fill:#0F0A1A;}
	.st1345{fill:#807E73;}
	.st1346{fill:#171224;}
	.st1347{fill:#0F0C17;}
	.st1348{fill:#050307;}
	.st1349{fill:#32284D;}
	.st1350{fill:#0A070F;}
	.st1351{fill:#342950;}
	.st1352{fill:#0B0811;}
	.st1353{fill:#08060F;}
	.st1354{fill:#281F3D;}
	.st1355{fill:#1A1428;}
	.st1356{fill:#06040A;}
	.st1357{fill:#392D57;}
	.st1358{fill:#2C2344;}
	.st1359{fill:#1B152A;}
	.st1360{fill:#2C2243;}
	.st1361{fill:#261E3B;}
	.st1362{fill:#030204;}
	.st1363{fill:#110C1F;}
	.st1364{fill:#171027;}
	.st1365{fill:#0E0B16;}
	.st1366{fill:#1D172C;}
	.st1367{fill:#010002;}
	.st1368{fill:#201932;}
	.st1369{fill:#120D1F;}
	.st1370{fill:#31274C;}
	.st1371{fill:#0E0A18;}
	.st1372{fill:#474747;}
	.st1373{fill:#1A1528;}
	.st1374{fill:#211A33;}
	.st1375{fill:#090610;}
</style>
<g id="_x37_">
	<g>
		<g>
			<g>
				<path class="st0" d="M242.1286774,46.6064835c-0.0715027,0.5720329-0.1668701,1.1440659-0.2860107,1.7161713
					c-1.5850983,7.2102814-7.5798035,13.4910126-13.7532501,16.279747
					c-7.0434113,3.1821213-13.7889557,1.5612335-25.5756531-1.2632866
					c-9.4747009-2.2643509-16.9352875-5.3511047-21.8812256-7.687027c-3.7660065,0.3098755-7.949173,0.4648132-12.5018005,0.3337326
					c-3.9090118-0.1072922-7.5201569-0.4170952-10.809494-0.8461914c-2.3240051,1.2037125-6.7216187,3.0867538-12.5018158,3.2178345
					c-2.6695862,0.0595741-9.9990845-0.1668701-17.0663681-5.243885c-5.3630295-3.8613701-7.9849701-8.6761551-9.1171112-11.143158
					c-2.1333389-4.6241302-4.2785339-9.2363319-6.4237366-13.8485317c-0.1549377-0.6197529-0.7866135-3.241621,0.6793289-5.7444115
					c1.5373764-2.6219406,4.7552109-4.0401688,8.1041183-3.5514965c0.7150421-1.5374489,2.2762833-4.2546797,5.3272476-6.078145
					c4.779068-2.86024,11.2385864-2.3597107,16.6373444,1.1799278c0.7150421-0.2860889,6.0542755-2.3717127,10.4757538,0.5124588
					c1.2514343,0.8104048,2.1214142,1.8233938,2.7053833,2.6934462c1.6565857-2.2287054,4.3142548-5.2438831,8.2709808-7.7704611
					c10.3089752-6.5548162,22.2268219-5.1723776,30.1044922-3.3369827c2.2047729,0.5124588,4.0878143,1.0606332,5.5418396,1.4778018
					c6.6620331,1.942615,14.2894745,5.3034568,21.2137451,9.6414986c2.6219482,1.6446686,5.1485291,3.4204159,7.4724426,5.3153858
					C237.2303925,29.3851776,243.1655273,37.8230324,242.1286774,46.6064835z"/>
				<path class="st3" d="M138.8179474,20.7852554c0.0831757-0.9739628,0.419281-3.248312,2.1717377-5.2237339
					c0.6692505-0.7544308,1.377655-1.2764912,1.9705658-1.6337576"/>
				<path class="st3" d="M138.5049591,37.1600037c-0.1950073,2.8598022,0.5731964,4.1247635,1.3023224,4.7521515
					c1.8488617,1.5909157,4.6911621,0.1531944,10.1348572,0.1126404c2.7455139-0.0204773,4.9951172,0.3230782,6.4750519,0.6193504"
					/>
				<path class="st3" d="M127.4202271,14.2665176c-0.1214523-1.015934-0.3625793-4.1384401,1.5202179-7.3477631
					c1.6252289-2.7702956,3.9404449-4.083776,4.8985291-4.5607004"/>
				<path class="st3" d="M130.1228485,13.8160706c1.0237122-1.5450506,2.3793335-3.2875195,4.1604309-5.013876
					c0.7864838-0.7623234,1.5654907-1.4338293,2.314621-2.02423"/>
				<path class="st3" d="M133.8952789,18.6019764c0.0182495-0.6311722,0.1186523-1.5533791,0.5067444-2.5900078
					c0.4731445-1.2637978,1.1654663-2.1409426,1.6328278-2.6463451"/>
				<path class="st3" d="M140.3896179,12.5060453c0.4421234-0.779562,1.1004791-1.7510157,2.0639954-2.7157764
					c0.6179962-0.6188059,1.22995-1.1030769,1.7735901-1.4779835"/>
				<path class="st3" d="M149.9702911,18.4049225c0.2857056-1.4832211,0.7861176-3.2923203,1.6891479-5.2363539
					c0.4584351-0.9869099,0.9511719-1.8591089,1.4357605-2.6181583"/>
				<path class="st3" d="M154.5988617,15.3404264c0.4298706-1.5282478,0.9775391-3.1805544,1.680069-4.9180403
					c0.4312897-1.0666342,0.8806915-2.0658741,1.3347473-2.9969196"/>
				<path class="st3" d="M160.5274353,18.1515293c0.8360291-3.3167238,1.9783783-6.899971,3.5471954-10.6415749
					c0.4656982-1.1106424,0.9459381-2.1804042,1.4357758-3.2093954"/>
				<path class="st3" d="M166.3831329,15.7304258c2.0638275-2.0587816,5.1812592-4.6118736,9.4898224-6.4601803
					c1.4582672-0.6255713,2.8517151-1.0840559,4.1359406-1.4224825"/>
				<path class="st3" d="M161.6535339,25.0770321c0.4356079-0.6971474,1.0201721-1.4814739,1.8017578-2.2521992
					c2.109024-2.0797672,4.4883423-2.9125042,5.8556976-3.2656612"/>
				<path class="st3" d="M165.0318298,30.8201351c0.9261017-1.2318287,2.5130463-3.0162697,4.9548187-4.5044003
					c1.6413727-1.00033,3.1887665-1.57411,4.3917694-1.9143543"/>
				<path class="st3" d="M160.0770111,42.0810966c0.3849487,0.4439011,0.8741913,1.1160622,1.2386932,2.0269585
					c0.6115112,1.5281754,0.5395966,2.8976288,0.4504547,3.6035042"/>
				<path class="st3" d="M166.6928101,45.6846008c0.7146759,0.5439186,1.9662476,1.6476517,2.8715515,3.4627533
					c0.7476501,1.4990044,0.9533081,2.8699493,1.0134888,3.7161064"/>
				<path class="st3" d="M163.6805115,51.9907188c0.3890991,0.671505,0.7731781,1.4218636,1.1260986,2.2521973
					c1.0256958,2.4132118,1.4293671,4.6574821,1.5765228,6.4187546"/>
				<path class="st3" d="M165.5948639,38.1397476c1.8637085,0.40662,4.0594788,0.7542496,6.5313568,0.9008942
					c2.8747864,0.1705399,5.4252319,0.0278587,7.5448608-0.2252426"/>
				<path class="st3" d="M169.5362091,35.3244972c1.8401947,0.1921082,4.0479584,0.2856903,6.5313568,0.1126022
					c2.2733612-0.1584663,4.2808838-0.505764,5.9683075-0.900856"/>
				<path class="st3" d="M173.8716736,31.5802383c2.0590363-0.7688694,4.4019012-1.4841652,7.0099487-2.0269566
					c0.9886932-0.2057838,1.9473114-0.3725796,2.8715363-0.5067482"/>
				<path class="st3" d="M173.3649445,17.7574196c1.1637726-0.7517395,2.3648376-1.5035152,3.6035004-2.2521992
					c2.2258453-1.345377,4.4077148-2.5809155,6.5313568-3.7161074"/>
				<path class="st3" d="M182.4863129,24.626585c2.1756134-1.6991158,5.1693115-3.6267815,9.0087585-5.0674133
					c1.489563-0.5589027,2.9075012-0.9698524,4.217392-1.2735443"/>
				<path class="st3" d="M192.0581207,16.0682697c1.3930511-1.0330276,2.9681854-2.1022444,4.729599-3.1530571
					c1.5314331-0.9136238,3.0057373-1.6952963,4.3917847-2.3648024"/>
				<path class="st3" d="M179.8744812,4.5763564c0.4651794-0.6665964,1.0215149-1.3893487,1.6828003-2.1338506
					c0.6691284-0.7533398,1.3289337-1.397532,1.9425201-1.9425058"/>
				<path class="st3" d="M189.9258728,5.1264582c1.1595154-0.8265896,2.5070801-1.6883857,4.046463-2.5153391
					c1.1850891-0.6366273,2.3203888-1.1647617,3.3784332-1.6043705"/>
				<path class="st3" d="M186.4557953,15.0266228c1.2151947-1.6366673,2.9250488-3.5645523,5.2696075-5.3619766
					c0.9791107-0.7506123,1.9370117-1.3773832,2.8382874-1.9013348"/>
				<path class="st3" d="M193.465744,23.5568237c1.7627258-1.1173706,3.8468475-2.2875519,6.2498322-3.3782997
					c2.705246-1.2279377,5.2288971-2.0892963,7.4322357-2.7026463"/>
				<path class="st3" d="M190.8194122,28.567934c1.3627319-0.2383347,3.023056-0.6432819,4.8422089-1.351305
					c1.8853302-0.7337723,3.4277496-1.5932407,4.6170044-2.3648014"/>
				<path class="st3" d="M185.1889343,37.5766983c2.1197815-0.3583603,4.7987518-1.0589256,7.6574554-2.4774055
					c1.2121887-0.6014938,2.2825165-1.2456512,3.2152252-1.8803864"/>
				<path class="st3" d="M183.0493622,41.9684563c1.2971497,1.5031891,3.0701599,3.2717705,5.4052582,4.9548492
					c1.6030121,1.1554146,3.1424713,2.0337944,4.5043793,2.70261"/>
				<path class="st3" d="M176.9121246,46.5291595c0.140152,1.3956032,0.5082092,3.3897896,1.5202484,5.5741615
					c0.6920319,1.4936943,1.4981995,2.6727142,2.2001648,3.5487671"/>
				<path class="st3" d="M186.2024384,51.3150635c0.1228333,1.8299751,0.5730591,4.9537201,2.3647919,8.3331108
					c1.4542084,2.7427979,3.2410583,4.6146736,4.5043793,5.7430992"/>
				<path class="st3" d="M203.6006012,45.0089493c0.8356018,0.4588852,2.3522034,1.4426689,3.5472107,3.2656593
					c0.7881317,1.2022972,1.1625366,2.3519287,1.3513031,3.1530571"/>
				<path class="st3" d="M215.2556915,48.893959c-0.4192352,2.0816231-1.0114899,4.4172211-1.8580475,6.9255066
					c-0.849762,2.5177727-1.7979584,4.7420769-2.7294922,6.6573792"/>
				<path class="st3" d="M219.225174,47.9649506c0.5245972,1.7047539,1.0188599,3.6687927,1.3852997,5.8643265
					c0.3085022,1.8484879,0.4770813,3.5657158,0.5572357,5.1150932"/>
				<path class="st3" d="M221.7588959,46.8670044c1.1556244,0.7369347,2.4581604,1.6787453,3.8005829,2.8715134
					c1.2169495,1.0812912,2.2221222,2.1515617,3.040451,3.1249428"/>
				<path class="st3" d="M230.3971252,45.651722c0.5580597,0.6106606,1.2773132,1.5430489,1.8344727,2.8199425
					c0.3576202,0.8196068,0.5589142,1.5759277,0.6756439,2.1958961"/>
				<path class="st3" d="M239.0726166,49.6822166c2.838913,1.0814743,5.9594269,2.5158844,9.1965027,4.437294
					c1.1920013,0.7075157,2.3111877,1.4284859,3.3594666,2.1503639"/>
				<path class="st3" d="M234.849762,53.2012672c2.261673,1.0416145,4.826355,2.4128113,7.5166931,4.2228584
					c2.1534119,1.4487762,4.005722,2.9219971,5.574173,4.3073425"/>
				<path class="st3" d="M230.0075531,58.0716286c0.3771515,0.9733772,0.7378235,2.1035881,1.0134888,3.3782997
					c0.542099,2.5067177,0.5715027,4.7216721,0.4504395,6.4187546"/>
			</g>
			<g>
				<path class="st19" d="M300.7287292,46.534977c0.131073,3.5991402-11.9893494,6.745472-13.3480225,7.0911331
					c-16.1963196,4.0997429-28.1141663-0.7627602-45.5380402-5.3034554
					c-6.519104-1.7042427-13.8008881-3.3608437-22.3698273-4.4930534
					c-5.946991-0.7865448-14.6232147-1.5969505-25.3373566-1.3586502c-0.3813782,0.0715027-1.3347931,0.1668663-1.9306793-0.381382
					c-0.8938446-0.7865448-0.8699799-2.7887344,0.5839539-4.5168381c2.574295-3.8137245,7.5201721-10.1182384,15.6242828-15.0164566
					c1.3944397-0.8461933,2.8841705-1.6446686,4.4811249-2.3835697c2.3120728-1.0726357,5.0531616-2.3239956,8.3782806-3.0271797
					c1.1322174-0.2382984,2.3358612-0.4170952,3.6110687-0.5124588c6.6858978-0.4766712,10.4043274,1.8830395,16.708847,5.5418282
					c2.9198914,1.6923141,6.3998871,3.6707172,10.9882202,5.768198
					c11.9178619,5.4583931,28.4121857,10.4519768,36.3256378,12.8474731
					C295.3061218,42.7212524,300.6333618,44.1633377,300.7287292,46.534977z"/>
				<path class="st3" d="M199.5466614,36.2253914c3.2542725-0.3264618,7.2126923-1.0363731,11.5375519-2.5327225
					c2.248764-0.778038,4.2606506-1.6524544,6.029541-2.5347271"/>
				<path class="st3" d="M206.246933,37.4640961c2.6651917-0.5688705,5.5636749-1.3635254,8.6146393-2.4774055
					c1.138443-0.4156418,2.2270966-0.8497963,3.2656708-1.2950058"/>
				<path class="st3" d="M210.1882629,29.8910904c4.2074738-1.058197,6.9179993-2.7712784,8.6146393-4.1384048
					c1.8542328-1.4941311,2.4405365-2.5291595,4.2228546-3.5472031c2.9714203-1.6972256,6.2087555-1.6002617,8.4457245-1.2668533"/>
				<path class="st3" d="M220.4629364,24.2624817c-1.0136871,0.3679581-2.3153229,0.7360992-3.8559113,0.9271545
					c-1.1421509,0.1416264-2.1698151,0.155447-3.0404816,0.1126022"/>
				<path class="st3" d="M223.8104401,21.8036251c-0.8328552,0.0528831-2.2832642,0.0273876-3.8779297-0.6555023
					c-0.843338-0.3611584-1.4986725-0.8084049-1.9741821-1.1948051"/>
				<path class="st3" d="M224.2081604,31.1016407c3.1452332-1.0405197,5.0878906-2.5078468,6.3061371-3.7161064
					c1.0862427-1.0773277,1.9454651-2.2947178,3.6598206-2.8152504c1.3594971-0.4127674,2.645874-0.2018185,3.5471954,0.0563011"/>
				<path class="st3" d="M222.9412994,34.0294952c3.9724274,0.3834496,8.2940674,0.6374969,12.9219513,0.6756516
					c8.3333435,0.0687027,11.0311737,0.3622475,14.4421844-0.5912018c3.5986786-1.0058937,6.299057-2.5945892,7.9612274-3.7262535"
					/>
				<path class="st3" d="M253.5144196,32.988102c1.4119415,0.5589027,2.9890594,1.2934036,4.6455231,2.2660179
					c2.6408081,1.5506172,4.7052307,3.2495842,6.2498474,4.7296066"/>
				<path class="st3" d="M223.1102142,38.1678963c3.3213959-0.1487541,7.3449707-0.1854134,11.9084625,0.0844536
					c7.6371765,0.4516487,9.5965729,1.3366852,17.3981934,1.6891479c3.5359192,0.1597404,3.6722412,0.0022926,11.9929199,0.0422287
					c5.8272095,0.0279694,10.5930481,0.1283875,13.76651,0.2111282"/>
				<path class="st3" d="M248.785202,42.4752045c2.6237793,0.5838203,6.8885345,1.5441437,12.1618195,2.7871017
					c9.5753784,2.2569618,12.7095642,3.1437111,18.2427673,4.2228546c3.2676697,0.6372833,8.2228699,1.5076256,14.4236145,2.2029915
					"/>
				<path class="st20" d="M269.9806824,10.8886547c0.0953674,1.275218-0.9533997,2.4074287-2.5027771,3.6468582
					c-7.9491882,6.2926579-19.6763153,7.4248695-25.8855438,7.6393814
					c-6.3045197-3.6587887-10.0229492-6.0184994-16.708847-5.5418282c-1.2752075,0.0953636-2.4788513,0.2741604-3.6110687,0.5124588
					c-6.9242706-4.3380413-14.551712-7.6988831-21.2137451-9.6414986c-1.4540253-0.4171686-3.3370667-0.965343-5.5418396-1.4778018
					c4.5049133-0.6078215,11.0835876-1.4420857,19.0447083-2.2286315c21.1541748-2.1094823,30.140274-1.7758203,38.5184937-0.345664
					C255.9533539,4.1193261,269.6708069,6.4671798,269.9806824,10.8886547z"/>
				<path class="st3" d="M202.6434326,8.3129406c0.0303802-0.0056009,3.9590607-0.7292261,3.9894409-0.7348275
					c0.0092773-0.0017095,2.194809-0.4042931,2.2040863-0.4060025"/>
				<path class="st3" d="M208.3302155,10.4941092c2.1853943-0.8241167,4.586441-1.6119356,7.1938934-2.3018093
					c1.3200226-0.3492646,2.6025238-0.6495023,3.8418427-0.9075866"/>
				<path class="st3" d="M215.4141235,13.787302c2.7300873-0.6216068,4.9250641-0.6367006,6.4292297-0.5342817
					c2.7756653,0.1890173,4.2528839,0.8499765,7.2633362,0.7601414c1.806366-0.0539007,3.27388-0.3515196,4.2228546-0.5912008"/>
				<path class="st3" d="M226.7418823,8.2982101c4.5181885-0.246191,9.373764-0.3460274,14.5266266-0.2252054
					c5.9345398,0.1391535,11.4703522,0.5523577,16.5536041,1.1260633"/>
				<path class="st3" d="M232.7101898,4.8073082c2.203064-0.0551376,4.4802094-0.0719042,6.8269501-0.0422258
					c2.6987,0.0341516,5.3049316,0.1274052,7.8122864,0.2674313"/>
				<path class="st3" d="M236.5389099,13.7034683c1.7833405,0.1903982,3.7854767,0.2931452,5.9683075,0.2252054
					c1.1493683-0.0357885,2.2398224-0.1154766,3.265686-0.2252054"/>
				<path class="st3" d="M248.2784576,12.2395601c2.491806-0.2577572,5.2341614-0.4225874,8.192337-0.4222965
					c2.2473145,0.0002184,4.3641968,0.095727,6.3343201,0.253356"/>
			</g>
			<g>
				<path class="st1" d="M138.5864105,36.9172668c-1.0845642,3.6468582-6.3283691,4.7313499-10.3685303,4.8743591
					c-1.0964279,0.0238571-2.0975571,0-2.9079666-0.0715065c-0.2860107-0.0237846-4.5645523-0.4528084-8.2471237-2.4312134
					c-2.2882843-1.2275009-4.3500443-3.0628967-5.1008759-5.7681961c-0.5720367-2.0856247-0.1906509-4.0401688,0.2502975-5.3988209
					c3.8613739-0.8223343,9.2482605-1.4658718,15.5408478-0.679327c3.0390396,0.3813801,5.7205582,1.0130615,7.9969101,1.7161732
					C136.4173584,29.8976364,139.599411,33.5325661,138.5864105,36.9172668z"/>
				<path class="st1" d="M158.7633209,28.8131447c-0.1787872,1.1202793-0.5958862,2.7887344-1.656601,4.4929771
					c-0.9176941,1.4778748-2.1809845,2.7530212-3.6468506,3.7422218c0,0.0119324,0,0.0119324,0,0.0119324
					c-3.122467,2.1332664-7.1626434,3.0271034-10.7975769,2.0379753c-0.3575134-0.0953636-1.0844879-0.2979469-1.9426117-0.6673965
					c-1.6208038-0.6912537-3.7064362-2.0022621-4.6837006-4.4454041c-0.7984772-1.9783325-0.5124664-3.861372-0.2860107-4.8267155
					c1.2394257-1.3228626,3.1343994-2.9318161,5.7801208-3.9090157
					C149.9440918,22.1153202,158.0244293,28.2291813,158.7633209,28.8131447z"/>
				<path d="M128.4323883,40.6117706c-0.0357208,0.5124588-0.131073,0.9176979-0.2145081,1.1679955v0.0118599
					c-1.0964279,0.0238571-2.0975571,0-2.9079666-0.0715065c-0.2860107-0.0237846-4.5645523-0.4528084-8.2471237-2.4312134
					c-0.9415588-3.3012657-0.5482483-6.0304298,0.9295502-6.9123383c0.8104019-0.4767418,1.7161713-0.274086,2.7530212-0.0357857
					C124.6425171,33.2584763,128.6588287,36.9053345,128.4323883,40.6117706z"/>
				<path d="M153.4598694,37.0483437c0,0.0119324,0,0.0119324,0,0.0119324
					c-3.122467,2.1332664-7.1626434,3.0271034-10.7975769,2.0379753c-0.3575134-0.0953636-1.0844879-0.2979469-1.9426117-0.6673965
					c-1.0844879-2.2048454-0.8819122-4.6837769,0.5005341-6.2568703c1.8353882-2.1094818,4.8505707-1.5850925,5.5656891-1.4659443
					C151.3981018,31.4946594,153.3049316,36.6312485,153.4598694,37.0483437z"/>
				<path class="st0" d="M120.9956589,18.8259811c5.9663315,2.3378525,9.9943771,2.8305988,12.6743851,2.7882996
					c0.5980377-0.0094204,1.8478546-0.0568466,2.6463318,0.7601414c1.5406647,1.5764008,0.8980255,5.8565044-1.3794556,7.60112
					c-2.0500031,1.570364-4.5708771,0.4324799-10.4445496-0.6193523c-2.9508514-0.5284252-7.1218567-1.1020947-12.280159-1.2343006
					c-0.1278458-0.482563-0.8697891-3.4789371,0.9596786-6.1806374
					C114.8184738,19.5096359,117.8929825,18.2840271,120.9956589,18.8259811z"/>
				<path class="st0" d="M157.5995941,22.3744221c-5.0089111-1.3099518-9.2376862-1.7601452-12.2744598-1.9143906
					c-6.312973-0.3206425-7.8355713,0.6194229-8.670929,1.4639435c-2.0478058,2.0702744-2.4039459,6.0316277-0.9036407,7.2403984
					c1.3049164,1.0513573,3.7598114-0.1846161,5.40802-0.8216438c3.8247528-1.4782372,9.9032898-2.2811146,19.5940704,1.1260643"/>
				<path class="st2" d="M118.4938736,36.7152634c-0.2963104,0.425209-0.0654526,1.189167,0.4384079,1.3681831
					c0.5382462,0.1912346,1.2522507-0.3332253,1.2246246-0.8868179c-0.0212555-0.4260063-0.4775085-0.784584-0.9290237-0.8023338
					C119.1885834,36.3927689,118.726387,36.3816032,118.4938736,36.7152634z"/>
				<path class="st2" d="M120.817421,34.0579834c-0.2089005,0.2997704-0.0461426,0.8383675,0.309082,0.9645729
					c0.3794632,0.1348228,0.882843-0.2349243,0.8633652-0.6252098c-0.0149841-0.3003387-0.336647-0.5531349-0.6549683-0.5656509
					C121.3071976,33.8306198,120.9813461,33.8227501,120.817421,34.0579834z"/>
				<path class="st2" d="M142.2707672,35.3799553c-0.3034515,0.4354439-0.0670319,1.2177925,0.4489594,1.4011192
					c0.5511932,0.1958389,1.2823944-0.3412476,1.2541046-0.9081688c-0.0217743-0.4362602-0.4889984-0.8034706-0.9513855-0.8216438
					C142.982193,35.0496979,142.5088806,35.0382614,142.2707672,35.3799553z"/>
				<path class="st2" d="M146.163559,32.6547699c-0.3758545,0.5393486-0.0830231,1.5083809,0.5560913,1.7354507
					c0.6827393,0.242569,1.5884094-0.4226761,1.55336-1.1248741c-0.0269623-0.5403633-0.6056824-0.9951935-1.1784058-1.017704
					C147.044754,32.2457047,146.4584961,32.2315407,146.163559,32.6547699z"/>
				<path class="st2" d="M145.8315887,35.8973618c-0.5042267,0.7235565-0.1113739,2.0235596,0.7460175,2.3281822
					c0.9159088,0.3254166,2.1309052-0.5670357,2.0838928-1.5090675c-0.0361633-0.7249184-0.8125458-1.3350906-1.5808868-1.3652954
					C147.0137482,35.3485832,146.2272491,35.3295822,145.8315887,35.8973618z"/>
			</g>
			<g>
				<path class="st4" d="M118.8900452,44.3332596c-0.6593857,1.2263374-0.276619,2.2874069-0.2765808,2.2875175
					c0.3566284,0.9885826,1.3748398,1.4502678,1.7316208,1.6120415c2.9461594,1.3358498,11.1029282,0.6726341,15.2674942,0.9145355
					c7.7861786,0.452301,14.5652008,4.8206406,18.6727753,3.5753899c0.5118713-0.1551933,1.9008789-0.576252,2.4133606-1.7454872
					c0.000061-0.0001106,0.4572754-1.0432129-0.1163788-2.4312134c-1.1849976-2.86726-9.1689606-2.2395439-18.5205078-3.1992874
					C128.2752838,44.3423882,120.1837997,41.9271049,118.8900452,44.3332596z"/>
				<path class="st3" d="M118.5141068,46.057579c3.0031586-0.0825233,6.1900787-0.0525551,9.5395432,0.13377
					c7.9754944,0.4436836,15.0829315,1.6742744,21.1565247,3.1671333"/>
			</g>
			<path d="M157.3212433,55.1396294c-1.8837891,4.8352585-4.0566254,6.4455948-5.830719,6.9296494
				c-1.0662689,0.2909241-2.7454987,0.3815613-2.7870789,0.844593c-0.031662,0.3525009,0.9027252,0.7310448,1.7735901,1.0134583
				c-0.7713623,1.2490311-2.0230408,2.9528732-3.9694977,4.4762497c-3.3005676,2.5831375-6.6853943,3.1497879-6.5876617,3.6316528
				c0.0547485,0.2698746,1.1856232,0.4338684,6.0809326-0.0844498c-1.7416992,2.4573288-3.6777039,5.0047836-5.8275452,7.6011581
				c-1.303833,1.5746155-2.6023407,3.0658417-3.8850403,4.4762115c0.5348969,0.2252045,1.0697784,0.4504471,1.6046753,0.6756516
				c1.8452911-1.8376465,3.7830658-3.9352417,5.7346344-6.311058c1.6577759-2.018158,3.1176147-3.9839783,4.400238-5.8507614
				c0.538681,3.106575,1.0454254,4.6548615,1.5202484,4.6451492c0.6859589-0.0140381,1.3053131-3.2798767,1.8580475-9.7970505
				c1.5340271,3.4454041,2.160553,4.0516586,2.4492493,3.9694977c0.5582581-0.1588287-0.648819-2.7485046,0.3378296-5.9120026
				c0.7680969-2.462677,2.1459351-2.9656792,5.2082062-7.8545113c0.5509796-0.8796196,0.9752655-1.6119385,1.2378693-2.0748215
				c-0.5133667-0.0503006-1.032959-0.1050377-1.558548-0.164505
				C158.4853058,55.2863846,157.8987579,55.2148781,157.3212433,55.1396294z"/>
			<path d="M204.1244965,68.6417389c0.4268188-0.8552246,0.3696899-1.881424-0.1340637-2.6937027
				c-2.7603302-4.4509125-5.6147614-6.2711563-7.8220673-7.0881157c-1.6907043-0.6257553-4.129837-1.0804558-5.4052429-3.2093964
				c-0.7719574-1.2885666-1.1332703-3.2166328-0.5067596-3.7161102c0.9330292-0.7438316,4.5830383,1.2611389,15.9835663,12.4572105
				c1.1948547,1.1734238,1.3709106,3.0366745,0.414856,4.411644c-0.5715942,0.8220367-1.2025604,1.7536163-1.8717804,2.781517
				c-1.8454742,2.8346024-2.7770386,4.2806168-3.2093811,5.6868057c-1.1184692,3.6378708-0.1732025,6.5836182-0.844574,6.7565613
				c-0.2858276,0.0736465-0.8111877-0.3691254-1.8580475-2.5337067c-0.9008789,4.6733017-1.8017578,9.3465729-2.7026367,14.0198746
				l-6.0809021-1.6891479c-0.6427002-2.3733902-1.067337-5.556778,0.6193542-7.8263626
				c0.8460236-1.1384277,1.9159393-1.6333923,2.252182-1.8017502
				C195.3089294,83.0204391,198.8184967,79.2737427,204.1244965,68.6417389z"/>
			<path d="M242.2819977,91.7419128c-0.9316101-0.9454117-1.9413757-2.1020279-2.9278564-3.4909058
				c-1.4836426-2.0888596-2.4790649-4.0899963-3.1530609-5.743103c-0.8620148,1.9800797-1.7657471,3.7310181-2.252182,3.6035461
				c-0.6676178-0.174942-0.1721954-3.7894669,0.2252197-8.7835617c0.303009-3.8076324,0.4666748-7.3819885,0.5347748-10.6907272
				c0.021759-1.056572-0.7162018-1.9755096-1.7446899-2.2184372c-10.8234863-2.5564613-18.9893341-5.5300179-24.6902924-7.9236069
				c-9.2939911-3.9021416-9.3078766-5.1170235-9.2339935-5.4052582c0.1804199-0.7038383,2.1367645-0.7680702,2.9278564-0.7882919
				c7.0830078-0.1809807,12.6848602,4.019474,16.3283844,6.1935501c3.7218323,2.2207947,9.2641144,4.6327858,17.2801056,5.4818611
				c0.8876648,0.0940208,1.5019379,0.9042435,1.4266052,1.7936897c-0.1950226,2.3022919,0.0339203,4.879158,1.3377991,7.2510681
				c2.1947021,3.9923782,6.4924469,5.6896439,6.193512,6.3061523c-0.1519928,0.3134384-1.422348,0.2033157-5.8556824-1.3513031
				c0.3718872,1.6276093,0.8792114,3.4089203,1.5765228,5.2926178c1.3636932,3.6838837,3.0573578,6.6878967,4.6170044,9.0087967
				C244.0086823,90.7659836,243.14534,91.2539291,242.2819977,91.7419128z"/>
			<g>
				<path class="st21" d="M135.7023163,99.569397c1.2990112,4.9458618,2.2167053,12.1919403-0.7627563,19.1757812
					c-0.8581238,1.9903336-3.3489075,7.8300323-6.7574768,7.7704544c-0.9414825-0.0238571-1.7280273-0.4885941-2.2762756-0.9295502
					c-0.893837,1.5135117-2.419281,3.5037766-4.8147812,4.218895c-4.0401688,1.2037048-8.0922699-1.9187622-12.8474731-5.5775452
					c-4.1712494-3.2178345-6.3998795-4.9340134-7.3175812-7.1745682l-0.0118561-0.0119324
					c-0.0715027-0.1668701-0.1311493-0.3336639-0.1787949-0.5005264
					c-1.9187546-6.0542908,3.3250504-12.5852432,7.2580032-17.4834671
					c2.4431458-3.0391083,6.2925873-7.0434875,12.0846405-10.6426239c2.8453674-3.6761856,5.6907883-7.3523178,8.536171-11.0363312
					c0.7993164-1.0348969,2.1209869-1.538475,3.3983002-1.2584457c3.0335388,0.665062,7.519043,2.2410812,11.0550995,6.1689835
					c0.386261,0.4253311,0.7377625,0.8538208,1.0585175,1.2808762c0.9066162,1.2070541,0.9562988,2.8506775,0.0798645,4.0798264
					C141.3727264,91.6226044,138.5330963,95.5960312,135.7023163,99.569397z"/>
				<path class="st22" d="M134.9395599,118.7451782c-0.8581238,1.9903336-3.3489075,7.8300323-6.7574768,7.7704544
					c-0.9414825-0.0238571-1.7280273-0.4885941-2.2762756-0.9295502c-0.893837,1.5135117-2.419281,3.5037766-4.8147812,4.218895
					c-4.0401688,1.2037048-8.0922699-1.9187622-12.8474731-5.5775452c-4.1712494-3.2178345-6.3998795-4.9340134-7.3175812-7.1745682
					c3.5038528,3.182045,6.6740417,5.3868866,9.0098953,6.8408279c2.5862198,1.6089554,4.0759506,2.2644196,5.9112778,2.4431458
					c0.7627563,0.0834351,3.8256531,0.3098755,6.2211533-1.2632904c3.3726959-2.2047729,4.7552109-7.4962997,3.0747528-12.9189072
					c0.834259,1.5373764,1.7996063,3.8494415,2.0260468,6.7574005c0.0595779,0.8819122,0.0595779,1.7042465,0,2.4431458
					c0.9176941,0.0953598,1.6923218-0.0237885,2.3597107-0.2502289c4.7433472-1.6446686,6.9481201-10.3566132,6.1735077-21.5355606
					C137.0013275,104.5152588,137.9190216,111.7613373,134.9395599,118.7451782z"/>
				<path class="st22" d="M135.7023163,99.569397c-1.5137482-2.0510712-3.8201447-4.6713715-7.1560059-7.0392303
					c-1.8007812-1.2782364-3.5369415-2.2241211-5.067421-2.9278564c2.1588058,0.4839478,4.642128,1.193573,7.3196335,2.2522049
					c3.0376892,1.2010574,5.5982666,2.5639267,7.6689148,3.8368912
					C137.5457306,96.9840851,136.6240234,98.2767258,135.7023163,99.569397z"/>
				<path class="st23" d="M107.9933243,99.0569382c2.3906784,1.0188446,5.1400681,2.4074326,8.025177,4.3118896
					c2.0118942,1.3280334,3.7522049,2.6841049,5.2363434,3.9695053c2.1114273-2.2803497,4.2228699-4.5606689,6.3342972-6.8410187
					c-1.2934113-1.6186981-3.1910324-3.6543121-5.8275452-5.5741959c-2.2329712-1.6260071-4.3639374-2.7087936-6.0870895-3.43293
					c-1.3738937,1.0728226-2.8573227,2.3540421-4.3695984,3.8718491
					C110.0370636,96.6345291,108.9388962,97.8827209,107.9933243,99.0569382z"/>
			</g>
			<g>
				<path class="st21" d="M243.7484283,105.2113419c-1.2990112,4.9458618-2.2167053,12.1919327,0.7627563,19.1757736
					c0.8581238,1.9903336,3.3489075,7.8300323,6.7574768,7.770462c0.9414825-0.0238647,1.7280273-0.4886017,2.2762756-0.9295502
					c0.8938446,1.5135193,2.419281,3.5037689,4.8147736,4.2188873c4.0401917,1.2037201,8.0922852-1.9187469,12.8474731-5.5775452
					c4.1712646-3.2178268,6.3999023-4.9340057,7.3175964-7.1745682l0.0118408-0.0119247
					c0.0715027-0.1668701,0.1311646-0.3336639,0.1788025-0.5005341c1.9187622-6.0542831-3.3250427-12.5852432-7.2579956-17.4834595
					c-2.4431458-3.0391083-6.2926025-7.0434875-12.0846558-10.6426315
					c-2.8453674-3.676178-5.6907806-7.3523102-8.5361633-11.0363235c-0.7993164-1.0349045-2.1209869-1.538475-3.3983002-1.2584457
					c-3.0335388,0.665062-7.519043,2.2410812-11.0550995,6.1689835c-0.386261,0.4253311-0.7377625,0.8538208-1.0585175,1.2808762
					c-0.9066162,1.2070541-0.9562988,2.8506775-0.0798645,4.0798187
					C238.0780182,97.2645493,240.9176483,101.2379761,243.7484283,105.2113419z"/>
				<path class="st22" d="M244.5111847,124.3871155c0.8581238,1.9903336,3.3489075,7.8300323,6.7574768,7.770462
					c0.9414825-0.0238647,1.7280273-0.4886017,2.2762756-0.9295502c0.8938446,1.5135193,2.419281,3.5037689,4.8147736,4.2188873
					c4.0401917,1.2037201,8.0922852-1.9187469,12.8474731-5.5775452c4.1712646-3.2178268,6.3999023-4.9340057,7.3175964-7.1745682
					c-3.5038452,3.182045-6.6740417,5.3868942-9.0098877,6.8408432c-2.5862427,1.6089478-4.0759583,2.2644196-5.9112854,2.4431305
					c-0.7627563,0.0834351-3.8256531,0.3098755-6.2211609-1.2632751c-3.3726959-2.2047729-4.7552032-7.4963074-3.0747528-12.9189148
					c-0.834259,1.5373764-1.7996063,3.8494415-2.0260468,6.7574005c-0.0595703,0.8819122-0.0595703,1.7042465,0,2.4431458
					c-0.9176941,0.0953598-1.6923065-0.0237885-2.3597107-0.2502289
					c-4.7433472-1.6446686-6.9481201-10.3566132-6.1735077-21.5355606
					C242.4494171,110.1572037,241.531723,117.4032745,244.5111847,124.3871155z"/>
				<path class="st22" d="M243.7484283,105.2113419c1.5137482-2.0510712,3.8201447-4.6713715,7.1560059-7.0392303
					c1.8007812-1.2782364,3.5369415-2.2241211,5.0674286-2.9278564c-2.1588135,0.4839478-4.6421356,1.193573-7.3196411,2.2522049
					c-3.0376892,1.2010574-5.5982666,2.5639267-7.6689148,3.8368912
					C241.905014,102.62603,242.8267365,103.918663,243.7484283,105.2113419z"/>
				<path class="st23" d="M271.457428,104.6988831c-2.390686,1.0188446-5.1400757,2.4074326-8.025177,4.3118896
					c-2.0119019,1.3280334-3.7522278,2.6840973-5.2363586,3.9695053c-2.1114197-2.2803497-4.2228546-4.5606689-6.3342896-6.8410187
					c1.2934113-1.6186981,3.1910248-3.6543121,5.8275452-5.5741959c2.2329712-1.6260147,4.3639526-2.7087936,6.0870972-3.43293
					c1.3739014,1.0728149,2.8573303,2.3540344,4.3695984,3.8718491
					C269.4136658,102.276474,270.5118408,103.5246658,271.457428,104.6988831z"/>
			</g>
		</g>
		<g>
			<rect x="135.3897247" y="101.7783051" class="st17" width="4.3843117" height="10.5558815"/>
			<rect x="0.5" y="104.942955" class="st17" width="141.1733246" height="4.226418"/>
			<g>
				<path class="st17" d="M135.8065796,148.9957275c3.1340027,2.0344086,6.2681122,4.0688782,9.4021912,6.103363
					c1.473175,0.9563141,3.4432983,0.4888611,4.34375-1.0191193c5.4592285-9.1426239,9.1769562-19.2286835,10.9539795-29.7467957
					c-5.7087555-0.964386-11.4173584-1.9289246-17.1259613-2.8933029
					c-1.3966675,8.2673416-4.2961578,16.2001114-8.5462341,23.4083481
					C133.9959259,146.2701416,134.4220276,148.0969543,135.8065796,148.9957275z"/>
			</g>
			<path class="st17" d="M171.133606,120.7514114c-0.1309509-0.3729935-1.0032959-0.6353607-0.8312225-0.991333
				c0.20784-0.4295578,1.4189911-0.7834778,1.8921967-0.8465118c0.5661774,1.6317291,2.6648102,5.9055786-1.6794739,9.3296127
				C169.6520538,127.7215881,172.9132996,125.8224487,171.133606,120.7514114z"/>
			<path class="st18" d="M142.0288239,119.073494c0,3.0431519,0.0075684,1.7896118-0.0453796,5.6183472l-1.3668518,0.8004761
				l0.0453796,1.2762451l19.9285278,3.8209763h18.5315552l0.6871948,1.6915894l-1.1252747,2.3031616
				c-0.2225647,0.3945312-0.2360229,0.7647705-0.0691223,0.90625c0.033905,0.0287476,0.0932617,0.0633545,0.1975708,0.0679321
				c0.8609009,0.0100708,1.7218018,0.0201416,2.5827026,0.0302124l3.8134766,8.0725098
				c0.7807922,1.4693604,0.7515259,2.0510254,0.5267944,2.289978c-0.1581421,0.1681519-0.4060059,0.1590576-0.600769,0.4207153
				c-0.2247925,0.302002-0.1906433,0.711853-0.1222839,1.0199585c0.0240479,0.1081543,0.168335,0.7077026,0.763916,1.0786743
				c0.3752136,0.2337036,0.8406067,0.3226318,1.3050232,0.2099609l10.9729309-2.6619263
				c1.0782776-0.2615967,1.6244202-1.4661865,1.1105347-2.449646l-11.4188843-21.8524704
				c-0.4831238-0.7022095-0.6794739-1.532959-0.6115723-2.3410034c0.0906067-1.0948486,0.6569519-2.1596069,1.6538086-2.8619385
				c1.1099854-0.7854004,2.7336731-1.1252441,4.8102417-0.5436401v-13.9401855l-2.8619385-3.3453979l-1.6686096-5.7768555
				c-0.065094-0.4463501-0.5121765-3.1911011-3.0489197-4.8775024c-2.003479-1.3318481-4.0666199-1.1766968-4.6590576-1.1109619
				h-4.6542358l-31.4673462,3.2773438c-2.8091736,0.2869263-5.0444031,2.4694214-5.4219666,5.2634277l-0.4305115,3.2245483
				v18.2822876L142.0288239,119.073494z M161.5345459,123.6344681c0-1.180275,0.9568024-2.137085,2.137085-2.137085h0.0151215
				l10.3154144,0.0226974c0.8759766,0.0075607,1.6537933,0.5362396,1.9859619,1.3441467l1.2837982,3.179306
				c0.5738983,1.4044952-0.4606018,2.9451447-1.9785614,2.9451447h-11.6217346c-1.1802826,0-2.137085-0.9568024-2.137085-2.137085
				V123.6344681z M146.6151886,96.5389862v-0.2208099c0-1.385582,1.076416-2.5391769,2.4618835-2.6275253l19.4849243-1.3199234
				c1.9486084-0.1319962,3.7698059,0.9753265,4.5493164,2.7660904l0.2979889,0.6845551
				c0.6159515,1.4149857-0.421051,2.9973831-1.9642792,2.9973831h-22.5500641
				C147.6358795,98.8187561,146.6151886,97.7980728,146.6151886,96.5389862z"/>
			<path class="st17" d="M182.9808502,130.2944336l4.6242676-1.477356c0.5678711-0.1813965,1.1841736,0.0697021,1.4635315,0.5963745
				l6.3456726,11.9622803c0.5245667,0.9888916-0.0231628,2.2070923-1.1110229,2.4710083
				c-1.4394836,0.6008911-2.6794739,0.9717407-3.6072693,1.2067871c-1.118866,0.2834473-1.6743164,0.3416138-2.1732178,0.0472412
				c-0.686615-0.4051514-0.8807373-1.2506714-0.9415283-1.6179199l-5.342865-11.4952393
				C181.9257355,131.3148193,182.2741241,130.5202637,182.9808502,130.2944336z"/>
			<path class="st17" d="M193.6016541,115.9673233l72.1089478,16.5971298
				c1.5170288,0.3534546,2.9883118-0.7396698,3.0877686-2.2941895c2.6042786-7.5714951,3.7409058-16.1020203,3.4479675-25.5592651
				c0.092804-1.4525604-1.0601807-2.6816711-2.5157471-2.6816711h-76.1289368V115.9673233z"/>
			<rect x="131.2677765" y="100.3036804" class="st18" width="6.1986728" height="13.5051241"/>
			<path class="st17" d="M56.5074043,102.3542557v9.4017944c0,1.0647583,0.8457336,1.9407349,1.9104919,1.9708252
				c24.2807655,0.6796875,48.5615578,1.359375,72.8423157,2.0390625c1.1101379,0.0300903,2.0239563-0.8610229,2.0239563-1.963562
				v-13.4869995c0-1.1099854-0.9138184-2.0010986-2.0239563-1.9710083
				c-24.2807541,0.6796265-48.5615463,1.3592529-72.8423157,2.0388794
				c-0.1361694,0.0041504-0.8125916,0.0388184-1.3545532,0.5975952
				C56.5208015,101.5402298,56.5072823,102.2182083,56.5074043,102.3542557z"/>
			<path class="st18" d="M1.6797917,110.0472488h11.4849653c0.6515808,0,1.1797915-0.5282059,1.1797915-1.1797943v-3.6225739
				c0-0.6515884-0.5282106-1.1797943-1.1797915-1.1797943H1.6797917c-0.651588,0-1.1797917,0.5282059-1.1797917,1.1797943v3.6225739
				C0.5,109.519043,1.0282037,110.0472488,1.6797917,110.0472488z"/>
			<path class="st17" d="M43.4810066,92.8137817v12.2262421h13.0263977v-2.6854553l-8.3612175-10.728363
				c-0.5612679-0.7201691-1.4232979-1.1412506-2.3363495-1.1412506h-0.0000038
				C44.5236588,90.4849548,43.4810066,91.5276031,43.4810066,92.8137817z M46.5192795,91.9951859L46.5192795,91.9951859
				l8.4777336,10.8786087v0.655838H44.9912415V93.5232315C44.9912415,92.6793137,45.6753654,91.9951859,46.5192795,91.9951859z"/>
			<path class="st3" d="M187.6114349,117.3302383h-25.6354218c-1.7608795,0-3.1883392-1.4274673-3.1883392-3.1883392v-8.129837"/>
		</g>
		<g>
			<path class="st21" d="M178.7796936,100.9580536c-4.9876099,1.1281662-11.8403931,3.6554337-16.6632996,9.5197906
				c-1.3703461,1.6792831-5.4033966,6.5824127-3.778656,9.579422c0.4553375,0.8243942,1.230423,1.307991,1.874527,1.5911179
				c-0.9307861,1.4910812-1.9933167,3.7624588-1.5231628,6.2178116c0.7950592,4.1400146,5.4343414,6.2955933,10.8737335,8.827713
				c4.7788391,2.2173157,7.3293762,3.4034119,9.7406769,3.1844635l0.0160522,0.0050201
				c0.1810303-0.013504,0.3565369-0.0375061,0.5265808-0.0721741c6.2569275-1.0894012,9.6337738-8.7541199,12.1663666-14.502739
				c1.5700073-3.5693436,3.3479767-8.831665,3.8705444-15.6308365c1.9497986-4.2200317,3.8995209-8.440094,5.8562622-12.6637573
				c0.5496826-1.1865005,0.3870239-2.5914764-0.4504852-3.5957184c-1.9890442-2.3850174-5.4559937-5.6383133-10.5719757-6.9645691
				c-0.5555267-0.1465912-1.0978241-0.2608795-1.6246796-0.3485565c-1.4891357-0.2478256-2.970459,0.4660568-3.6569366,1.8105621
				C183.2161102,92.2618942,180.9999237,96.6139069,178.7796936,100.9580536z"/>
			<path class="st22" d="M162.116394,110.4778442c-1.3703461,1.6792831-5.4033966,6.5824127-3.778656,9.579422
				c0.4553375,0.8243942,1.230423,1.307991,1.874527,1.5911179c-0.9307861,1.4910812-1.9933167,3.7624588-1.5231628,6.2178116
				c0.7950592,4.1400146,5.4343414,6.2955933,10.8737335,8.827713c4.7788391,2.2173157,7.3293762,3.4034119,9.7406769,3.1844635
				c-4.4393158-1.6416321-7.857666-3.4378204-10.2249603-4.8399811c-2.6203003-1.5528412-3.888916-2.5724335-4.8938599-4.1185303
				c-0.4257812-0.6383362-2.0391693-3.2516861-1.7479706-6.1027298c0.401001-4.009407,4.4587402-7.6763458,10.0452728-8.6858978
				c-1.7488708-0.0312881-4.245575,0.17836-6.9302979,1.3184509c-0.8100128,0.3538361-1.5396729,0.7330551-2.1678467,1.1266632
				c-0.5078125-0.7703094-0.7593079-1.5125885-0.8661652-2.2092133
				c-0.7280579-4.9673157,5.9854889-10.9412003,16.2620087-15.4090805
				C173.7920837,102.0862198,166.9393005,104.6134872,162.116394,110.4778442z"/>
			<path class="st22" d="M178.7796936,100.9580536c2.5180206,0.3973236,5.9066772,1.235466,9.5460663,3.1034927
				c1.9646454,1.0084152,3.6045837,2.1127396,4.9348145,3.1462402c-1.4249573-1.6923828-3.1998138-3.5686417-5.3739014-5.4562454
				c-2.466568-2.1415253-4.8566895-3.7850952-6.9411011-5.0353775
				C180.2236023,98.130127,179.5016632,99.5440903,178.7796936,100.9580536z"/>
			<path class="st23" d="M192.0125122,125.3084793c-2.0065155-1.6514511-4.5065155-3.4506912-7.5268707-5.1324539
				c-2.1061707-1.1727676-4.1119995-2.091629-5.9369812-2.8157654c1.0497131-2.9251099,2.0993805-5.8502045,3.1490936-8.7753067
				c2.0327606,0.4011993,4.7140961,1.1462631,7.6334991,2.6003342c2.4725342,1.231514,4.4160004,2.6230392,5.8531799,3.8180847
				c-0.3183441,1.7138214-0.7711182,3.6209412-1.4205017,5.6627502
				C193.2194977,122.3779221,192.6183624,123.9279556,192.0125122,125.3084793z"/>
		</g>
	</g>
</g>
<g id="_x36_">
</g>
<g id="_x35_">
</g>
<g id="_x34_">
</g>
<g id="_x33_">
</g>
<g id="_x32__00000090986873235919319700000007018539234035486648_">
</g>
<g id="_x31_">
</g>
</svg>
